<svg xmlns="http://www.w3.org/2000/svg" width="26" height="29" viewBox="0 0 26 29">
    <path fill="#8A8C9D" stroke="#F6F7FB" stroke-width=".3" d="M20.59 26.862l-15.301.006c-.234.026-.437.134-.582.297-.145.164-.231.383-.231.629 0 .264.1.497.265.664.166.167.398.267.66.267l15.265-.006c.234-.026.437-.134.582-.297.145-.164.231-.383.231-.628 0-.263-.098-.496-.259-.663-.16-.168-.383-.269-.63-.269zM20.59.15c1.431 0 2.735.596 3.681 1.553.947.958 1.535 2.28 1.535 3.73 0 1.264-.442 2.427-1.179 3.342-.752.934-1.81 1.61-3.017 1.872-.202 2.2-1.007 4.076-2.286 5.515-1.315 1.48-3.13 2.497-5.177 2.774h0l-.275 5.039h4.017c.255 0 .481.098.643.261.162.165.26.394.26.654 0 .241-.085.457-.227.618-.14.16-.34.265-.567.291h0l-9.93.006c-.255 0-.481-.098-.643-.262-.162-.164-.26-.394-.26-.653 0-.241.085-.457.227-.618.14-.16.34-.266.567-.291h0l4.117-.007v-5.041c-2.11-.218-3.99-1.22-5.355-2.71-1.33-1.45-2.17-3.365-2.256-5.47-1.324-.385-2.38-1.051-3.132-1.979C.594 7.863.15 6.698.15 5.432c0-1.411.558-2.7 1.46-3.652C2.518.825 3.77.21 5.153.154h0zm-.903 1.83H6.27v8.388c0 1.87.753 3.567 1.968 4.797 1.215 1.23 2.893 1.992 4.74 1.992 1.82 0 3.473-.738 4.684-1.964 1.196-1.211 1.962-2.898 2.025-4.82V1.98zm-15.222.128c-.77.2-1.426.67-1.873 1.303-.402.568-.637 1.267-.637 2.021 0 .726.217 1.392.613 1.953.433.612 1.08 1.097 1.897 1.39V2.109zm17.027-.006v6.661c.775-.225 1.433-.7 1.88-1.333.398-.561.63-1.248.63-1.998s-.232-1.436-.63-1.998c-.447-.633-1.105-1.107-1.88-1.332z"/>
</svg>
