<svg width="34" height="21" viewBox="0 0 34 21" fill="none" xmlns="http://www.w3.org/2000/svg">
<path fill-rule="evenodd" clip-rule="evenodd" d="M9.03506 0.0676989C8.94954 0.124993 8.60302 0.172668 8.26499 0.173609C7.92696 0.174446 7.50714 0.219089 7.33206 0.272619C7.15698 0.326254 6.80382 0.428923 6.54727 0.500854C6.29071 0.572785 5.67322 0.834895 5.17504 1.08341C3.86749 1.7356 2.89601 2.73637 2.18688 4.16171C1.5102 5.52172 1.03617 6.92636 0.735874 8.46085C0.68249 8.73405 0.589405 9.20453 0.529179 9.50637C0.245156 10.9296 0.00477334 13.2457 0.000108717 14.6032C-0.00808028 17.0196 0.445632 18.4165 1.60609 19.548C2.65656 20.5723 4.39605 21.0023 7.48019 21C8.99246 20.9988 10.4952 20.8778 11.2637 20.6951C11.886 20.5473 12.919 19.9839 13.3322 19.5671C14.1237 18.7688 14.4256 17.8378 14.8399 14.9169C14.8929 14.5431 14.9846 13.9433 15.0436 13.5839C15.1026 13.2245 15.1992 12.6364 15.2582 12.277C15.4551 11.0774 15.5743 10.1643 15.5959 9.68933L15.6174 9.21885L12.2064 9.19125C8.30769 9.15978 8.46971 9.12392 8.37559 10.037C8.34491 10.3345 8.26882 10.8838 8.20642 11.2576C8.14402 11.6314 8.08338 12.1018 8.07166 12.3031L8.05031 12.669L9.55335 12.7213C10.9849 12.7711 11.0547 12.7835 11.0217 12.9827C10.9427 13.4578 10.7917 14.4324 10.7098 14.9953C10.6617 15.3259 10.5873 15.6906 10.5446 15.8056C10.5018 15.9206 10.4179 16.1467 10.3579 16.308C10.2863 16.5009 10.0776 16.6891 9.74917 16.8569C9.3194 17.0766 9.107 17.1123 8.23513 17.1109C7.58727 17.11 7.0526 17.0504 6.75458 16.946C5.01965 16.3382 4.63653 15.6552 4.71905 13.3182C4.76455 12.0304 4.82758 11.4371 5.08765 9.84616C5.3525 8.22655 5.54479 7.40384 5.75231 7.00237C5.84747 6.81825 5.92532 6.61511 5.92532 6.55071C5.92532 6.36461 6.55162 5.49181 6.99631 5.05824C7.50372 4.5634 8.10411 4.24452 8.77592 4.11289C9.80172 3.91184 14.9728 4.05068 15.3388 4.28906C15.518 4.40574 15.8765 4.07933 15.8765 3.79955C15.8765 3.68318 15.92 3.44345 15.9731 3.26686C16.0263 3.09027 16.1164 2.75759 16.1733 2.52758C16.2302 2.29757 16.3611 1.82709 16.4641 1.48207C16.5673 1.13705 16.6522 0.807712 16.6528 0.750209C16.6534 0.692706 16.4207 0.60896 16.1357 0.564003C15.8506 0.519151 15.3375 0.433732 14.9954 0.374243C13.401 0.0969731 9.3054 -0.113697 9.03506 0.0676989Z" fill="#0082F1"/>
<path fill-rule="evenodd" clip-rule="evenodd" d="M26.8892 0.250225C26.3076 0.473755 25.4888 1.02965 25.3468 1.29751C25.2893 1.40583 25.1752 1.56213 25.0932 1.64483C24.722 2.01923 24.0371 3.28576 22.5591 6.33071C21.6828 8.13631 19.8449 11.8953 18.4748 14.6842C16.0029 19.7161 15.5568 20.6967 15.6619 20.8682C15.692 20.9172 16.7405 20.9573 17.9921 20.9573H20.2676L20.5137 20.4084C20.649 20.1066 20.9106 19.5067 21.0949 19.0754C21.7281 17.5938 22.1833 16.6377 22.3719 16.393L22.5608 16.148H25.4397C28.7964 16.148 28.6115 16.0858 28.6996 17.2457C28.7302 17.6483 28.8055 18.3305 28.867 18.7617C28.9284 19.193 29.0123 19.8517 29.0534 20.2254L29.1281 20.905H31.564H34L33.9803 20.4346C33.9605 19.9617 33.8471 19.2014 33.6372 18.1344C33.575 17.8182 33.4795 17.2888 33.4251 16.9582C33.3707 16.6276 33.2796 16.0748 33.2226 15.7298C33.1656 15.3847 33.0723 14.8202 33.0152 14.4751C32.9582 14.1301 32.8649 13.5655 32.8079 13.2205C32.7509 12.8755 32.6576 12.3109 32.6006 11.9659C32.5436 11.6209 32.4525 11.068 32.3981 10.7374C32.3436 10.4068 32.2482 9.8775 32.186 9.56124C32.1238 9.24497 32.0283 8.71563 31.9739 8.38504C31.9195 8.05445 31.8284 7.50158 31.7713 7.15656C31.7143 6.81154 31.621 6.24697 31.564 5.90195C31.507 5.55693 31.4159 5.00406 31.3615 4.67347C30.9966 2.45667 30.8599 2.01411 30.2541 1.08998C29.6518 0.171182 28.1013 -0.215759 26.8892 0.250225ZM27.2505 6.13719C27.3579 7.13126 27.6828 9.74441 27.8323 10.8159C27.8925 11.2471 27.9521 11.7647 27.9648 11.9659L27.9878 12.3318L26.1297 12.3605C25.1076 12.3762 24.2334 12.3508 24.187 12.3039C24.093 12.2091 24.3244 11.5281 24.7994 10.5022C24.9724 10.1284 25.2642 9.46975 25.4478 9.03848C25.6315 8.60721 25.9632 7.86552 26.1851 7.39023C26.4069 6.91505 26.5887 6.46809 26.5889 6.39699C26.5894 6.21361 26.9812 5.58829 27.0956 5.58829C27.1482 5.58829 27.2179 5.83524 27.2505 6.13719Z" fill="white"/>
</svg>
