<svg width="992" height="153" viewBox="0 0 992 153" fill="none" xmlns="http://www.w3.org/2000/svg"><g clip-path="url(#clip0)"><path d="M0 152.14V142.71C4 142.71 5.99999 142.71 6.76999 142.78C7.76999 142.78 8.76999 142.78 9.76999 142.78H980C981.83 142.78 987.52 142.66 989.32 142.68C989.32 144.68 989.32 144.68 989.32 147.04C989.32 149.4 989.32 150.64 989.32 152.11C988.18 152.11 983.26 152.11 982.1 152.11" fill="#C61D22" /><path d="M339.3 30.18C335.887 34.42 332.48 38.6633 329.08 42.91C320.767 53.3167 312.463 63.7333 304.17 74.16C300.33 78.96 299.57 78.96 295.63 74.04C284.723 60.38 273.82 46.7133 262.92 33.04C262.13 32.04 261.25 31.14 259.74 29.44V125.96H242V2.15001H259L300 52.73L341.41 1.89H357.89V125.97H340.33V30.58L339.3 30.18Z" fill="#262223" /><path d="M903.9 65.12V126.22C897.9 126.32 892.15 126.27 886.07 126.22V1.75999H903.65V57.38L904.91 58.19C905.652 56.9283 906.484 55.7218 907.4 54.58C922.85 37.79 938.4 21.05 953.79 4.22999C954.454 3.40064 955.304 2.74066 956.273 2.3043C957.241 1.86795 958.299 1.6677 959.36 1.72001C965.36 1.86001 971.36 1.72001 978.57 1.72001L924.28 60.72L992 126.26C983.35 126.26 975.93 126.42 968.53 126.13C967.01 126.07 965.37 124.52 964.12 123.31C946.26 106.07 928.43 88.8033 910.63 71.51C908.64 69.58 906.61 67.7 903.9 65.12Z" fill="#262223" /><path d="M39.62 60.7C61.99 82.35 84.22 103.87 107.34 126.27C102.84 126.27 99.34 126.27 95.82 126.27C91.49 126.27 86.72 127.27 82.96 125.81C79.2 124.35 76.42 120.35 73.32 117.36C56.6533 101.267 40.01 85.16 23.39 69.04C22.21 67.9 21.01 66.78 19.2 65.04V125.98H1.26001V2.05H18.85V58.79L71.34 1.98H93.75L39.62 60.7Z" fill="#252122" /><path fill-rule="evenodd" clip-rule="evenodd" d="M635.12 0.910001C602.76 5.35 579.77 31.34 579.65 63.77C579.55 89.96 594.4 112.68 618.36 122.6C630.76 127.74 643.66 128.92 657 127.27C689 123.33 710.24 99.89 713.3 72.64C716.22 46.59 707.47 25.42 685.37 10.78C670.12 0.690026 653.03 -1.54 635.12 0.910001ZM684.119 95.207C675.594 105.061 662.612 111.437 646.49 111.38C646.446 111.38 646.402 111.38 646.358 111.379C645.7 111.376 645.045 111.36 644.394 111.334C622.896 110.455 605.386 97.2752 600.01 77.63C598.837 73.3436 598.226 69.0646 598.135 64.8744C598.111 63.768 598.123 62.6678 598.17 61.5753C599.226 37.4185 617.709 17.0129 645.77 16.61C654.913 16.4767 663.438 18.4463 670.743 22.2054C680.444 27.1831 688.009 35.3092 692 45.85C698.656 63.5502 695.294 81.8163 684.674 94.5525C684.491 94.7723 684.306 94.9905 684.119 95.207Z" fill="#262223" /><path fill-rule="evenodd" clip-rule="evenodd" d="M785.94 0.930003C752.18 5.8 730.28 33.34 730.71 63.99C730.7 90.18 745.69 112.98 769.57 122.7C781.83 127.69 794.56 128.88 807.74 127.31C839.07 123.58 860.86 100.73 864.46 72.44C867.63 47.56 856.83 20.17 830.19 7.16999C816.18 0.339993 801.33 -1.29 785.94 0.930003ZM754.62 41.63C763.37 24.39 778.63 17.12 794.12 16.63C820.17 16.53 838.57 29.27 844.32 49.81C844.882 51.8231 845.326 53.8194 845.656 55.7934C850.609 85.4038 829.995 110.004 800.82 111.27C783.18 112.03 768.19 106.43 757.9 91.69C757.898 91.6872 757.896 91.6844 757.894 91.6816C746.88 75.8839 745.971 58.627 754.62 41.63Z" fill="#262223" /><path fill-rule="evenodd" clip-rule="evenodd" d="M384.23 1.98C388.444 1.98 392.618 1.96082 396.765 1.94176C406.661 1.89629 416.398 1.85154 426.13 2.07C434.188 2.21992 441.952 5.12432 448.13 10.3C458.06 18.46 461.75 33.43 456.73 45.22C454.437 50.4514 450.44 54.7518 445.39 57.42C444.201 58.0866 443.006 58.7417 441.657 59.481L441.654 59.4829C441.223 59.719 440.777 59.9636 440.31 60.22C441.511 60.652 442.676 61.0455 443.811 61.4291C446.146 62.2176 448.357 62.9647 450.51 63.92C462.74 69.38 469.58 78.86 469.78 92.28C469.98 105.7 463.55 115.59 451.41 121.21C446.52 123.47 441.03 125.51 435.74 125.68C423.417 126.084 411.073 126.014 398.645 125.944L398.642 125.944C393.845 125.917 389.036 125.89 384.21 125.89L384.23 1.98ZM451.181 90.4708C451.187 83.1594 447.868 77.8801 441.34 74.74C438.705 73.338 435.833 72.4361 432.87 72.08C426.841 71.6514 420.797 71.4779 414.752 71.3045L414.75 71.3044C412.333 71.2351 409.916 71.1657 407.5 71.08C406.333 71.0402 405.161 71.0532 403.965 71.0665C403.357 71.0732 402.743 71.08 402.12 71.08V71.12V109.98V110.05C404.688 110.05 407.223 110.068 409.731 110.085C416.434 110.133 422.955 110.178 429.46 109.88C433.427 109.602 437.313 108.613 440.93 106.96C447.8 103.94 451.12 98.3 451.18 90.72C451.18 90.68 451.181 90.64 451.181 90.6C451.181 90.5569 451.181 90.5138 451.181 90.4708ZM402.21 54.98C404.018 54.98 405.769 54.9951 407.483 55.0098C410.802 55.0384 413.981 55.0657 417.16 54.98C422.011 54.9472 426.794 53.8335 431.16 51.72C438.01 48.18 441.16 41.3 440.07 32.21C439.562 27.7416 437.502 24.1744 433.979 21.7467C432.216 20.5201 430.088 19.5811 427.61 18.96C422.089 17.5948 416.512 17.7361 410.871 17.8789C408.001 17.9517 405.114 18.0248 402.21 17.9V54.97V54.98Z" fill="#252122" /><path fill-rule="evenodd" clip-rule="evenodd" d="M562.39 126.05H583.61C583.252 125.502 582.924 124.994 582.615 124.517C581.915 123.434 581.315 122.505 580.69 121.61C579.203 119.432 577.695 117.267 576.186 115.101C573.131 110.716 570.075 106.329 567.19 101.83C566.056 100.059 564.941 98.2732 563.826 96.4873C557.141 85.7817 550.447 75.0619 539.64 67.28C541.1 66.4 542.1 65.82 543.1 65.28C555.22 58.74 560.5 48.34 559.98 34.85C559.49 21.74 553.42 12.04 541.56 6.24001C536.174 3.57173 530.269 2.11432 524.26 1.97002C515.78 1.76002 507.28 1.75999 498.78 1.75999H487.61V126.05H505.61V72.61C516.7 70.73 525.59 73.83 532.27 82.23C537.44 88.73 542.31 95.49 547 102.34C550.67 107.717 554.174 113.208 557.658 118.669C559.235 121.14 560.808 123.605 562.39 126.05ZM509.756 56.0118C508.376 55.9951 506.97 55.98 505.53 55.98V17.17V17.16C507.023 17.1486 508.513 17.1113 509.998 17.0741C516.342 16.9152 522.61 16.7583 528.76 18.63C537.18 21.2 541.17 26.63 541.39 35.63C541.39 35.6333 541.39 35.6367 541.39 35.64C541.407 36.3572 541.399 37.0569 541.367 37.7387C540.979 45.7849 537.105 51.3542 529.73 54C526.922 55.0314 523.984 55.6675 521 55.89C517.517 56.1072 514.02 56.0642 510.346 56.019C510.15 56.0166 509.953 56.0142 509.756 56.0118Z" fill="#272324" /><path fill-rule="evenodd" clip-rule="evenodd" d="M141.52 89.94H194.79C199.721 100.718 204.667 111.536 209.468 122.034L211.24 125.91H229.6L174 1.22002H161L107.55 126.05H125.94L141.52 89.94ZM179.256 55.3932C181.9 61.3134 184.541 67.2326 187.22 73.24H148.73H148.7C153.438 61.8147 158.066 50.6288 162.801 39.1825C164.261 35.6514 165.732 32.0954 167.22 28.5C167.225 28.5116 167.23 28.5232 167.236 28.5348C167.24 28.5232 167.245 28.5116 167.25 28.5C171.344 37.665 175.301 46.5317 179.256 55.3932Z" fill="#272324" /></g><defs><clipPath id="clip0"><rect width="991.99" height="152.15" fill="white" /></clipPath></defs></svg>