<svg id="Layer_1" data-name="Layer 1" xmlns="http://www.w3.org/2000/svg" viewBox="0 0 175.75 38.11"><defs><style>.cls-1{fill:#cd2a31;fill-rule:evenodd;}</style></defs><title>Nobo</title><path class="cls-1" d="M687.94,366.6h11.52a1,1,0,0,1,1,1v33.2a1,1,0,0,1-1,1H687.94a1,1,0,0,1-1-1V367.6a1,1,0,0,1,1-1Zm15.28,1.79.07,5.28c.09,1.88.3,1.68,2.16,1.69,2.79-.12,4.55.16,4.49,2.32s-1.11,2.11-4.89,2c-1.23-.07-1.82.34-1.75,1.39v4.86c.09,1.76.3,1.73,1.83,1.72,1.2.16,5.55-.82,6.16,2.68.13,1-.19,4-6.24,3.23-1.64.06-2.06.46-2.08,1.63v5.3c0,1.29,0,1.62,2.47,1.57l9.76.09c8.29.67,17.16-14.69,3.51-19.3,3.92.47,10.27-14.38-4.91-16.22l-9.48,0c-1.15,0-1.15.56-1.11,1.79Z" transform="translate(-594.5 -365.32)" /><path class="cls-1" d="M598.29,366.71l10.23-.21c1.22.07,1.85-.22,3.48,2.11l21.14,33.56L622.41,402c-1.34-.06-1.81-.18-3.67-2.45l-20.45-32.84Zm25.87.44h11.51a1,1,0,0,1,1.05,1l-.35,34.32-13.26-21V368.14a1,1,0,0,1,1-1Zm-16.74,34.72H595.58a1,1,0,0,1-1.08-1l.36-34.57,13.63,21.11v13.46a1,1,0,0,1-1.07,1Z" transform="translate(-594.5 -365.32)" /><path class="cls-1" d="M737.89,399.17c2.47-3.1,4.77-7.35,7.24-10.45-3.33-1.78-2.42-13.68,8.07-10.35,2.18-3.3,4.8-6.29,7-9.6-.36-1.45-17.41-8.62-26.11,3.39-11.9,15,2.44,26.74,3.82,27ZM762.2,370c-2.47,3.1-4.42,6.78-6.89,9.88,3.36,1.77,4.54,13.79-8.46,10.45l-7.3,10.06c.81.18,15.17,8.44,26.56-3.22,10.73-14.92-2.63-27.17-3.91-27.17Z" transform="translate(-594.5 -365.32)" /><path class="cls-1" d="M661.15,391.23c-3.45-.59-6.56-3.44-6.56-6.91s3-6.56,6.57-7.07c.05,0-.17.05-.11,0,.51,0,.08-11.06,0-11.05-13.29.76-18.84,8.58-18.84,18.19s8.79,17.08,19,18.09c.1,0-.12-11.29,0-11.29Zm2.24,0c.06,0,.12,11.27.17,11.27,10.88-.37,19.41-8.15,19.41-18.07s-8.8-17.75-19.6-18.19c0,0,0,10.9,0,10.91a7.78,7.78,0,0,1,6,7.17,7.33,7.33,0,0,1-6,6.91Z" transform="translate(-594.5 -365.32)" /></svg>