<?xml version="1.0" encoding="UTF-8"?><svg width="2566px" height="1462px" viewBox="0 0 2566 1462" version="1.1" xmlns="http://www.w3.org/2000/svg" xmlns:xlink="http://www.w3.org/1999/xlink"><title>beko</title><desc>Created with Sketch.</desc><defs></defs><g id="Page-1" stroke="none" stroke-width="1" fill="none" fill-rule="evenodd"><g id="beko" fill="#0089CF" fill-rule="nonzero"><polygon id="Shape" points="1960.44 197.23 1706.87 197.23 1704.26 197.23 1530.38 460.42 1530.38 0 1333.15 0 1333.15 831.71 1530.38 831.71 1530.38 536.77 1732.89 831.71 1988.48 831.71 1707.34 499.34"></polygon><path d="M878.89,442.46 C884.05,389.28 917.8,314.01 1000.81,314.01 C1091.65,314.01 1112.45,394.46 1112.45,442.46 L878.89,442.46 Z M1012.52,182.92 C791.92,182.92 692.01,360.66 692.01,521.56 C692.01,720.06 815.31,844.64 1030.68,844.64 C1116.31,844.64 1195.46,831.64 1260.34,805.64 L1234.34,672.02 C1181.16,688.88 1126.65,698.02 1059.19,698.02 C967.07,698.02 886.63,659.09 880.19,577.35 L1288.9,577.35 C1291.5,563.08 1295.38,533.24 1295.38,499.51 C1295.38,342.51 1217.52,182.91 1012.53,182.91 L1012.52,182.92 Z" id="Shape"></path><path d="M333.43,704.55 C254.75,704.55 209.99,633.42 204.34,535.35 L204.34,493.11 C209.24,406.58 245.72,323.11 333.43,323.11 C422.93,323.11 459.31,419.11 459.31,513.85 C459.31,628.03 409.98,704.58 333.43,704.58 M338.63,182.99 C289.53,182.99 244.51,190.76 204.34,205.2 L204.34,0 L0,0 L0,536.07 C7.79,730.6 148,845.96 328.25,845.96 C498.25,845.96 663.01,739.59 663.01,507.33 C663.01,316.6 533.25,182.96 338.63,182.96" id="Shape"></path><path d="M2235.61,704.55 C2151.29,704.55 2105.86,622.82 2105.86,513.82 C2105.86,420.4 2140.86,323.08 2235.61,323.08 C2325.12,323.08 2361.47,419.08 2361.47,513.82 C2361.47,628 2312.15,704.55 2235.61,704.55 M2240.8,182.92 C2037.09,182.92 1902.18,314.01 1902.18,519.02 C1902.18,724.03 2044.86,845.92 2230.42,845.92 C2400.37,845.92 2565.19,739.55 2565.19,507.29 C2565.18,316.6 2435.43,182.92 2240.8,182.92" id="Shape"></path><polygon id="Shape" points="0 1262.48 0 1461.65 2492.69 1111.34 2492.69 912.19"></polygon></g></g></svg>