<svg id="Layer_1" data-name="Layer 1" xmlns="http://www.w3.org/2000/svg" xmlns:xlink="http://www.w3.org/1999/xlink" viewBox="0 0 1800 837.77"><defs><style>.cls-1{fill:#2100ff;}.cls-2{clip-path:url(#clip-path);}.cls-3{fill:#fff;}</style><clipPath id="clip-path" transform="translate(-100 -581.12)"><rect class="cls-1" x="100" y="581.12" width="1800" height="837.77" /></clipPath></defs><title>Ultimate Ears Logo RGB 2</title><rect class="cls-1" width="1800" height="837.77" /><g class="cls-2"><path class="cls-3" d="M1275.61,1125.41l-23.4-8.4q-14.74-5.33-22.12-10.42t-6.37-12.71a16.2,16.2,0,0,1,8.65-12.21q7.38-4.08,20.6-3.57,14.76.27,22.89,6.1t7.62,17.56h37.89a52.87,52.87,0,0,0-4.7-22.89,47.9,47.9,0,0,0-13.61-17,71.17,71.17,0,0,0-21.48-11.44,83.73,83.73,0,0,0-28.62-4.07,96.54,96.54,0,0,0-27.47,3.55,65,65,0,0,0-20.6,10.05,49.41,49.41,0,0,0-13.74,15.64,42.81,42.81,0,0,0-5.34,20.08q-1,32,40.19,48.08,30.52,11.7,42.46,16t15.52,9.79a15.66,15.66,0,0,1,1.9,12.58q-1.65,7.13-9.79,11.45t-23.15,3.81q-18.06-1.26-26.07-9.53t-8.27-24.55h-37.89a78.05,78.05,0,0,0,4.7,29.25,50.26,50.26,0,0,0,14.24,20.85,68.44,68.44,0,0,0,23,12.46,94.92,94.92,0,0,0,30.27,4.58,110.44,110.44,0,0,0,28.74-3.43,57,57,0,0,0,21.36-10.42,51.89,51.89,0,0,0,13.61-16.53q5-9.55,5.47-23.28.5-18.56-8.64-29.62t-37.9-21.75m-159.2-1.91q-6.62,6.25-21.11,6.24h-35.09v-47.81h35.09q14.51,0,21.11,6.24t6.61,17.66q0,11.45-6.61,17.68m51.37,103.89-41.45-67.64q16.52-7.38,24.41-20.23t7.87-34.46q0-14.51-4.7-24.93a45.28,45.28,0,0,0-13.48-17.29,58.5,58.5,0,0,0-21.23-10.17,109.38,109.38,0,0,0-28-3.3h-69.18v178h38.15v-62.82h30l32.05,62.82Zm-296,0,14.74-40.69h65.11l14.76,40.69H1005l-62.57-178h-46.8l-62.56,178Zm22.12-73.76L918,1081.92h2l24.16,71.71Zm-202.94,73.76H811.48V1191H729.09v-37.39h73.75v-33.56H729.09v-38.15h79.85v-32.55h-118Z" transform="translate(-100 -581.12)" /><path class="cls-3" d="M1555,988h141.82V945.24h-96.94v-44h86.77V861.77h-86.77V816.89h93.95v-38.3H1555Zm-132.53,0h44.88V816.89h61.34v-38.3H1361.14v38.3h61.34Zm-212.13,0,17.35-47.87h76.6L1321.64,988h45.48l-73.6-209.44h-55.05L1164.86,988Zm26-86.77,28.42-84.37h2.39l28.42,84.37Zm-93.95-122.67h-71.51l-39.79,148.7h-2.39l-39.79-148.7H917.42V988h39.79V816.89h2.39L1009.27,988h41.29l49.67-171.14h2.39V988h39.79ZM827.06,988h45.48V778.59H827.06Zm-136.13,0h44.88V816.89h61.34v-38.3H629.6v38.3h61.34Zm-180.12,0H650.54V945.24H555.7V778.59H510.82ZM302,778.59V898q0,12.87.6,22a121.32,121.32,0,0,0,2.09,16.46,62.57,62.57,0,0,0,4,13,72.42,72.42,0,0,0,6.44,11.37q21.54,30.82,72.11,30.82t72.11-30.82a73.39,73.39,0,0,0,6.44-11.37,63.3,63.3,0,0,0,4-13,125.45,125.45,0,0,0,2.09-16.61q.59-9.26.6-21.84V778.59H427.64V898.87q0,16.16-3,26.33t-12.71,17.5Q402.2,950,387.24,950t-24.69-7.34q-9.71-7.32-12.71-17.5t-3-26.33V778.59Z" transform="translate(-100 -581.12)" /></g></svg>