<svg id="Layer_1" data-name="Layer 1" xmlns="http://www.w3.org/2000/svg" viewBox="0 0 99 28.72"><defs><style>.cls-1{fill:#231f20;}</style></defs><title>Chiq-logo</title><path class="cls-1" d="M99,32.71c-2.17,0-4,0-5.79,0A1.84,1.84,0,0,1,92,32q-2.19-2.84-4.26-5.76c-.82-1.16-.64-1.61.58-2.42A12.82,12.82,0,0,0,90.61,22a6,6,0,0,0,0-8.62A9.69,9.69,0,0,0,77.39,13c-3.18,3-3,7.28.53,10a4.2,4.2,0,0,0,1.22.78c2.22.67,3.36,2.44,4.41,4.27a2.72,2.72,0,0,1,.27,1.7c0,.18-.9.33-1.38.3a14.49,14.49,0,0,1-10.87-5.36,10.74,10.74,0,0,1,.27-14.11C77.56,4,88.76,3.61,95,9.77a10.87,10.87,0,0,1,1.36,14.45c-1.38,2-1.68,1.49,0,3.93.65.93,1.38,1.8,2,2.76a9.35,9.35,0,0,1,.64,1.8Z" transform="translate(0 -4)" /><path class="cls-1" d="M29.66,17.57c0-3.36,0-6.72,0-10.09,0-2,.45-2.36,2.41-1.88,2.6.64,3.57,1.87,3.59,4.56,0,1.22,0,2.43,0,3.65a1.12,1.12,0,0,0,1.22,1.32c3,0,6,0,9,0,1.12,0,1.14-.86,1.16-1.61,0-2.19,0-4.37,0-6.56,0-1.36.3-1.61,1.65-1.5C51.47,5.68,53,7.25,53,10q0,9.18,0,18.35c0,1.57-.11,1.68-1.64,1.71-1,0-1.95,0-2.92,0s-1.31-.42-1.3-1.33q0-3.22,0-6.44c0-1.79-.21-2-2-2H37.58c-1.79,0-1.9.13-1.9,2,0,2,0,4.05,0,6.08C35.65,29.85,35.5,30,34,30c-.89,0-1.79,0-2.68,0s-1.54-.39-1.56-1.4q-.06-3.16-.09-6.32c0-1.58,0-3.16,0-4.74Z" transform="translate(0 -4)" /><path class="cls-1" d="M14.5,5.43A15.53,15.53,0,0,1,25.31,9.19c.47.41,1.08,1.23.94,1.61a2.63,2.63,0,0,1-1.6,1.26,7.51,7.51,0,0,1-5.33-.42,10.88,10.88,0,0,0-6.74-.87A7.77,7.77,0,0,0,6.13,17,6,6,0,0,0,8.92,23a9.65,9.65,0,0,0,10.33.83,7.21,7.21,0,0,1,5.29-.59,4.5,4.5,0,0,1,1,.43c1,.62,1.16,1.27.3,2.13a13.42,13.42,0,0,1-6.26,3.58C13.19,31,7.35,30,2.8,24.91-1.51,20.11-.73,13.15,4.35,9A15.37,15.37,0,0,1,14.5,5.43Z" transform="translate(0 -4)" /><path class="cls-1" d="M63.94,21.73c0,2.3,0,4.61,0,6.91,0,1-.38,1.41-1.36,1.38s-2.27,0-3.4,0a1,1,0,0,1-1.11-1.12c0-4.81,0-9.62,0-14.42A2.78,2.78,0,0,1,61,11.79a2.89,2.89,0,0,1,2.93,2.92c0,2.34,0,4.69,0,7Z" transform="translate(0 -4)" /><path class="cls-1" d="M61,9.84A2.76,2.76,0,0,1,58.06,7,2.8,2.8,0,0,1,61,4a2.83,2.83,0,0,1,2.92,2.89,2.79,2.79,0,0,1-3,3Z" transform="translate(0 -4)" /></svg>