<svg width="1426" height="233" viewBox="0 0 1426 233" fill="none" xmlns="http://www.w3.org/2000/svg"><path d="M934.44 120.074L927.3 230.82H993.388L1000.53 120.074C1004.1 70.058 968.382 66.485 945.159 62.914C943.376 62.914 930.87 61.128 913.007 61.128C907.648 61.128 904.08 61.128 898.721 61.128C857.636 62.914 807.623 68.274 807.623 68.274H805.834L795.121 229.03H861.213L870.14 98.64C870.14 98.64 896.932 95.067 911.222 96.853C927.301 96.853 936.23 102.211 934.44 120.074Z" fill="#31B0AB" /><path d="M194.954 0.396L187.81 80.773H84.2081L87.7811 14.684C87.7811 0.396 75.2751 0.396 69.9201 0.396H66.3471H19.9051H18.1201V2.182L0.25708 229.03V230.82H2.04408H69.9201H71.7071V229.03L78.8491 129.004H182.453L175.307 229.03V230.82H177.094H246.757H248.544V229.03L266.404 2.182V0.396H264.618H194.954Z" fill="#31B0AB" /><path d="M289.623 62.914H287.836L275.331 229.03H273.548H275.331H343.211H344.997L357.497 64.699V62.914H355.712H289.623Z" fill="#31B0AB" /><path d="M346.779 0.396H293.194H291.409V2.182L287.836 43.264V45.051H289.623H357.497H359.285V43.264C359.285 43.264 361.072 20.045 361.072 14.684C362.857 3.971 359.285 0.396 346.779 0.396Z" fill="#31B0AB" /><path d="M502.18 130.79L477.175 120.074C459.316 112.928 446.813 107.567 448.595 100.422C450.383 96.853 457.529 93.28 482.535 93.28C503.969 93.28 528.978 95.066 557.554 100.422H559.341V98.64L561.127 68.274V66.486H559.341C548.626 64.7 518.259 59.34 482.535 59.34C480.75 59.34 477.175 59.34 475.389 59.34C461.097 59.34 448.594 59.34 436.091 61.128C412.871 64.699 375.36 73.632 373.572 105.783C371.786 137.933 409.3 152.222 434.301 161.156L453.953 168.302C475.388 177.232 486.102 180.804 486.102 186.161C486.102 193.307 477.172 193.307 457.526 193.307C455.738 193.307 452.167 193.307 450.38 193.307C425.372 193.307 389.65 187.95 375.354 184.377H373.571V186.16L371.785 220.098V221.884H373.571C373.571 221.884 400.361 225.457 457.523 227.244C461.095 227.244 464.668 227.244 468.238 227.244C509.324 227.244 559.336 220.098 564.695 186.159C566.482 157.582 534.332 145.082 502.18 130.79Z" fill="#31B0AB" /><path d="M641.505 127.217C645.078 109.355 657.579 91.493 686.16 91.493C729.027 91.493 725.457 127.217 725.457 127.217H641.505V127.217ZM782.615 159.369C796.908 78.987 725.457 62.914 709.381 61.128C704.026 61.128 696.878 59.34 689.734 59.34C618.285 61.128 591.492 96.853 580.776 123.647C580.776 125.43 577.203 132.575 575.416 141.506C575.416 143.29 575.416 143.29 575.416 145.082V146.863C573.63 171.875 580.776 212.957 639.724 227.24C643.292 227.24 646.866 229.03 650.439 229.03C662.945 230.82 671.874 232.603 696.879 232.603C737.967 232.603 762.974 227.24 773.687 223.67C775.477 216.526 777.26 200.45 779.046 189.732C773.687 191.518 739.751 198.67 704.026 198.67C702.238 198.67 702.238 198.67 700.454 198.67C650.438 196.877 639.724 171.874 639.724 161.151H782.617V159.369H782.615Z" fill="#31B0AB" /><path d="M1145.22 130.79L1120.21 120.074C1102.35 112.928 1089.84 107.567 1091.63 100.422C1093.42 96.853 1100.56 93.28 1125.57 93.28C1147 93.28 1172.01 95.066 1200.59 100.422H1202.37V98.64L1204.17 68.274V66.486H1202.37C1191.66 64.7 1161.29 59.34 1125.57 59.34C1123.78 59.34 1120.21 59.34 1118.42 59.34C1104.13 59.34 1091.63 59.34 1079.13 61.128C1055.91 64.699 1018.4 73.632 1016.61 105.783C1014.82 137.933 1052.33 152.222 1077.34 161.156L1096.99 168.302C1118.42 177.232 1129.14 180.804 1129.14 186.161C1129.14 193.307 1120.21 193.307 1100.56 193.307C1098.77 193.307 1095.2 193.307 1093.41 193.307C1068.4 193.307 1032.68 187.95 1018.39 184.377H1016.6V186.16L1014.82 220.098V221.884H1016.6C1016.6 221.884 1043.4 225.457 1100.56 227.244C1104.13 227.244 1107.7 227.244 1111.27 227.244C1152.36 227.244 1202.37 220.098 1207.73 186.159C1209.52 157.582 1177.37 145.082 1145.22 130.79Z" fill="#31B0AB" /><path d="M1284.54 127.217C1288.11 109.355 1300.62 91.493 1329.2 91.493C1370.28 91.493 1368.5 127.217 1368.5 127.217H1284.54V127.217ZM1423.87 159.369C1438.16 78.987 1366.71 62.914 1350.63 61.128C1345.27 61.128 1338.13 59.34 1330.98 59.34C1259.54 61.128 1232.74 96.853 1222.03 123.647C1222.03 125.43 1218.45 132.575 1216.67 141.506C1216.67 143.29 1216.67 143.29 1216.67 145.082V146.863C1214.88 171.875 1222.03 212.957 1280.97 227.24C1284.54 227.24 1288.11 229.03 1291.69 229.03C1304.19 230.82 1313.12 232.603 1338.13 232.603C1379.22 232.603 1404.22 227.24 1414.94 223.67C1416.72 216.526 1418.51 200.45 1420.3 189.732C1414.94 191.518 1381 198.67 1345.28 198.67C1343.49 198.67 1343.49 198.67 1341.71 198.67C1291.69 196.877 1280.97 171.874 1280.97 161.151H1423.87V159.368H1423.87V159.369Z" fill="#31B0AB" /></svg>