<svg id="Speed_Queen" data-name="Speed Queen" xmlns="http://www.w3.org/2000/svg" viewBox="0 0 251.66 54.7"><defs><style>.cls-1{fill:#0067b1;}</style></defs><title>SpeedQueen</title><path class="cls-1" d="M174.67,256.34c-3.77,0-8.37-.16-8.37-5.89v-.38h7.19v2.59h1.34v-2.48c-1.18-.41-2.56-.8-3.93-1.27-2.2-.77-4.29-1.76-4.38-4.81-.08-4.07,2.84-5.72,7.68-5.72,6.3,0,7.73,2.39,7.73,5.22v.66h-7.1v-2.14h-1.34v2.14c.9.28,2.22.66,3.71,1.1,2.53.72,5.09,1.79,5.09,5.09C182.29,254.94,179,256.34,174.67,256.34Z" transform="translate(-90.21 -224.31)" /><path class="cls-1" d="M197.47,254.09a4.14,4.14,0,0,1-3.85,2.14,4.22,4.22,0,0,1-3.58-1.46v5.56h-6.57V242.78H190v1.37a4.83,4.83,0,0,1,6.68-.52c1.21,1.16,1.49,2.81,1.49,5.61C198.16,251.25,198.1,252.93,197.47,254.09Zm-6-7.65H190v5.75h1.41Z" transform="translate(-90.21 -224.31)" /><path class="cls-1" d="M211.39,255.35a10.58,10.58,0,0,1-4.85.91c-6,0-7.37-2.75-7.37-6.94,0-4.67,2-6.95,7.62-6.95,3.36,0,5.37.85,6.47,2.61a7.3,7.3,0,0,1,.82,4.07v1h-8.14v3.06h1.4v-1.71h6.74A4.69,4.69,0,0,1,211.39,255.35Zm-4-10.1h-1.4v2.48h1.4Z" transform="translate(-90.21 -224.31)" /><path class="cls-1" d="M227.31,255.35a10.56,10.56,0,0,1-4.85.91c-6,0-7.37-2.75-7.37-6.94,0-4.67,2-6.95,7.62-6.95,3.36,0,5.37.85,6.47,2.61a7.3,7.3,0,0,1,.82,4.07v1h-8.14v3.06h1.4v-1.71H230A4.69,4.69,0,0,1,227.31,255.35Zm-4.05-10.1h-1.4v2.48h1.4Z" transform="translate(-90.21 -224.31)" /><path class="cls-1" d="M239,255.85v-1.24a4.67,4.67,0,0,1-3.6,1.51,3.87,3.87,0,0,1-2.95-1.07c-1.23-1.18-1.43-3.33-1.45-5.45,0-2.5.19-4.21.87-5.28a3.92,3.92,0,0,1,3.61-1.82,4.53,4.53,0,0,1,3.52,1.32v-4.95h6.6v17Zm0-9.44h-1.38v5.67H239Z" transform="translate(-90.21 -224.31)" /><path class="cls-1" d="M262.72,256.34c-2.85,0-4.59-.69-5.83-1.81-1.59-1.46-1.81-3.91-1.81-7.19,0-7,1.68-9,7.89-9s7.9,2,7.9,9a16.6,16.6,0,0,1-.66,5.4h1.51v3.6Zm.91-14.09h-1.34v10.49h1.34Z" transform="translate(-90.21 -224.31)" /><path class="cls-1" d="M280.43,255.85v-1.3a5,5,0,0,1-3.9,1.57,4,4,0,0,1-3.47-1.9,6,6,0,0,1-.66-3.13v-8.31h6.66v9.35h1.37v-9.35H287v13.07Z" transform="translate(-90.21 -224.31)" /><path class="cls-1" d="M300.31,255.35a10.54,10.54,0,0,1-4.84.91c-6,0-7.37-2.75-7.37-6.94,0-4.67,2-6.95,7.62-6.95,3.35,0,5.36.85,6.46,2.61a7.27,7.27,0,0,1,.83,4.07v1h-8.14v3.06h1.4v-1.71H303A4.7,4.7,0,0,1,300.31,255.35Zm-4-10.1h-1.4v2.48h1.4Z" transform="translate(-90.21 -224.31)" /><path class="cls-1" d="M316.24,255.35a10.61,10.61,0,0,1-4.85.91c-6,0-7.37-2.75-7.37-6.94,0-4.67,2-6.95,7.62-6.95,3.36,0,5.36.85,6.47,2.61a7.39,7.39,0,0,1,.82,4.07v1h-8.14v3.06h1.4v-1.71h6.74A4.69,4.69,0,0,1,316.24,255.35Zm-4.05-10.1h-1.4v2.48h1.4Z" transform="translate(-90.21 -224.31)" /><path class="cls-1" d="M328,255.85v-9.41h-1.4v9.41H320V242.78h6.39V244a4.72,4.72,0,0,1,3.93-1.67c2.78,0,4.32,1.78,4.32,4.45v9Z" transform="translate(-90.21 -224.31)" /><path class="cls-1" d="M336.51,253.73a2.69,2.69,0,1,1,2.69,2.66A2.64,2.64,0,0,1,336.51,253.73ZM339.2,256a2.21,2.21,0,1,0-2.16-2.22A2.14,2.14,0,0,0,339.2,256Zm-.56-.68h-.46v-3.05h1.16c.72,0,1.08.26,1.08.86a.79.79,0,0,1-.79.84l.87,1.35H340l-.81-1.32h-.53Zm.55-1.72c.4,0,.75,0,.75-.49s-.35-.45-.67-.45h-.63v.94Z" transform="translate(-90.21 -224.31)" /><path class="cls-1" d="M112.72,241.12A1.89,1.89,0,1,0,114.6,243,1.89,1.89,0,0,0,112.72,241.12Z" transform="translate(-90.21 -224.31)" /><path class="cls-1" d="M119.91,241.12a1.89,1.89,0,1,0,1.85,1.89A1.89,1.89,0,0,0,119.91,241.12Z" transform="translate(-90.21 -224.31)" /><path class="cls-1" d="M126.91,241.12A1.89,1.89,0,1,0,128.8,243,1.89,1.89,0,0,0,126.91,241.12Z" transform="translate(-90.21 -224.31)" /><path class="cls-1" d="M140,268.21c9.62-4.16,16.12-11.7,16.12-20.28,0-13-14.81-23.62-32.93-23.62s-32.93,10.62-32.93,23.62,14.81,23.59,32.93,23.59c.5,0,1,0,1.58,0,.85,0,1,0,1.35.8s.84,1.73,1.07,2.23c.7,1.35,2,4.46,6.74,4.51,3.53-.08,7,0,10.54-.08.69,0,.8-.54.54-.77a8.88,8.88,0,0,1-2.74-3c-.69-1.43-1.77-3.69-2.61-5.46C139.15,268.86,139.3,268.47,140,268.21Zm-2.84-6.35c-.7.58-1-.27-1.16-.54-2.15-4.62-4.46-9.16-6.54-13.77-.11-.27-.07-.35-.42-.35h-1c.27.54.54,1.11.81,1.66,1.54,3.46-1.62,5.15-4.27,1.92a12.65,12.65,0,0,1-1-1.42c-.35-.58-.69-1.2-1-1.81-.12-.23-.19-.35-.5-.35H121c.23.5.5,1,.77,1.54,2.23,4.81-3,5.08-4.78,2-.61-1-1.23-2.12-1.8-3.15-.2-.35-.43-.35-.73-.39s-.43,0-.66,0c2.93,6,5.89,12,8.85,18,.35.69.19,1-.46,1-12-.19-21.66-8.38-21.66-18.34,0-10.12,10-18.4,22.24-18.4S145,237.74,145,247.86C145,253.55,142.11,258.47,137.11,261.86Z" transform="translate(-90.21 -224.31)" /></svg>