<?xml version="1.0" encoding="UTF-8"?><svg width="133px" height="11px" viewBox="0 0 133 11" version="1.1" xmlns="http://www.w3.org/2000/svg" xmlns:xlink="http://www.w3.org/1999/xlink"><title>Logos / ProForm new / Thick &amp; spaced</title><desc>Created with Sketch.</desc><defs><polygon id="path-1" points="0.8521 0.8999 2.77 0.8999 2.77 2.8209 0.8521 2.8209"></polygon><polygon id="path-3" points="0.0820544668 0.8678 16.9639069 0.8678 16.9639069 10 0.0820544668 10"></polygon><polygon id="path-5" points="0.902135677 0.8673 19.305 0.8673 19.305 10 0.902135677 10"></polygon><polygon id="path-7" points="0.916635677 0.678580019 19.9404248 0.678580019 19.9404248 10 0.916635677 10"></polygon><polygon id="path-9" points="0.344652667 0.8675 17.2265188 0.8675 17.2265188 10 0.344652667 10"></polygon><polygon id="path-11" points="5.26666406e-05 0.8672 16.8816974 0.8672 16.8816974 10 5.26666406e-05 10"></polygon></defs><g id="Logos-/-ProForm-new-/-Thick-&amp;-spaced" stroke="none" stroke-width="1" fill="none" fill-rule="evenodd"><g id="logo-new"><g id="ProForm-logo-thick-&amp;-spaced"><g id="Group-3" transform="translate(130.000000, 0.321880)"><mask id="mask-2" fill="white"><use xlink:href="#path-1"></use></mask><g id="Clip-2"></g><path d="M2.2641,1.6399 C2.2641,1.4469 2.1391,1.3289 1.9321,1.3289 L1.4541,1.3289 L1.4541,2.3939 L1.5531,2.3939 L1.5531,1.9509 L1.9001,1.9509 L2.1441,2.3939 L2.2581,2.3939 L2.0031,1.9449 C2.1601,1.9179 2.2641,1.8019 2.2641,1.6399 M1.9371,1.8549 L1.5531,1.8549 L1.5531,1.4249 L1.9321,1.4249 C2.0201,1.4249 2.1651,1.4519 2.1651,1.6399 C2.1651,1.7879 2.0511,1.8549 1.9371,1.8549 M1.8101,0.8999 C1.2821,0.8999 0.8521,1.3289 0.8521,1.8609 C0.8521,2.3879 1.2821,2.8209 1.8101,2.8209 C2.3381,2.8209 2.7701,2.3879 2.7701,1.8609 C2.7701,1.3289 2.3381,0.8999 1.8101,0.8999 M1.8101,2.7249 C1.3351,2.7249 0.9511,2.3379 0.9511,1.8609 C0.9511,1.3799 1.3351,0.9929 1.8101,0.9929 C2.2851,0.9929 2.6721,1.3799 2.6721,1.8609 C2.6721,2.3379 2.2851,2.7249 1.8101,2.7249" id="Fill-1" fill="#212C33" mask="url(#mask-2)"></path></g><path d="M92.6986,4.27728 L91.9326,6.47628 C91.3916,8.03128 89.9226,9.07528 88.2756,9.07528 L79.3736,9.07528 C78.9196,9.07528 78.5086,8.86228 78.2456,8.49228 C77.9816,8.12228 77.9166,7.66328 78.0656,7.23428 L78.8326,5.03528 C79.3736,3.48028 80.8436,2.43628 82.4896,2.43628 L91.3906,2.43628 C91.8446,2.43628 92.2576,2.64828 92.5196,3.01828 C92.7836,3.38928 92.8476,3.84728 92.6986,4.27728 M93.5366,2.29728 C93.0366,1.59228 92.2546,1.18928 91.3906,1.18928 L82.4896,1.18928 C80.3136,1.18928 78.3706,2.57028 77.6546,4.62528 L76.8876,6.82428 C76.6046,7.63928 76.7286,8.51028 77.2276,9.21428 C77.7286,9.91828 78.5106,10.32128 79.3736,10.32128 L88.2756,10.32128 C90.4526,10.32128 92.3946,8.94028 93.1106,6.88528 L93.8766,4.68728 C94.1606,3.87228 94.0376,3.00128 93.5366,2.29728" id="Fill-4" fill="#4C4C4C"></path><path d="M49.7797,4.27728 L49.0127,6.47628 C48.4717,8.03128 47.0027,9.07528 45.3557,9.07528 L36.4547,9.07528 C36.0007,9.07528 35.5887,8.86228 35.3257,8.49228 C35.0617,8.12228 34.9967,7.66328 35.1467,7.23428 L35.9137,5.03528 C36.4547,3.48028 37.9247,2.43628 39.5697,2.43628 L48.4717,2.43628 C48.9257,2.43628 49.3377,2.64828 49.5997,3.01828 C49.8647,3.38928 49.9297,3.84728 49.7797,4.27728 M48.4717,1.18928 L39.5697,1.18928 C37.3947,1.18928 35.4517,2.57028 34.7347,4.62528 L33.9687,6.82428 C33.6857,7.63928 33.8097,8.51028 34.3087,9.21428 C34.8087,9.91828 35.5917,10.32128 36.4547,10.32128 L45.3557,10.32128 C47.5317,10.32128 49.4747,8.94028 50.1917,6.88528 L50.9577,4.68728 C51.2407,3.87328 51.1167,3.00128 50.6177,2.29728 C50.1177,1.59228 49.3357,1.18928 48.4717,1.18928" id="Fill-6" fill="#4C4C4C"></path><g id="Group-10" transform="translate(94.000000, 0.321880)"><mask id="mask-4" fill="white"><use xlink:href="#path-3"></use></mask><g id="Clip-9"></g><path d="M16.8188,4.1888 C17.0918,3.4158 16.9758,2.5878 16.5028,1.9198 C16.0288,1.2508 15.2878,0.8678 14.4678,0.8678 L3.2368,0.8678 C2.8928,0.8678 2.6138,1.1478 2.6138,1.4918 C2.6138,1.8348 2.8928,2.1148 3.2368,2.1148 L14.4678,2.1148 C14.8778,2.1148 15.2488,2.3058 15.4848,2.6408 C15.7208,2.9748 15.7798,3.3878 15.6438,3.7748 C15.3838,4.5078 14.6888,5.0008 13.9118,5.0008 L2.8768,5.0008 C2.0898,5.0008 1.3898,5.4998 1.1318,6.2418 L0.1168,9.1718 C0.0618,9.3298 0.0728,9.4998 0.1448,9.6488 C0.2178,9.7978 0.3438,9.9108 0.4978,9.9628 C0.5638,9.9878 0.6338,10.0008 0.7058,10.0008 C0.9708,10.0008 1.2078,9.8318 1.2958,9.5808 L2.3108,6.6508 C2.3938,6.4098 2.6218,6.2478 2.8768,6.2478 L10.6628,6.2478 L13.5898,9.7738 C13.8028,10.0308 14.2208,10.0638 14.4688,9.8558 C14.7328,9.6348 14.7698,9.2418 14.5498,8.9778 L12.2828,6.2478 L13.9118,6.2478 C15.2158,6.2478 16.3848,5.4198 16.8188,4.1888" id="Fill-8" fill="#4C4C4C" mask="url(#mask-4)"></path></g><g id="Group-13" transform="translate(58.000000, 0.321880)"><mask id="mask-6" fill="white"><use xlink:href="#path-5"></use></mask><g id="Clip-12"></g><path d="M16.56,5.0013 L3.67,5.0013 L4.094,3.7543 C4.428,2.7733 5.349,2.1143 6.385,2.1143 L18.681,2.1143 C19.025,2.1143 19.305,1.8353 19.305,1.4913 C19.305,1.1473 19.025,0.8673 18.681,0.8673 L6.385,0.8673 C4.814,0.8673 3.419,1.8663 2.914,3.3543 L0.936,9.1763 C0.882,9.3333 0.893,9.5023 0.966,9.6513 C1.04,9.8013 1.167,9.9123 1.325,9.9663 C1.391,9.9883 1.458,10.0003 1.526,10.0003 C1.792,10.0003 2.03,9.8303 2.116,9.5763 L3.248,6.2473 L16.56,6.2473 C16.904,6.2473 17.184,5.9683 17.184,5.6243 C17.184,5.2803 16.904,5.0013 16.56,5.0013" id="Fill-11" fill="#4C4C4C" mask="url(#mask-6)"></path></g><g id="Group-16" transform="translate(110.000000, 0.321880)"><mask id="mask-8" fill="white"><use xlink:href="#path-7"></use></mask><g id="Clip-15"></g><path d="M19.4125,0.8626 L19.4115,0.8616 C18.9635,0.5766 18.3985,0.6276 18.0115,0.9926 L9.9135,8.6166 C9.8185,8.7046 9.6905,8.7406 9.5655,8.7176 C9.4375,8.6926 9.3335,8.6116 9.2785,8.4936 L6.0255,1.4646 C5.7945,0.9636 5.2645,0.6566 4.7305,0.6826 C4.1765,0.7126 3.7025,1.0706 3.5235,1.5966 L0.9505,9.1756 C0.8965,9.3336 0.9075,9.5026 0.9805,9.6516 C1.0555,9.8006 1.1825,9.9126 1.3395,9.9666 C1.4055,9.9886 1.4735,10.0006 1.5405,10.0006 C1.8075,10.0006 2.0445,9.8306 2.1305,9.5766 L4.7035,1.9976 C4.7095,1.9816 4.7255,1.9306 4.7915,1.9276 C4.8815,1.9236 4.8855,1.9666 4.8945,1.9866 L8.1475,9.0176 C8.3725,9.5026 8.8035,9.8396 9.3295,9.9416 C9.8545,10.0426 10.3795,9.8916 10.7685,9.5236 L18.5625,2.1846 L16.2035,9.1766 C16.1495,9.3346 16.1605,9.5036 16.2345,9.6526 C16.3085,9.8016 16.4365,9.9136 16.5945,9.9666 C16.7515,10.0196 16.9205,10.0086 17.0695,9.9346 C17.2195,9.8606 17.3305,9.7326 17.3845,9.5756 L19.8785,2.1896 C20.0485,1.6846 19.8605,1.1506 19.4125,0.8626" id="Fill-14" fill="#4C4C4C" mask="url(#mask-8)"></path></g><path d="M57.852,5.32318 L52.797,5.32318 C52.454,5.32318 52.174,5.60218 52.174,5.94618 C52.174,6.29018 52.454,6.56918 52.797,6.56918 L57.852,6.56918 C58.196,6.56918 58.476,6.29018 58.476,5.94618 C58.476,5.60218 58.196,5.32318 57.852,5.32318" id="Fill-17" fill="#4C4C4C"></path><g id="Group-21" transform="translate(16.000000, 0.321880)"><mask id="mask-10" fill="white"><use xlink:href="#path-9"></use></mask><g id="Clip-20"></g><path d="M14.7309,0.8675 L3.5179,0.8675 C3.1739,0.8675 2.8949,1.1475 2.8949,1.4915 C2.8949,1.8355 3.1739,2.1145 3.5179,2.1145 L14.7309,2.1145 C15.1399,2.1145 15.5109,2.3055 15.7479,2.6405 C15.9839,2.9745 16.0429,3.3885 15.9069,3.7745 C15.6469,4.5085 14.9509,5.0015 14.1729,5.0015 L3.1389,5.0015 C2.3529,5.0015 1.6529,5.4995 1.3949,6.2415 L0.3789,9.1725 C0.3249,9.3295 0.3349,9.4995 0.4079,9.6485 C0.4809,9.7985 0.6069,9.9105 0.7599,9.9635 C0.8269,9.9875 0.8969,10.0005 0.9679,10.0005 C1.2329,10.0005 1.4689,9.8315 1.5569,9.5805 L2.5739,6.6505 C2.6569,6.4095 2.8839,6.2475 3.1389,6.2475 L10.9249,6.2475 L13.8539,9.7745 C14.0669,10.0295 14.4839,10.0635 14.7299,9.8555 C14.8589,9.7495 14.9379,9.5995 14.9539,9.4335 C14.9679,9.2675 14.9179,9.1055 14.8119,8.9785 L12.5449,6.2475 L14.1729,6.2475 C15.4789,6.2475 16.6479,5.4205 17.0819,4.1885 C17.3539,3.4165 17.2389,2.5895 16.7649,1.9205 C16.2919,1.2515 15.5499,0.8675 14.7309,0.8675" id="Fill-19" fill="#4C4C4C" mask="url(#mask-10)"></path></g><g id="Group-24" transform="translate(0.000000, 0.321880)"><mask id="mask-12" fill="white"><use xlink:href="#path-11"></use></mask><g id="Clip-23"></g><path d="M16.4213,1.9202 C15.9473,1.2512 15.2053,0.8672 14.3863,0.8672 L3.1733,0.8672 C2.8293,0.8672 2.5503,1.1482 2.5503,1.4912 C2.5503,1.8352 2.8293,2.1142 3.1733,2.1142 L14.3863,2.1142 C14.7963,2.1142 15.1673,2.3062 15.4033,2.6412 C15.6403,2.9752 15.6973,3.3882 15.5623,3.7742 C15.3023,4.5082 14.6073,5.0012 13.8293,5.0012 L2.7943,5.0012 C2.0083,5.0012 1.3083,5.4992 1.0503,6.2412 L0.0343,9.1722 C-0.0197,9.3292 -0.0097,9.4992 0.0633,9.6492 C0.1363,9.7982 0.2623,9.9102 0.4173,9.9642 C0.4833,9.9882 0.5543,10.0002 0.6233,10.0002 C0.8893,10.0002 1.1253,9.8312 1.2133,9.5802 L2.2293,6.6502 C2.3123,6.4092 2.5393,6.2472 2.7943,6.2472 L13.8293,6.2472 C15.1353,6.2472 16.3043,5.4202 16.7363,4.1892 C17.0093,3.4162 16.8943,2.5902 16.4213,1.9202" id="Fill-22" fill="#4C4C4C" mask="url(#mask-12)"></path></g></g></g></g></svg>