<svg width="264" height="86" viewBox="0 0 264 86" fill="none" xmlns="http://www.w3.org/2000/svg"><path d="M242.692 18.9457C231.974 14.9405 181.769 0 132.003 0C82.2372 0 32.0319 14.9289 21.3141 18.9457C7.80843 23.9667 0 29.5191 0 42.9942C0 56.4692 7.80843 62.0216 21.3141 67.0543C32.0319 71.0595 82.2372 86 132.003 86C181.769 86 231.968 71.0595 242.692 67.0543C256.192 62.0216 264 56.4634 264 42.9942C264 29.5249 256.192 23.9667 242.692 18.9457Z" fill="url(#paint0_linear)" /><path d="M132 81.8437C82.9489 81.8437 33.5115 67.2449 22.9578 63.3368C8.68625 58.0491 4.10392 53.1078 4.10392 42.9769C4.10392 32.846 8.68625 27.8989 22.9578 22.6112C33.5115 18.7032 82.9431 4.11008 132 4.11008C181.057 4.11008 230.488 18.7032 241.036 22.6112C255.314 27.8989 259.896 32.846 259.896 42.9769C259.896 53.1078 255.285 58.0491 241.036 63.3368C230.483 67.2449 181.051 81.8437 132 81.8437ZM242.466 18.7551C231.768 14.7894 181.662 0 132 0C82.3379 0 32.232 14.7894 21.5341 18.7551C7.8966 23.8062 0 29.3882 0 43C0 56.6118 7.8966 62.1708 21.5341 67.2449C32.232 71.2049 82.3321 86 132 86C181.668 86 231.768 71.1529 242.466 67.1987C256.103 62.1477 264 56.5656 264 42.9538C264 29.3421 256.086 23.8177 242.466 18.7551Z" fill="url(#paint1_linear)" /><path d="M153.709 32C144.52 32 138.128 38.3684 136.529 44.8063C134.93 51.2442 136.529 59.94 147.318 60.9358C149.918 61.1761 152.536 60.7396 154.928 59.6667C157.32 58.5939 159.408 56.9195 161 54.799L160.497 54.4863C160.497 54.4863 155.19 58.5389 150.511 57.6068C144.616 56.4489 143.621 49.7737 145.814 43.5268H163.294C163.749 42.712 163.99 41.7906 163.995 40.8521C164.091 38.7621 162.899 32 153.709 32ZM157.501 39.81C157.268 40.3597 156.882 40.8271 156.392 41.1544C155.902 41.4816 155.329 41.6543 154.744 41.651H146.453C147.849 38.4205 150.912 33.2679 154.93 33.6847C158.948 34.1016 157.903 38.8721 157.501 39.81Z" fill="url(#paint2_linear)" /><path d="M83 60H97.482L97.7269 58.6929C97.7269 58.6929 94.8118 59.0025 95.4881 56.2222C96.1994 53.2125 98.8929 40.8528 99.1086 40.1018C99.4351 38.9553 100.706 35.8998 105.475 35.7163C108.571 35.596 109.247 38.8292 108.915 39.8955C108.717 40.5433 105.219 54.6342 104.892 55.7005C104.681 56.5927 104.155 57.3825 103.408 57.9302C102.661 58.4778 101.741 58.748 100.811 58.6929L100.502 60H114.792L115.025 58.6929C115.025 58.6929 111.556 59.1401 112.629 55.4253C113.538 52.301 116.331 40.9331 116.576 39.9471C116.981 38.8071 117.731 37.8161 118.725 37.1071C119.719 36.398 120.91 36.0048 122.138 35.98C125.816 35.917 126.586 38.3132 125.84 40.3655C125.309 41.8331 122.767 54.2329 122.254 55.689C121.671 57.3286 121.018 58.5554 117.753 58.6872L117.421 59.9943H132.789L133.122 58.6872C133.122 58.6872 129.105 59.1 130.346 55.7349C131.39 52.9029 133.069 42.7847 133.728 40.2566C134.387 37.7285 134.375 31.9041 127.426 32.099C125.395 32.154 123.402 32.6442 121.584 33.5353C119.766 34.4265 118.169 35.6971 116.902 37.2584C116.902 37.2584 116.622 32.099 110.594 32.0016C104.566 31.9041 100.053 36.4215 100.053 36.4215L101.038 32.1219L100.7 32.0531C97.2022 33.7328 91.9551 35.3036 88.6902 35.0284V35.6017C89.6114 35.8883 91.8443 37.1667 91.3487 39.0413C90.8532 40.9159 87.9206 54.3877 87.4484 55.8495C86.7896 57.9018 85.3729 58.7789 83.3673 58.7159L83 60Z" fill="url(#paint3_linear)" /><path d="M69.008 19.0032C58.3009 18.8177 44.607 26.6494 40.7934 39.9012C37.2244 52.3125 46.2081 62.718 57.4916 62.9904C68.7751 63.2629 80.9901 57.7268 86.5096 43.8257C92.3843 29.0377 79.7151 19.1829 69.008 19.0032ZM74.9932 42.191C69.9279 54.4226 64.2629 61.0079 58.1553 60.463C52.0478 59.9181 48.7932 51.0255 51.978 40.6316C55.3199 29.6812 62.2193 21.0321 68.909 21.3162C75.2261 21.5945 79.8315 30.4986 74.9932 42.1794V42.191Z" fill="url(#paint4_linear)" /><path d="M198 35.2771L191.468 34.7687C188.601 33.1622 185.421 32.2211 182.155 32.013C176.979 31.7704 169.419 34.9305 167.824 40.361C166.23 45.7916 168.46 49.7663 172.365 50.9795C170.132 52.37 167.68 53.357 165.117 53.8969C165.197 57.057 167.904 59.6741 168.523 60.298C167.649 61.1877 159.686 62.3258 160.01 66.8609C160.333 71.396 164.709 74.5676 174.975 73.9148C185.242 73.262 192.001 65.5668 191.383 62.0023C190.764 58.4378 187.478 55.9189 183.261 56.0865C179.045 56.254 173.046 56.41 172.989 53.8161C172.927 51.8692 174.419 51.5514 174.419 51.5514C174.419 51.5514 180.407 52.4642 183.738 51.3839C187.478 50.1707 191.774 47.415 192.818 43.2958C193.863 39.1767 192.898 37.4609 192.898 37.4609L197.279 37.9462L198 35.2771ZM176.105 63.8857C178.812 63.8857 183.59 63.8857 182.79 67.0458C181.99 70.2059 179.135 72.4705 174.431 72.3896C169.419 72.3145 166.548 70.6912 166.315 66.8782C166.082 63.0653 169.89 61.5343 169.89 61.5343C170.929 62.3431 173.398 63.8857 176.105 63.8857ZM185.367 42.2444C184.379 46.1266 182.183 51.2394 178.999 50.7542C175.815 50.2689 174.697 46.5368 175.594 42.0884C176.491 37.64 178.999 33.8271 181.962 34.0004C184.379 34.1101 186.536 37.5418 185.367 42.2444Z" fill="url(#paint5_linear)" /><path d="M223.415 54.8514C222.118 56.4586 218.46 57.664 219.195 54.8514C219.93 52.0387 222.848 40.9144 223.577 38.2051C224.307 35.4957 222.848 32 215.293 32C207.836 32 199.586 34.6691 198.208 41.1842L205.792 40.702C205.792 40.702 208.23 34.0033 212.937 33.9172C217.643 33.8311 215.05 39.6573 214.888 40.4609C214.725 41.2645 214.239 42.7168 214.239 42.7168C212.505 43.7977 210.615 44.6124 208.635 45.1333C205.462 45.937 197.913 47.7107 194.908 52.297C192.593 55.8559 194.908 61.1712 199.54 60.7579C204.895 60.27 210.58 56.0855 210.58 56.0855C209.938 58.8235 212.525 60.9186 214.158 60.9933C215.791 61.0679 219.843 60.5972 224 55.764L223.415 54.8514ZM210.91 53.7952C210.91 53.7952 208.815 55.2933 207.657 55.896C205.792 56.8604 202.053 56.2175 202.707 52.8366C203.361 49.4557 208.311 46.4708 213.591 44.9439L210.91 53.7952Z" fill="url(#paint6_linear)" /><path d="M227 36.1012C227.248 36.0399 227.499 36.0088 227.751 36.0084C228.066 35.9662 228.381 36.0837 228.641 36.3399C228.717 36.4337 228.778 36.5499 228.819 36.6804C228.86 36.811 228.88 36.9528 228.879 37.0958C228.874 37.33 228.816 37.5556 228.712 37.7377C228.608 37.9199 228.465 38.0485 228.305 38.1037C228.427 38.1674 228.534 38.276 228.616 38.4181C228.698 38.5603 228.751 38.731 228.772 38.9126C228.829 39.2823 228.906 39.6457 229 40H228.594C228.504 39.6954 228.439 39.3774 228.399 39.0518C228.305 38.5015 228.138 38.2959 227.783 38.276H227.41V40H227V36.1012ZM227.392 37.9047H227.793C228.217 37.9047 228.478 37.6064 228.478 37.1489C228.478 36.6914 228.198 36.4129 227.779 36.4129C227.649 36.4106 227.519 36.4262 227.392 36.4593V37.9047Z" fill="url(#paint7_linear)" /><path d="M225 38C225 38.5936 225.176 39.1739 225.506 39.6674C225.836 40.1609 226.305 40.5454 226.853 40.7722C227.402 40.9991 228.005 41.0582 228.588 40.9419C229.17 40.8256 229.704 40.5393 230.124 40.1191C230.543 39.6989 230.828 39.1638 230.943 38.5814C231.058 37.9991 230.998 37.3957 230.77 36.8476C230.542 36.2995 230.156 35.8314 229.662 35.5026C229.168 35.1737 228.587 34.9988 227.994 35C227.199 35.0017 226.438 35.3185 225.876 35.8809C225.315 36.4433 225 37.2054 225 38V38ZM225.501 38C225.501 37.5045 225.648 37.0202 225.923 36.6082C226.199 36.1962 226.59 35.8751 227.048 35.6855C227.505 35.4959 228.009 35.4463 228.495 35.5429C228.981 35.6396 229.427 35.8782 229.778 36.2286C230.128 36.5789 230.367 37.0253 230.463 37.5113C230.56 37.9972 230.51 38.5009 230.321 38.9587C230.131 39.4165 229.81 39.8077 229.398 40.083C228.986 40.3583 228.502 40.5052 228.006 40.5052C227.677 40.5061 227.35 40.4419 227.046 40.3163C226.741 40.1908 226.464 40.0064 226.231 39.7737C225.997 39.541 225.812 39.2645 225.686 38.9602C225.56 38.6558 225.495 38.3295 225.495 38H225.501Z" fill="url(#paint8_linear)" /><defs><linearGradient id="paint0_linear" x1="77.0663" y1="7.841" x2="209.083" y2="90.7498" gradientUnits="userSpaceOnUse"><stop stop-color="#1A6041" /><stop offset="0.51" stop-color="#008250" /><stop offset="1" stop-color="#1A6041" /></linearGradient><linearGradient id="paint1_linear" x1="132" y1="-1.19493" x2="132" y2="86.1155" gradientUnits="userSpaceOnUse"><stop stop-color="#D3D3D3" /><stop offset="0.49" stop-color="#585F77" /><stop offset="1" stop-color="#3F4147" /></linearGradient><linearGradient id="paint2_linear" x1="15669.6" y1="7027.09" x2="15669.6" y2="9600.26" gradientUnits="userSpaceOnUse"><stop offset="0.01" stop-color="white" /><stop offset="0.08" stop-color="#D3D3D3" /><stop offset="0.19" stop-color="#E5E5E5" /><stop offset="0.3" stop-color="white" /><stop offset="0.4" stop-color="#F3F3F3" /><stop offset="0.47" stop-color="#8A8A8A" /><stop offset="0.66" stop-color="#F2F2F2" /><stop offset="0.73" stop-color="#DADADA" /><stop offset="0.81" stop-color="#C4C4C4" /><stop offset="0.88" stop-color="#B7B7B7" /><stop offset="0.95" stop-color="#B3B3B3" /></linearGradient><linearGradient id="paint3_linear" x1="28376.3" y1="6785.88" x2="28376.3" y2="9270.32" gradientUnits="userSpaceOnUse"><stop offset="0.01" stop-color="white" /><stop offset="0.08" stop-color="#D3D3D3" /><stop offset="0.19" stop-color="#E5E5E5" /><stop offset="0.3" stop-color="white" /><stop offset="0.4" stop-color="#F3F3F3" /><stop offset="0.47" stop-color="#8A8A8A" /><stop offset="0.66" stop-color="#F2F2F2" /><stop offset="0.73" stop-color="#DADADA" /><stop offset="0.81" stop-color="#C4C4C4" /><stop offset="0.88" stop-color="#B7B7B7" /><stop offset="0.95" stop-color="#B3B3B3" /></linearGradient><linearGradient id="paint4_linear" x1="26669" y1="10632.2" x2="26669" y2="14536.4" gradientUnits="userSpaceOnUse"><stop offset="0.01" stop-color="white" /><stop offset="0.08" stop-color="#D3D3D3" /><stop offset="0.19" stop-color="#E5E5E5" /><stop offset="0.3" stop-color="white" /><stop offset="0.4" stop-color="#F3F3F3" /><stop offset="0.47" stop-color="#8A8A8A" /><stop offset="0.66" stop-color="#F2F2F2" /><stop offset="0.73" stop-color="#DADADA" /><stop offset="0.81" stop-color="#C4C4C4" /><stop offset="0.88" stop-color="#B7B7B7" /><stop offset="0.95" stop-color="#B3B3B3" /></linearGradient><linearGradient id="paint5_linear" x1="21241.3" y1="10162.8" x2="21241.3" y2="13889.5" gradientUnits="userSpaceOnUse"><stop offset="0.01" stop-color="white" /><stop offset="0.08" stop-color="#D3D3D3" /><stop offset="0.19" stop-color="#E5E5E5" /><stop offset="0.3" stop-color="white" /><stop offset="0.4" stop-color="#F3F3F3" /><stop offset="0.47" stop-color="#8A8A8A" /><stop offset="0.66" stop-color="#F2F2F2" /><stop offset="0.73" stop-color="#DADADA" /><stop offset="0.81" stop-color="#C4C4C4" /><stop offset="0.88" stop-color="#B7B7B7" /><stop offset="0.95" stop-color="#B3B3B3" /></linearGradient><linearGradient id="paint6_linear" x1="16837.1" y1="7027.09" x2="16837.1" y2="9600.26" gradientUnits="userSpaceOnUse"><stop offset="0.01" stop-color="white" /><stop offset="0.08" stop-color="#D3D3D3" /><stop offset="0.19" stop-color="#E5E5E5" /><stop offset="0.3" stop-color="white" /><stop offset="0.4" stop-color="#F3F3F3" /><stop offset="0.47" stop-color="#8A8A8A" /><stop offset="0.66" stop-color="#F2F2F2" /><stop offset="0.73" stop-color="#DADADA" /><stop offset="0.81" stop-color="#C4C4C4" /><stop offset="0.88" stop-color="#B7B7B7" /><stop offset="0.95" stop-color="#B3B3B3" /></linearGradient><linearGradient id="paint7_linear" x1="1336.54" y1="1000.84" x2="1336.54" y2="1355.76" gradientUnits="userSpaceOnUse"><stop offset="0.01" stop-color="white" /><stop offset="0.08" stop-color="#D3D3D3" /><stop offset="0.19" stop-color="#E5E5E5" /><stop offset="0.3" stop-color="white" /><stop offset="0.4" stop-color="#F3F3F3" /><stop offset="0.47" stop-color="#8A8A8A" /><stop offset="0.66" stop-color="#F2F2F2" /><stop offset="0.73" stop-color="#DADADA" /><stop offset="0.81" stop-color="#C4C4C4" /><stop offset="0.88" stop-color="#B7B7B7" /><stop offset="0.95" stop-color="#B3B3B3" /></linearGradient><linearGradient id="paint8_linear" x1="3553.62" y1="1482.26" x2="3553.62" y2="2014.64" gradientUnits="userSpaceOnUse"><stop offset="0.01" stop-color="white" /><stop offset="0.08" stop-color="#D3D3D3" /><stop offset="0.19" stop-color="#E5E5E5" /><stop offset="0.3" stop-color="white" /><stop offset="0.4" stop-color="#F3F3F3" /><stop offset="0.47" stop-color="#8A8A8A" /><stop offset="0.66" stop-color="#F2F2F2" /><stop offset="0.73" stop-color="#DADADA" /><stop offset="0.81" stop-color="#C4C4C4" /><stop offset="0.88" stop-color="#B7B7B7" /><stop offset="0.95" stop-color="#B3B3B3" /></linearGradient></defs></svg>