<svg height="182" viewBox="0 0 753 182" width="753" xmlns="http://www.w3.org/2000/svg"><g fill="none" fill-rule="evenodd" transform="translate(-10)"><path d="m732.33 0c16.938573 0 30.67 13.7314267 30.67 30.67s-13.731427 30.67-30.67 30.67-30.67-13.7314267-30.67-30.67 13.731427-30.67 30.67-30.67zm15 30.67c0-8.2842712-6.715729-15-15-15s-15 6.7157288-15 15 6.715729 15 15 15 15-6.7157288 15-15z" fill="#4abce3" fill-rule="nonzero" /><text fill="#231f20" font-family="Helvetica" font-size="36.85"><tspan x="670.7" y="189.33">™</tspan></text><path d="m91.08 64.5h33.99c1.210006 0 2.254996.4399956 3.135 1.32s1.32 1.9249939 1.32 3.135v106.59c0 1.210006-.439996 2.254996-1.32 3.135s-1.924994 1.32-3.135 1.32h-33.99c-1.2100061 0-2.2549956-.439996-3.135-1.32s-1.32-1.924994-1.32-3.135v-35.145h-33v35.145c0 1.210006-.4399956 2.254996-1.32 3.135s-1.9249939 1.32-3.135 1.32h-33.99c-1.210006 0-2.2549956-.412496-3.135-1.2375s-1.32-1.897493-1.32-3.2175v-106.59c0-1.2100061.4399956-2.2549956 1.32-3.135s1.924994-1.32 3.135-1.32h33.99c1.2100061 0 2.2549956.4399956 3.135 1.32s1.32 1.9249939 1.32 3.135v33.825h33v-33.825c0-1.2100061.4399956-2.2549956 1.32-3.135s1.9249939-1.32 3.135-1.32zm163.185 105.105c-10.780054 8.03004-25.409908 12.045-43.89 12.045s-33.137446-4.01496-43.9725-12.045-16.2525-20.569915-16.2525-37.62v-63.03c0-1.2100061.439996-2.2549956 1.32-3.135s1.924994-1.32 3.135-1.32h34.485c1.210006 0 2.254996.4399956 3.135 1.32s1.32 1.9249939 1.32 3.135v65.67c0 4.510023 1.512485 7.974988 4.5375 10.395s7.122474 3.63 12.2925 3.63 9.267485-1.209988 12.2925-3.63 4.5375-5.884977 4.5375-10.395v-65.67c0-1.2100061.439996-2.2549956 1.32-3.135s1.924994-1.32 3.135-1.32h34.485c1.210006 0 2.254996.4399956 3.135 1.32s1.32 1.9249939 1.32 3.135v63.03c0 17.050085-5.444946 29.58996-16.335 37.62zm105.435-63.195c18.04009 2.09001 30.882462 5.967472 38.5275 11.6325s11.4675 14.162443 11.4675 25.4925-5.554944 20.514965-16.665 27.555-25.849908 10.56-44.22 10.56-32.642449-3.382466-42.8175-10.1475-15.2625-15.097451-15.2625-24.9975c0-2.420012 1.264987-3.63 3.795-3.63h33.825c2.310012 0 4.179993.714993 5.61 2.145 3.080015 2.970015 8.414962 4.455 16.005 4.455 10.450052 0 15.675-1.594984 15.675-4.785 0-1.98001-1.649983-3.547494-4.95-4.7025s-9.844951-2.282495-19.635-3.3825c-31.130156-3.740019-46.695-15.674899-46.695-35.805 0-11.3300566 5.00495-20.4874651 15.015-27.4725s23.402416-10.4775 40.1775-10.4775 30.332448 3.6574634 40.6725 10.9725 15.51 15.0424593 15.51 23.1825c0 1.1000055-.357496 1.9799967-1.0725 2.64-.715004.660003-1.677494.99-2.8875.99h-35.475c-1.98001 0-3.684993-.6599934-5.115-1.98-2.640013-2.4200121-6.599974-3.63-11.88-3.63-7.370037 0-11.055 1.5399846-11.055 4.62 0 1.650008 1.429986 2.942495 4.29 3.8775s8.579957 1.897495 17.16 2.8875zm199.32 67.815c.440002.660003.66 1.429996.66 2.31s-.357496 1.677496-1.0725 2.3925-1.567495 1.0725-2.5575 1.0725h-42.57c-2.530013 0-4.509993-.879991-5.94-2.64l-28.71-35.475v33.66c0 1.210006-.439996 2.254996-1.32 3.135s-1.924994 1.32-3.135 1.32h-33.99c-1.210006 0-2.254996-.439996-3.135-1.32s-1.32-1.924994-1.32-3.135v-106.59c0-1.2100061.439996-2.2549956 1.32-3.135s1.924994-1.32 3.135-1.32h33.99c1.210006 0 2.254996.4399956 3.135 1.32s1.32 1.9249939 1.32 3.135v31.02l26.07-32.67c1.650008-1.8700093 3.684988-2.805 6.105-2.805h39.765c.990005 0 1.842496.3574964 2.5575 1.0725s1.0725 1.5399953 1.0725 2.475-.274997 1.7324967-.825 2.3925l-39.105 47.685zm98.01-109.725h34.485c.990005 0 1.842496.3574964 2.5575 1.0725s1.0725 1.4574961 1.0725 2.2275c0 .7700038-.164998 1.4849967-.495 2.145l-41.58 68.805v36.795c0 1.210006-.439996 2.254996-1.32 3.135s-1.924994 1.32-3.135 1.32h-35.145c-1.210006 0-2.254996-.439996-3.135-1.32s-1.32-1.924994-1.32-3.135v-36.795l-41.415-68.805c-.330002-.6600033-.495-1.3749962-.495-2.145 0-.7700039.357496-1.5124964 1.0725-2.2275s1.567495-1.0725 2.5575-1.0725h34.815c3.080015 0 5.334993 1.2649874 6.765 3.795l18.645 32.67 19.14-32.34c1.650008-2.7500137 3.959985-4.125 6.93-4.125z" fill="#000" /></g></svg>