<svg fill="none" height="57" viewBox="0 0 275 57" width="275" xmlns="http://www.w3.org/2000/svg"><g fill="#dc121a"><path d="m170.63 31.74c0 2.32-.18 4.67 0 7 .37 3.8-1.37 6-5 5.82-6.67-.37-13.37 1.54-20-.65-6.4-2.1-10.27-6-10.86-11.59-.87-8.32 2.51-13.3 10.64-15.45 5.809-1.5279 11.895-1.6717 17.77-.42 5.85 1.22 7.34 3.29 7.39 9.34.08 1.96.07 3.95.06 5.95zm-9.36-1.44c0-8.76-1.35-9.85-10.09-8.21-4.67.88-7.18 3.37-7.39 7.37-.24 4.63 2.11 7.58 7 8.78 7.94 1.94 10.48.06 10.48-7.94z" /><path d="m100.86 31.94v6.47c0 4.95-1.28 6.73-6 6.18-3.2-.37-6.15.3-9.22.4-3.9752.1392-7.9368-.5381-11.64-1.99-6.05-2.39-9.18-7.09-9-13.48.14-6.14 3.4-10.46 9.67-12.38 6.2311-1.8979 12.8503-2.1323 19.2-.68 5.79 1.29 7 3 7.05 9-.033 2.16-.053 4.32-.06 6.48zm-9.05-1.57c-.01-8.57-.01-8.57-6.21-8.54-7.55.06-11.48 2.79-11.55 8.06 0 5.46 4.14 8.86 11 8.93 5.93.06 6.76-.97 6.76-8.45z" /><path d="m182.73 44.72h-9.05v-25c0-2.94 2.19-3.88 4.36-3.69 6.28.55 12.49-.88 18.75-.29 7.94.76 11.21 4.2 11.27 12.24 0 5.17 0 10.33-.07 15.49 0 .29-.25.58-.5 1.12h-8.49c0-5 0-10.08 0-15.16 0-6.36-1.3-7.66-7.54-7.62-7.71.05-8.72 1.07-8.72 8.85z" /><path d="m272.26 16.1111c.012 1.8398.001 3.9401 0 5.7989-4.12 0-7.94-.21-11.73 0-5.91.41-9.22 3.32-9.34 7.78-.12 4.68 2.76 7.6 8.48 8.75 2.461.4408 4.97.5484 7.46.32 2.46-.18 4.9-.51 7.57-.8.3 4-1.54 5.84-5 6.42-6.408 1.2638-13.041.7096-19.15-1.6-5.73-2.27-8.58-7.06-8.42-13.42.16-6 3.29-10.2 9.31-12.17 6.69-2.11 13.77-1.6489 20.82-1.0789z" /><path d="m113.459 16.292c.583.0053 5.531-.008 6.541-.002-.36 5.19-.25 5.23-7.2 6 0 4.21.05 8.5 0 12.79 0 2.34 1.21 3.3 3.34 3.46 1.31.09 2.89.1126 4.17.1926.011.6812.012 4.8927 0 5.7674-2.718.5979-5.532.6217-8.26.07-5.88-1-8-3.5-8.08-9.42-.05-7.65 0-15.9467 0-23.7267 3.164.0197 5.328.0182 7.7.0567.836.0077 1.424.0266 1.823.0282.004 1.1481-.06 3.698-.034 4.7838z" /><path d="m227.35 39.045c-.014 1.7671.001 3.5813 0 5.765-2.52 0-4.771.0123-7.06 0-6.93-.68-9.33-3.37-9.35-10.26 0-7.47 0-15.44 0-22.99 2.176-.0318 5.389-.0007 7.76 0 .318.0015 1.404.001 1.85 0 .01 1.0058-.025 3.7802 0 4.33h6.8c.08 5.6232-.38 5.52-7.53 6.59v12.8c0 2 1 3 2.93 3.3 1.43.21 3.107.3127 4.6.465z" /><path d="m131.77 44.68h-8.42v-39.68c3.227.02205 5.243.02185 8.42 0z" /><path d="m238.84 44.7h-8.63c.027-4.9888.09-9.72 0-14.48s0-9.24 0-14.08h8.65z" /><path d="m234.5 14c2.485 0 4.5-2.0147 4.5-4.5 0-2.48528-2.015-4.5-4.5-4.5s-4.5 2.01472-4.5 4.5c0 2.4853 2.015 4.5 4.5 4.5z" /></g><path clip-rule="evenodd" d="m53.0902 27.0293c1.9302 6.7646 1.9563 13.5305-.5068 20.1201-2.3628 6.3214-7.1344 9.2522-13.533 9.3092-6.1513.0547-11.7581-1.916-16.9328-5.3139.5758-.01 1.1688-.1185 1.7246-.0145 4.4063.8271 8.2178-.554 11.5087-3.5173 1.1367-1.0238 1.9432-2.446 2.9008-3.6855.59-.3057 1.1801-.6109 1.7697-.9162 6.5435-1.4678 12.4388-8.6774 13.0688-15.9819" fill="#2fb0a8" fill-rule="evenodd" /><path clip-rule="evenodd" d="m2.11523 37.9937c-2.987142-4.6884-2.650465-9.7405.00607-14.5149 2.89083-5.195 7.13574-8.9547 12.2401-11.6851-.1883.6516-.6291 1.3313-1.0451 1.7134-1.5523 4.2614-1.5628 11.547-.2413 15.901.0161.5861.0326 1.1721.0486 1.7582-.3636 4.4737-.4334 8.9207 1.8266 12.9716 1.069 1.916 2.3181 3.7226 3.4852 5.5789-6.6728-2.0458-12.42842-5.6146-16.32017-11.7231z" fill="#df3b2e" fill-rule="evenodd" /><path clip-rule="evenodd" d="m19.4657 8.09362c5.1187-4.09882 10.1694-7.331068 16.8036-7.625003 6.5709-.29077 10.9585 3.253193 13.7483 9.087583 2.2877 4.7839 3.2448 9.9386 2.9285 15.3113-.9731-1.5551-1.8534-3.1849-2.9385-4.6505-2.9663-4.0079-7.2078-5.4726-11.7928-6.1767-.5554-.3174-1.1107-.6349-1.6661-.9523-2.952-2.4397-6.3096-4.04234-10.0339-4.37381-2.6158-.23244-5.2827.16596-7.9267.28263.1302-.33373.6411-.71372.8776-.9032z" fill="#1680bc" fill-rule="evenodd" /><path clip-rule="evenodd" d="m26.5148 8.7142c3.7243.33147 7.0819 1.9341 10.0339 4.3738-.6967.3066-1.3679.7416-2.0942.8971-3.0843.6616-6.3852.7349-9.2343 1.9622-4.7977 2.0661-8.7476 5.4532-10.8505 10.6902-.3801.9465-.8608 1.8482-1.2947 2.7707-1.4867-4.0654-1.4565-10.3889-.2557-14.8126.5045-1.3458 1.0608-2.1915 1.5421-2.8019 1.4088-.932 2.8176-1.86442 4.2267-2.79687 2.644-.11667 5.3109-.51507 7.9267-.28263z" fill="#b32b44" fill-rule="evenodd" /><path clip-rule="evenodd" d="m37.7737 13.7794c4.7102.6484 9.3685 2.3613 12.2342 6.4378 1.0847 1.4651 1.965 3.0953 2.9386 4.65.0477.7208.0954 1.4412.1436 2.162-.63 7.3046-6.5249 14.5141-13.0684 15.9815 1.2374-3.2482 2.847-6.4064 3.595-9.7722.5978-2.6897.5015-5.691.0785-8.4482-.6352-4.1386-3.1817-7.5271-5.7376-10.7111z" fill="#1170b0" fill-rule="evenodd" /><path clip-rule="evenodd" d="m14.9502 44.1379c-2.6046-4.0411-2.2597-10.1711-1.8965-14.6444.4738.502 1.1528 2.5971 1.47 3.1895 3.2297 6.0334 8.0898 9.9034 14.5548 11.1388 2.9641.5662 7.7941-.8167 10.8576-.8135-.9575 1.24-3.4486 3.5806-4.5853 4.6044-3.2908 2.9638-7.1023 4.3444-11.5086 3.5177-.5558-.104-1.1489.0041-1.7246.014-.138.0226-1.3879-.5391-2.0097-.7796-.4835-.2176-1.1345-.4861-1.6725-.648-1.1671-1.8563-2.4162-3.6629-3.4852-5.5789z" fill="#0ba6aa" fill-rule="evenodd" /><path clip-rule="evenodd" d="m20.0488 50.2028c.5727.2727 1.1454.5449 1.7181.8171-.5727-.2722-1.1454-.5444-1.7181-.8171z" fill="#2fb0a8" fill-rule="evenodd" /><path clip-rule="evenodd" d="m29.2173 44.0596c-6.465-1.2355-11.464-5.3431-14.6932-11.3769-.3172-.592-.6038-1.21-.978-1.8081-.2582-.723-.4551-.8808-.4711-1.4664.4342-.9225.915-1.8247 1.2946-2.7707 2.1029-5.237 6.0528-8.624 10.8505-10.6902 2.8491-1.2273 5.3899-1.9951 8.4742-2.6567.7263-.1555 2.1099-.3109 2.8562-.2396.5554.3175 1.2326.6812 1.6403 1.0742 2.5085 3.2265 4.8693 6.5264 5.5044 10.6651.423 2.7571.5194 5.7588-.0785 8.4481-.748 3.3663-2.3576 6.5245-3.595 9.7727-2.3246 1.1671-5.3616 1.3645-10.8044 1.0485z" fill="#753186" fill-rule="evenodd" /></svg>