<?xml version="1.0" encoding="UTF-8"?>
<svg width="55px" height="57px" viewBox="0 0 55 57" version="1.1" xmlns="http://www.w3.org/2000/svg" xmlns:xlink="http://www.w3.org/1999/xlink">
    <title>bnupfees</title>
    <g id="New-Landing" stroke="none" stroke-width="1" fill="none" fill-rule="evenodd">
        <g id="bnupfees" transform="translate(0.500111, 0.000000)" fill-rule="nonzero">
            <g id="price-tag">
                <polygon id="Path" fill="#000000" opacity="0.100000001" points="0 27.5638688 54 27.5638688 54 49.635094 0 49.635094"></polygon>
                <path d="M22.4420957,43.6210411 C23.7321931,43.6210411 24.6997662,43.1575891 25.3307921,42.2447291 C25.961818,41.3318692 26.2843423,40.0959973 26.2843423,38.5511574 C26.2843423,37.0203614 25.961818,35.7844895 25.3307921,34.8716296 C24.6997662,33.9587696 23.7321931,33.4953176 22.4420957,33.4953176 C21.1519983,33.4953176 20.1844252,33.9587696 19.5533993,34.8716296 C18.9223734,35.7844895 18.5998491,37.0203614 18.5998491,38.5511574 C18.5998491,40.0959973 18.9223734,41.3318692 19.5533993,42.2447291 C20.1844252,43.1575891 21.1519983,43.6210411 22.4420957,43.6210411 Z M22.4420957,41.7110572 C21.2501579,41.7110572 20.8014283,40.7560652 20.8014283,38.5511574 C20.8014283,36.3743375 21.2641807,35.4053015 22.4420957,35.4053015 C23.6200107,35.4053015 24.0827631,36.3743375 24.0827631,38.5511574 C24.0827631,40.7560652 23.6340335,41.7110572 22.4420957,41.7110572 Z M31.9635755,44.758605 L31.9635755,43.5929531 C34.2773371,43.4244251 35.3570926,42.3009051 35.3570926,40.6015812 C35.3570926,38.8039493 34.1791776,37.9893974 32.1458719,37.5540334 L31.9635755,37.5119014 L31.9635755,35.6019175 C32.5805786,35.7704455 32.9171257,36.1496335 32.9591941,36.7394815 L35.188819,36.7394815 C35.1747962,35.9108855 34.8803174,35.2086855 34.2773371,34.6328816 C33.6883796,34.0570776 32.9171257,33.7059776 31.9635755,33.5795816 L31.9635755,32.3998857 L30.5893413,32.3998857 L30.5893413,33.5795816 C29.635791,33.6778896 28.8785599,33.9728136 28.3036252,34.4783976 C27.7286905,34.9839816 27.4482346,35.6159615 27.4482346,36.3602935 C27.4482346,38.1017494 28.5560356,38.9022573 30.4771589,39.3095333 L30.5893413,39.3376213 L30.5893413,41.5987052 C29.8321102,41.4020892 29.4254491,40.9105492 29.3553351,40.1240853 L27.1257102,40.1240853 C27.2378926,42.0902452 28.4438532,43.3682491 30.5893413,43.5929531 L30.5893413,44.758605 L31.9635755,44.758605 Z M30.5893413,37.2169774 C30.0003838,37.0624934 29.705905,36.7675695 29.705905,36.3602935 C29.705905,35.9530175 30.0003838,35.6861815 30.5893413,35.5597855 L30.5893413,37.2169774 Z M31.9635755,41.6267932 L31.9635755,39.6325453 C32.762875,39.8151173 33.0994221,40.1381293 33.0994221,40.6577572 C33.0994221,41.1773852 32.7208066,41.5003972 31.9635755,41.6267932 Z" id="0$" fill="#FF6633"></path>
                <g id="Group" transform="translate(9.499889, 0.000000)" fill="#1A1C3A">
                    <path d="M34.7840424,14.857992 L26.1106707,3.03459449 C25.9015936,2.74945323 25.569667,2.58121877 25.2168771,2.58121877 L18.6097512,2.58121877 L18.6097512,1.107525 C18.5510454,-0.369731646 16.4483997,-0.368618248 16.3902488,1.107525 L16.3902488,2.58110743 L9.7831229,2.58110743 C9.43033299,2.58110743 9.09851737,2.74945323 8.88932927,3.03448315 L0.215957588,14.8578806 C0.0755740585,15.0491624 0,15.2804152 0,15.517903 L0,55.8866019 C0,56.5014203 0.496835624,57 1.10975123,57 L33.8902488,57 C34.5031644,57 35,56.5014203 35,55.8866019 L35,15.5180144 C35,15.2805265 34.9244259,15.0492738 34.7840424,14.857992 Z M32.7804975,54.7733151 L2.21961343,54.7733151 L2.21961343,15.883543 L10.3443241,4.8079037 L16.3902488,4.8079037 L16.3902488,9.03681249 C14.4682706,9.5318293 13.043794,11.2816458 13.043794,13.3584673 C13.2884941,19.2777372 21.7125047,19.2758444 21.956317,13.3584673 C21.956317,11.2817571 20.5318403,9.53194064 18.6098622,9.03681249 L18.6098622,4.8079037 L24.6557869,4.8079037 L32.7804975,15.8836543 L32.7804975,54.7733151 Z M17.500111,11.1235433 C18.7334885,11.1235433 19.7368146,12.1261583 19.7368146,13.3584673 C19.6140761,16.3235579 15.385591,16.3226672 15.2632964,13.3584673 C15.2632964,12.1261583 16.2667335,11.1235433 17.500111,11.1235433 L17.500111,11.1235433 Z" id="Shape"></path>
                    <path d="M10.4838198,21.8806393 C9.0114019,21.9394268 9.01251165,24.0490936 10.4838198,24.1074356 L24.5162911,24.1074356 C25.9887091,24.0486482 25.9875993,21.9389814 24.5162911,21.8806393 L10.4838198,21.8806393 Z" id="Path"></path>
                </g>
            </g>
        </g>
    </g>
</svg>