<?xml version="1.0" encoding="UTF-8"?>
<svg width="60px" height="60px" viewBox="0 0 60 60" version="1.1" xmlns="http://www.w3.org/2000/svg" xmlns:xlink="http://www.w3.org/1999/xlink">
    <title>cc3</title>
    <g id="Page-1" stroke="none" stroke-width="1" fill="none" fill-rule="evenodd">
        <g id="CreditCard/V1-Copy-2" transform="translate(-175.000000, -595.000000)">
            <g id="cc3" transform="translate(175.000000, 595.000000)">
                <path d="M12,0 L60,0 L60,0 L60,48 C60,54.627417 54.627417,60 48,60 L12,60 C5.372583,60 8.11624501e-16,54.627417 0,48 L0,12 C-8.11624501e-16,5.372583 5.372583,1.21743675e-15 12,0 Z" id="Rectangle" fill="#FFFFFF" opacity="0.100000001"></path>
                <g id="Group-8" transform="translate(13.000000, 14.000000)">
                    <rect id="Rectangle" fill="#FFFFFF" opacity="0.100000001" x="12.3148148" y="0" width="22.6851852" height="23.4807692"></rect>
                    <g id="streamline-icon-touch-password-approved-1@140x140" transform="translate(0.000000, 5.711538)" stroke-linecap="round" stroke-linejoin="round" stroke-width="1.275">
                        <path d="M5.63607085,12.2798077 L1.40901771,12.2798077 C0.630838718,12.2798077 0,11.6689347 0,10.9153846 L0,1.36442308 C0,0.610873019 0.630838718,-3.32393453e-15 1.40901771,-3.32393453e-15 L30.9983897,-3.32393453e-15 C31.7765687,-3.32393453e-15 32.4074074,0.610873019 32.4074074,1.36442308 L32.4074074,10.9153846 C32.4074074,11.6689347 31.7765687,12.2798077 30.9983897,12.2798077 L15.4991948,12.2798077" id="Path" stroke="#FFFFFF"></path>
                        <polyline id="Path" stroke="#FF6633" points="28.8848631 3.41105769 23.2487923 8.86875 20.4307568 6.13990385"></polyline>
                        <path d="M7.26066828,27.2884615 L1.89794686,21.0407683 C1.15050596,20.1715483 1.27225784,18.8801627 2.1698873,18.1563779 C3.06751676,17.4325931 4.40110979,17.5504916 5.14855072,18.4197115 L8.45410628,22.2755712 L8.45410628,8.86875 C8.45410628,7.73842491 9.40036436,6.82211538 10.5676329,6.82211538 C11.7349013,6.82211538 12.6811594,7.73842491 12.6811594,8.86875 L12.6811594,17.7375 L16.9082027,17.7375 C20.0209285,17.7375 22.5442834,20.1809921 22.5442834,23.1951923 L22.5442834,27.2884615" id="Path" stroke="#FFFFFF"></path>
                    </g>
                </g>
            </g>
        </g>
    </g>
</svg>