<?xml version="1.0" encoding="UTF-8"?>
<svg width="60px" height="60px" viewBox="0 0 60 60" version="1.1" xmlns="http://www.w3.org/2000/svg" xmlns:xlink="http://www.w3.org/1999/xlink">
    <title>cc4</title>
    <g id="Page-1" stroke="none" stroke-width="1" fill="none" fill-rule="evenodd">
        <g id="CreditCard/V1-Copy-2" transform="translate(-419.000000, -593.000000)">
            <g id="cc4" transform="translate(419.000000, 593.000000)">
                <path d="M0,0 L48,0 C54.627417,-1.21743675e-15 60,5.372583 60,12 L60,48 C60,54.627417 54.627417,60 48,60 L12,60 C5.372583,60 8.11624501e-16,54.627417 0,48 L0,0 L0,0 Z" id="Rectangle" fill="#FFFFFF" opacity="0.100000001"></path>
                <g id="Group-11" transform="translate(14.000000, 15.000000)">
                    <rect id="Rectangle" fill="#FFFFFF" opacity="0.100000001" x="-2.99175889e-14" y="3.2" width="21.9607843" height="23.68"></rect>
                    <g id="streamline-icon-credit-card-shield@140x140" transform="translate(0.627451, 0.000000)" stroke-linecap="round" stroke-linejoin="round" stroke-width="1.275">
                        <line x1="25.9164522" y1="5.56528105" x2="1.66148092e-15" y2="5.56528105" id="Path" stroke="#FFFFFF"></line>
                        <path d="M12.2762142,18.0871634 L2.0460357,18.0871634 C0.916041386,18.0871634 0,17.1527904 0,16.000183 L0,2.08698039 C0,0.934372948 0.916041386,0 2.0460357,0 L23.8704165,0 C25.0004108,0 25.9164522,0.934372948 25.9164522,2.08698039 L25.9164522,12.5218824" id="Path" stroke="#FFFFFF"></path>
                        <line x1="23.1884046" y1="9.73924183" x2="19.0963332" y2="9.73924183" id="Path" stroke="#FFFFFF"></line>
                        <line x1="6.82011901" y1="12.5218824" x2="2.7280476" y2="12.5218824" id="Path" stroke="#FFFFFF"></line>
                        <line x1="9.54816661" y1="9.73924183" x2="2.7280476" y2="9.73924183" id="Path" stroke="#FFFFFF"></line>
                        <line x1="23.1884046" y1="18.0871634" x2="23.1884046" y2="26.435085" id="Path" stroke="#FF6633"></line>
                        <line x1="27.280476" y1="22.2611242" x2="19.0963332" y2="22.2611242" id="Path" stroke="#FF6633"></line>
                        <path d="M23.9195214,31.85706 L24.6738265,31.5648828 C28.2612091,30.1735625 31.372549,26.6618702 31.372549,22.746695 L31.372549,18.0259453 C31.373391,17.4474923 31.0373493,16.9237758 30.5173045,16.6930605 C28.1629097,15.7958869 25.6729851,15.3250392 23.1597601,15.3017402 C20.6654579,15.3235066 18.1945326,15.7945163 15.8608688,16.6930605 C15.3405301,16.923644 15.0040111,17.4472693 15.0042617,18.0259453 L15.0042617,22.746695 C15.0042617,26.6618702 18.0569471,30.1707799 21.6443297,31.5648828 L22.3986348,31.85706 C22.8883808,32.0476467 23.4297755,32.0476467 23.9195214,31.85706 Z" id="Path" stroke="#FFFFFF"></path>
                    </g>
                </g>
            </g>
        </g>
    </g>
</svg>