<?xml version="1.0" encoding="UTF-8"?>
<svg width="60px" height="60px" viewBox="0 0 60 60" version="1.1" xmlns="http://www.w3.org/2000/svg" xmlns:xlink="http://www.w3.org/1999/xlink">
    <title>cc5</title>
    <defs>
        <circle id="path-1" cx="21" cy="21" r="21"></circle>
    </defs>
    <g id="Page-1" stroke="none" stroke-width="1" fill="none" fill-rule="evenodd">
        <g id="CreditCard/V1-Copy-2" transform="translate(-275.000000, -447.000000)">
            <g id="cc5" transform="translate(275.000000, 447.000000)">
                <path d="M12,0 L48,0 C54.627417,-1.21743675e-15 60,5.372583 60,12 L60,48 C60,54.627417 54.627417,60 48,60 L0,60 L0,60 L0,12 C-8.11624501e-16,5.372583 5.372583,1.21743675e-15 12,0 Z" id="Rectangle" fill="#FFFFFF" opacity="0.100000001" transform="translate(30.000000, 30.000000) scale(-1, 1) translate(-30.000000, -30.000000) "></path>
                <g id="Group-9" transform="translate(10.000000, 10.000000)" opacity="0.100000001">
                    <g id="Rectangle">
                        <mask id="mask-2" fill="white">
                            <use xlink:href="#path-1"></use>
                        </mask>
                        <use id="Mask" fill="#000000" xlink:href="#path-1"></use>
                        <rect fill="#FFFFFF" mask="url(#mask-2)" x="-1.29230769" y="0" width="21.9692308" height="42"></rect>
                    </g>
                </g>
                <g id="streamline-icon-earth-add@140x140" transform="translate(15.000000, 15.000000)" stroke-linecap="round" stroke-linejoin="round" stroke-width="1.28">
                    <path d="M18.0970153,31.8607737 C17.3981873,31.9530079 16.694083,31.9995156 15.9891951,32 C9.33542853,31.9954671 3.37900201,27.8731873 1.03047043,21.6474758 C-1.31806114,15.4217644 0.431591931,8.39232816 5.42447723,3.99403862 C10.4173625,-0.404250913 17.6111435,-1.25318758 23.490643,1.86205398 C29.3701425,4.97729553 32.7079305,11.4063639 31.8730266,18.0077519" id="Path" stroke="#FFFFFF"></path>
                    <path d="M0.219525591,13.2030502 L8.68978861,13.2030502 C9.79769931,13.2025486 10.8604161,13.6422729 11.6440782,14.4254579 L13.2047562,15.9861853 C14.7690301,17.5500284 14.8428999,20.0622912 13.3732148,21.7153496 L11.4756197,23.8496895 C10.7959409,24.6141762 10.420436,25.6015178 10.4203174,26.6244707 L10.4203174,31.0031393" id="Path" stroke="#FFFFFF"></path>
                    <path d="M27.4903198,4.84946963 L19.4154471,4.84946963 C17.6854186,4.84946963 16.2829534,6.25197922 16.2829534,7.98206249 C16.2829534,9.71214575 17.6854186,11.1146553 19.4154471,11.1146553 L20.0168859,11.1146553 C21.4150256,11.1125829 22.7214676,11.810245 23.4974345,12.9733271 L25.0748191,15.340175" id="Path" stroke="#FFFFFF"></path>
                    <path d="M18.0775242,25.0372903 C18.0775242,28.8819197 21.1941136,31.9986077 25.0386214,31.9986077 C28.8831292,31.9986077 31.9997185,28.8819197 31.9997185,25.0372903 C31.9997185,21.1926608 28.8831292,18.0759728 25.0386214,18.0759728 C21.1941136,18.0759728 18.0775242,21.1926608 18.0775242,25.0372903 Z" id="Path" stroke="#FFFFFF"></path>
                    <g id="Group-12" transform="translate(23.500000, 21.500000)" stroke="#FF6633">
                        <path d="M2.99736879,0.954545455 L1.3922778,0.954545455 C0.74813838,0.954743012 0.188638637,1.33092744 0.0406576737,1.86331879 C-0.10732329,2.39571014 0.195030343,2.94466069 0.771073122,3.18945455 L2.23229041,3.81054545 C2.80833319,4.05533931 3.11068682,4.60428986 2.96270586,5.13668121 C2.81472489,5.66907256 2.25522515,6.04525699 1.61108573,6.04545455 L-2.60594349e-15,6.04545455" id="Path"></path>
                        <line x1="1.12701067" y1="6.04545455" x2="1.12701067" y2="7" id="Path"></line>
                        <line x1="1.87635286" y1="-3.67164211e-14" x2="1.87635286" y2="0.954545455" id="Path"></line>
                    </g>
                </g>
            </g>
        </g>
    </g>
</svg>