<?xml version="1.0" encoding="UTF-8"?>
<svg width="60px" height="60px" viewBox="0 0 60 60" version="1.1" xmlns="http://www.w3.org/2000/svg" xmlns:xlink="http://www.w3.org/1999/xlink">
    <title>cc6</title>
    <g id="Page-1" stroke="none" stroke-width="1" fill="none" fill-rule="evenodd">
        <g id="CreditCard/V1-Copy-2" transform="translate(-541.000000, -758.000000)">
            <g id="cc6" transform="translate(541.000000, 758.000000)">
                <path d="M0,0 L48,0 C54.627417,-1.21743675e-15 60,5.372583 60,12 L60,48 C60,54.627417 54.627417,60 48,60 L12,60 C5.372583,60 8.11624501e-16,54.627417 0,48 L0,0 L0,0 Z" id="Rectangle" fill="#FFFFFF" opacity="0.100000001"></path>
                <g id="Group-11" transform="translate(14.000000, 14.000000)">
                    <rect id="Rectangle" fill="#FFFFFF" opacity="0.100000001" x="8" y="4.2" width="21.9607843" height="23.68"></rect>
                    <g id="streamline-icon-performance-tablet-increase@140x140" stroke-linecap="round" stroke-linejoin="round" stroke-width="1.28">
                        <path d="M32,32 L28.5481739,27.2222609 L28.5217391,20.8695652 C28.5801739,18.3958261 24.9307826,15.4949565 22.2608696,13.2173913" id="Path" stroke="#FFFFFF"></path>
                        <path d="M25.0754783,23.6521739 L21.3328696,19.8010435 C20.7525307,19.2493626 19.8381864,19.2609344 19.2719952,19.8271256 C18.705804,20.3933169 18.6942321,21.3076611 19.245913,21.888 L22.9885217,26.4347826 L22.9885217,28.5217391 C22.9885217,29.8587826 25.1589565,32 25.1589565,32" id="Path" stroke="#FFFFFF"></path>
                        <path d="M18.7826087,27.826087 L1.39130435,27.826087 C0.622908174,27.826087 0,27.2031788 0,26.4347826 L0,1.39130435 C0,0.622908174 0.622908174,0 1.39130435,0 L20.8695652,0 C21.6379614,0 22.2608696,0.622908174 22.2608696,1.39130435 L22.2608696,20.173913" id="Path" stroke="#FFFFFF"></path>
                        <polyline id="Path" stroke="#FF6633" points="12.5273043 4.17391304 16.7012174 4.17391304 16.7012174 8.34782609"></polyline>
                        <line x1="16.7012174" y1="4.17391304" x2="4.87513043" y2="15.3043478" id="Path" stroke="#FF6633"></line>
                        <line x1="5.57078261" y1="18.7826087" x2="5.57078261" y2="23.6521739" id="Path" stroke="#FFFFFF"></line>
                        <line x1="9.74469565" y1="15.3043478" x2="9.74469565" y2="23.6521739" id="Path" stroke="#FFFFFF"></line>
                        <line x1="13.9186087" y1="12.5217391" x2="13.9186087" y2="23.6521739" id="Path" stroke="#FFFFFF"></line>
                    </g>
                </g>
            </g>
        </g>
    </g>
</svg>