<?xml version="1.0" encoding="UTF-8"?>
<svg width="24px" height="24px" viewBox="0 0 24 24" version="1.1" xmlns="http://www.w3.org/2000/svg" xmlns:xlink="http://www.w3.org/1999/xlink">
    <title>check</title>
    <g id="New-Landing" stroke="none" stroke-width="1" fill="none" fill-rule="evenodd">
        <g id="Landing/Home" transform="translate(-163.000000, -480.000000)" fill-rule="nonzero">
            <g id="Group-56" transform="translate(163.000000, 477.000000)">
                <g id="check" transform="translate(0.000000, 3.000000)">
                    <path d="M11.1557822,16.3115789 L11.1557822,16.3115789 C10.8844275,16.3115789 10.6431977,16.190964 10.492458,16.0100993 L5.93967812,11.0653499 C5.60801599,10.7035629 5.63819857,10.130671 5.99998557,9.79900882 C6.36177258,9.46734669 6.93466452,9.49752927 7.26632666,9.85931628 L11.1859071,14.1105589 L22.0402098,3.28643876 C22.4019968,2.92465175 22.9748887,2.92465175 23.3065509,3.28643876 C23.638213,3.64822576 23.6683379,4.22111771 23.3065509,4.55277984 L11.7889816,16.0402242 C11.6381841,16.2211466 11.397012,16.3115789 11.1557822,16.3115789 Z" id="Path" fill="#4DBE85"></path>
                    <path d="M12.0000289,24 C5.39696876,24 0,18.6030312 0,12.0000289 C0,5.39702647 5.39696876,0 12.0000289,0 C12.5126133,0 12.9045252,0.391969587 12.9045252,0.904496368 C12.9045252,1.41702315 12.5125556,1.80899274 12.0000289,1.80899274 C6.39195516,1.80899274 1.80905045,6.39189745 1.80905045,11.9999711 C1.80905045,17.6080448 6.39195516,22.1909496 12.0000289,22.1909496 C17.6081026,22.1909496 22.1910073,17.6080448 22.1910073,11.9999711 C22.1910073,11.4873867 22.5829769,11.0954748 23.0955036,11.0954748 C23.6080304,11.0954748 24,11.4874444 24,11.9999711 C24,18.6030312 18.6030312,24 12.0000289,24 Z" id="Path" fill="#FFFFFF"></path>
                </g>
            </g>
        </g>
    </g>
</svg>