<?xml version="1.0" encoding="UTF-8"?>
<svg width="70px" height="62px" viewBox="0 0 70 62" version="1.1" xmlns="http://www.w3.org/2000/svg" xmlns:xlink="http://www.w3.org/1999/xlink">
    <title>city-sanfra</title>
    <g id="Symbols" stroke="none" stroke-width="1" fill="none" fill-rule="evenodd" opacity="0.200000003">
        <g id="footer" transform="translate(-986.000000, -324.000000)" fill="#FFFFFF" fill-rule="nonzero" stroke="#202020" stroke-width="0.7">
            <g id="Group-32" transform="translate(427.000000, 285.000000)">
                <g id="Group-16" transform="translate(420.000000, 0.000000)">
                    <g id="city-sanfra" transform="translate(140.000000, 40.000000)">
                        <path d="M53.5,3 C54.3265,3 55,2.3265 55,1.5 C55,0.6735 54.3265,0 53.5,0 C52.6735,0 52,0.6735 52,1.5 C52,2.3265 52.6735,3 53.5,3 Z" id="Path"></path>
                        <path d="M14.5,3 C15.3265,3 16,2.3265 16,1.5 C16,0.6735 15.3265,0 14.5,0 C13.6735,0 13,0.6735 13,1.5 C13,2.3265 13.6735,3 14.5,3 Z" id="Path"></path>
                        <path d="M67.1501328,28.7864268 C65.3383047,28.0800122 63.6940859,27.0415854 62.2627656,25.700122 C59.1565469,22.7886098 57.375,18.6664268 57.375,14.3902439 L57.375,11.7073171 C57.375,10.966561 56.7803984,10.3658537 56.046875,10.3658537 L54.71875,10.3658537 L54.71875,6.34146341 C54.71875,5.60231707 54.1224219,5 53.390625,5 C52.6588281,5 52.0625,5.60231707 52.0625,6.34146341 L52.0625,10.3658537 L50.734375,10.3658537 C50.0008516,10.3658537 49.40625,10.966561 49.40625,11.7073171 L49.40625,14.3902439 C49.40625,22.7391098 42.5916406,29.783 34.31025,29.9513537 C25.791125,30.1246707 18.59375,22.9762805 18.59375,14.3902439 L18.59375,11.7073171 C18.59375,10.966561 17.9991484,10.3658537 17.265625,10.3658537 L15.9375,10.3658537 L15.9375,6.34146341 C15.9375,5.60231707 15.3411719,5 14.609375,5 C13.8775781,5 13.28125,5.60231707 13.28125,6.34146341 L13.28125,10.3658537 L11.953125,10.3658537 C11.2196016,10.3658537 10.625,10.966561 10.625,11.7073171 L10.625,14.3902439 C10.625,18.6664268 8.84345312,22.7886098 5.73723437,25.7002561 C4.30604687,27.0417195 2.66169531,28.0801463 0.849867188,28.786561 C0.337742188,28.9861707 0,29.4835854 0,30.037878 L0,45.2439024 C0,45.9846585 0.594601563,46.5853659 1.328125,46.5853659 L10.625,46.5853659 L10.625,51.9512195 L7.96875,51.9512195 C7.23522656,51.9512195 6.640625,52.5519268 6.640625,53.2926829 L6.640625,58.6585366 C6.640625,59.3992927 7.23522656,60 7.96875,60 L21.25,60 C21.9835234,60 22.578125,59.3992927 22.578125,58.6585366 L22.578125,53.2926829 C22.578125,52.5519268 21.9835234,51.9512195 21.25,51.9512195 L18.59375,51.9512195 L18.59375,46.5853659 L49.40625,46.5853659 L49.40625,51.9512195 L46.75,51.9512195 C46.0164766,51.9512195 45.421875,52.5519268 45.421875,53.2926829 L45.421875,58.6585366 C45.421875,59.3992927 46.0164766,60 46.75,60 L60.03125,60 C60.7647734,60 61.359375,59.3992927 61.359375,58.6585366 L61.359375,53.2926829 C61.359375,52.5519268 60.7647734,51.9512195 60.03125,51.9512195 L57.375,51.9512195 L57.375,46.5853659 L66.671875,46.5853659 C67.4053984,46.5853659 68,45.9846585 68,45.2439024 L68,30.037878 C68,29.4835854 67.6622578,28.9861707 67.1501328,28.7864268 Z M65.34375,38.5365854 L62.6875,38.5365854 L62.6875,29.4507195 C63.5287344,30.0197683 64.4156562,30.5147683 65.34375,30.9327683 L65.34375,38.5365854 Z M60.03125,27.2552805 L60.03125,38.5365854 L57.375,38.5365854 L57.375,23.865939 C58.1188828,25.0912317 59.0084609,26.2310732 60.03125,27.2552805 L60.03125,27.2552805 Z M49.40625,38.5365854 L46.75,38.5365854 L46.75,27.3109512 C47.7726562,26.280439 48.6623672,25.1340244 49.40625,23.9029634 L49.40625,38.5365854 Z M44.09375,38.5365854 L41.4375,38.5365854 L41.4375,31.0202317 C42.3654609,30.5968659 43.2525156,30.0963659 44.09375,29.5223537 L44.09375,38.5365854 Z M38.78125,38.5365854 L35.328125,38.5365854 L35.328125,32.5858537 C36.5005937,32.5 37.6544687,32.300122 38.78125,31.9880976 L38.78125,38.5365854 Z M32.671875,38.5365854 L29.21875,38.5365854 L29.21875,31.9880976 C30.3455313,32.300122 31.4994062,32.5 32.671875,32.5858537 L32.671875,38.5365854 Z M26.5625,38.5365854 L23.90625,38.5365854 L23.90625,29.5223537 C24.7474844,30.0963659 25.6345391,30.5968659 26.5625,31.0202317 L26.5625,38.5365854 Z M21.25,27.3109512 L21.25,38.5365854 L18.59375,38.5365854 L18.59375,23.9029634 C19.3376328,25.1341585 20.2273438,26.2805732 21.25,27.3109512 L21.25,27.3109512 Z M10.625,38.5365854 L7.96875,38.5365854 L7.96875,27.2552805 C8.99153906,26.230939 9.88111719,25.0912317 10.625,23.8658049 L10.625,38.5365854 Z M2.65625,30.9326341 C3.58434375,30.5146341 4.47126562,30.0196341 5.3125,29.4505854 L5.3125,38.5365854 L2.65625,38.5365854 L2.65625,30.9326341 Z M2.65625,43.902439 L2.65625,41.2195122 L10.625,41.2195122 L10.625,43.902439 L2.65625,43.902439 Z M19.921875,57.3170732 L9.296875,57.3170732 L9.296875,54.6341463 L19.921875,54.6341463 L19.921875,57.3170732 Z M13.28125,51.9512195 L13.28125,13.0487805 L15.9375,13.0487805 L15.9375,51.9512195 L13.28125,51.9512195 Z M18.59375,43.902439 L18.59375,41.2195122 L49.40625,41.2195122 L49.40625,43.902439 L18.59375,43.902439 Z M58.703125,57.3170732 L48.078125,57.3170732 L48.078125,54.6341463 L58.703125,54.6341463 L58.703125,57.3170732 Z M52.0625,51.9512195 L52.0625,13.0487805 L54.71875,13.0487805 L54.71875,51.9512195 L52.0625,51.9512195 Z M65.34375,43.902439 L57.375,43.902439 L57.375,41.2195122 L65.34375,41.2195122 L65.34375,43.902439 Z" id="Shape"></path>
                    </g>
                </g>
            </g>
        </g>
    </g>
</svg>