<?xml version="1.0" encoding="UTF-8"?>
<svg width="60px" height="60px" viewBox="0 0 60 60" version="1.1" xmlns="http://www.w3.org/2000/svg" xmlns:xlink="http://www.w3.org/1999/xlink">
    <title>city-banglore</title>
    <g id="Symbols" stroke="none" stroke-width="1" fill="none" fill-rule="evenodd" opacity="0.200000003">
        <g id="footer" transform="translate(-847.000000, -325.000000)" fill="#FFFFFF" fill-rule="nonzero">
            <g id="Group-32" transform="translate(427.000000, 285.000000)">
                <g id="Group-16" transform="translate(420.000000, 0.000000)">
                    <g id="city-banglore" transform="translate(0.000000, 40.000000)">
                        <path d="M20,25 C20,24.4480253 19.5531007,24 19.0025133,24 L18.9915249,24 C18.4418727,24 18,24.4480253 18,25 C18,25.5519747 18.4508738,26 19.0025133,26 C19.5531007,26.0001172 20,25.5520919 20,25 Z" id="Path"></path>
                        <path d="M20,17 C20,16.4480253 19.5531007,16 19.0025133,16 L18.9915249,16 C18.4418727,16 18,16.4480253 18,17 C18,17.5519747 18.4508738,18 19.0025133,18 C19.5531007,18 20,17.5519747 20,17 Z" id="Path"></path>
                        <path d="M24,33 C24,32.4480253 23.5531007,32 23.0025133,32 L22.9915249,32 C22.4418727,32 22,32.4480253 22,33 C22,33.5519747 22.4519259,34 23.0025133,34 C23.5531007,34 24,33.5519747 24,33 Z" id="Path"></path>
                        <path d="M24,25 C24,24.4480253 23.5531007,24 23.0025133,24 L22.9915249,24 C22.4418727,24 22,24.4480253 22,25 C22,25.5519747 22.4519259,26 23.0025133,26 C23.5531007,26.0001172 24,25.5520919 24,25 Z" id="Path"></path>
                        <path d="M6.99997314,38.0000676 L7.99994629,38.0000676 L7.99994629,51.0000383 C7.99994629,51.5519919 8.44690487,52 8.99991943,52 C9.552934,52 9.99989258,51.5519919 9.99989258,51.0000383 L9.99989258,38.0000676 L13.9999023,38.0000676 L13.9999023,51.0000383 C13.9999023,51.5519919 14.4468609,52 14.9998755,52 C15.55289,52 15.9998486,51.5519919 15.9998486,51.0000383 L15.9998486,38.0000676 L44.0001514,38.0000676 L44.0001514,51.0000383 C44.0001514,51.5519919 44.44711,52 45.0001245,52 C45.5531391,52 46.0000977,51.5519919 46.0000977,51.0000383 L46.0000977,38.0000676 L50.0001074,38.0000676 L50.0001074,51.0000383 C50.0001074,51.5519919 50.447066,52 51.0000806,52 C51.5530951,52 52.0000537,51.5519919 52.0000537,51.0000383 L52.0000537,38.0000676 L53.0000269,38.0000676 C53.5530414,38.0000676 54,37.5520595 54,37.0001059 C54,36.4481524 53.5530414,36.0001442 53.0000269,36.0001442 L34.0003027,36.0001442 L34.0003027,30.0000225 L48.0005127,30.0000225 L48.0005127,33.0000248 C48.0005127,33.5519783 48.4474713,33.9999865 49.0004858,33.9999865 C49.5535004,33.9999865 50.000459,33.5519783 50.000459,33.0000248 L50.000459,29.0000608 C50.000459,28.4481073 49.5535004,28.0000992 49.0004858,28.0000992 L34.0003027,28.0000992 L34.0003027,22.0000947 L46.0004492,22.0000947 L46.0004492,25.0000969 C46.0004492,25.5520504 46.4474078,26.0000586 47.0004224,26.0000586 C47.5534369,26.0000586 48.0003955,25.5520504 48.0003955,25.0000969 L48.0003955,21.0000158 C48.0003955,20.4480622 47.5534369,20.0000541 47.0004224,20.0000541 L34.0003027,20.0000541 L34.0003027,14.0000496 L44.0003857,14.0000496 L44.0003857,17.0000518 C44.0003857,17.5520054 44.4473443,18.0000135 45.0003589,18.0000135 C45.5533735,18.0000135 46.000332,17.5520054 46.000332,17.0000518 L46.000332,13.0000879 C46.000332,12.4481344 45.5533735,12.0001262 45.0003589,12.0001262 L34.0001855,12.0001262 L34.0001855,6 L42.0004395,6 L42.0004395,9 C42.0004395,9.5519603 42.447398,9.99996845 43.0004126,9.99996845 C43.5534272,9.99996845 44.0003857,9.5519603 44.0003857,9 L44.0003857,5.41394938 L44.7073866,4.70695666 C45.5813816,3.83191694 45.8943932,2.501955 45.4673568,1.47199329 C45.0805161,0.536953528 44.1814426,0 43.0004126,0 C42.447398,0 42.0004395,0.448008149 42.0004395,0.999961689 C42.0004395,1.55191523 42.447398,1.99992338 43.0004126,1.99992338 C43.2384233,1.99992338 43.538427,2.04093903 43.6194045,2.23687668 C43.7234683,2.4859003 43.6163576,2.96988504 43.2933849,3.29285404 L42.5863841,3.99984675 L40.000376,3.99984675 L40.000376,3 C40.000376,2.44804871 39.5534174,2.00004056 39.0004028,2.00004056 C38.4473883,2.00004056 38.0004297,2.44804871 38.0004297,3 L38.0004297,3.99996394 L33.8974109,3.99996394 C33.3353727,1.10191489 30.4524079,0.0969141353 30.3163515,0.0509766008 C30.1113881,-0.0169922003 29.8893151,-0.0169922003 29.6843516,0.0509766008 C29.5482953,0.0970313229 26.6653304,1.10203208 26.1023548,3.99996394 L22.0002734,3.99996394 L22.0002734,3 C22.0002734,2.44804871 21.5533149,2.00004056 21.0003003,2.00004056 C20.4472857,2.00004056 20.0003272,2.44804871 20.0003272,3 L20.0003272,3.99996394 L17.414319,3.99996394 L16.7512641,3.33691657 C16.5302457,3.03386947 16.4642684,2.5189472 16.6112233,2.20886885 C16.6622005,2.10281408 16.733217,1.99980619 17.0001733,1.99980619 C17.5531879,1.99980619 18.0001465,1.55179804 18.0001465,0.999844501 C18.0001465,0.447890961 17.5531879,0 17.0001733,0 C16.0152004,0 15.2151516,0.491953495 14.8061622,1.34894633 C14.3251016,2.35793146 14.5001819,3.7379325 15.2241751,4.62996442 C15.2451519,4.65691756 15.2691756,4.68293321 15.2931994,4.70695666 L16.0002002,5.41394938 L16.0002002,9 C16.0002002,9.5519603 16.4471588,9.99996845 17.0001733,9.99996845 C17.5531879,9.99996845 18.0001465,9.5519603 18.0001465,9 L18.0001465,6 L26.0002832,6 L26.0002832,12 L15.0001099,12 C14.4470953,12 14.0001367,12.4480172 14.0001367,12.9999707 L14.0001367,16.9999346 C14.0001367,17.5518882 14.4470953,17.9998963 15.0001099,17.9998963 C15.5531244,17.9998963 16.000083,17.5518882 16.000083,16.9999346 L16.000083,13.9999324 L26.000166,13.9999324 L26.000166,19.9999369 L13.0000464,19.9999369 C12.4470318,19.9999369 12.0000732,20.447945 12.0000732,20.9998986 L12.0000732,24.9998625 C12.0000732,25.5518161 12.4470318,25.9998242 13.0000464,25.9998242 C13.553061,25.9998242 14.0000195,25.5518161 14.0000195,24.9998625 L14.0000195,21.9998603 L26.000166,21.9998603 L26.000166,27.9998648 L10.9999829,27.9998648 C10.4469683,27.9998648 10,28.4478729 10,28.9998265 L10,33.0000248 C10,33.5519783 10.4469683,33.9999865 10.9999829,33.9999865 C11.5529975,33.9999865 11.9999561,33.5519783 11.9999561,33.0000248 L11.9999561,30.0000225 L26.000166,30.0000225 L26.000166,36.000027 L6.99997314,36.000027 C6.44695858,36.000027 6,36.4480352 6,36.9999887 C6,37.5519423 6.44695858,38.0000676 6.99997314,38.0000676 Z M30.000293,2.08394688 C30.5012757,2.32793144 31.4363261,2.92090063 31.8212918,3.99996394 L28.1792942,3.99996394 C28.5642598,2.91902563 29.5013025,2.32699394 30.000293,2.08394688 Z M28.0002295,6.00000451 L32.0002295,6.00000451 L32.0002295,12.0000045 L28.0002295,12.0000045 L28.0002295,6.00000451 L28.0002295,6.00000451 Z M28.0002295,14.0000496 L32.0002295,14.0000496 L32.0002295,20.0000496 L28.0002295,20.0000496 L28.0002295,14.0000496 L28.0002295,14.0000496 Z M28.0002295,21.9999775 L32.0002295,21.9999775 L32.0002295,27.9999775 L28.0002295,27.9999775 L28.0002295,21.9999775 L28.0002295,21.9999775 Z M28.0002295,30.0000225 L32.0002295,30.0000225 L32.0002295,36.0000225 L28.0002295,36.0000225 L28.0002295,30.0000225 L28.0002295,30.0000225 Z" id="Shape"></path>
                        <path d="M16,33 C16,32.4480253 15.5531007,32 15.0025133,32 L14.9915249,32 C14.4418727,32 14,32.4480253 14,33 C14,33.5519747 14.4508738,34 15.0025133,34 C15.5531007,34 16,33.5519747 16,33 Z" id="Path"></path>
                        <path d="M20,33 C20,32.4480253 19.5531007,32 19.0025133,32 L18.9915249,32 C18.4418727,32 18,32.4480253 18,33 C18,33.5519747 18.4508738,34 19.0025133,34 C19.5531007,34 20,33.5519747 20,33 Z" id="Path"></path>
                        <path d="M36.9915249,16 C36.4418727,16 36,16.4480253 36,17 C36,17.5519747 36.4508738,18 37.0025133,18 C37.5531007,18 38,17.5519747 38,17 C38,16.4480253 37.5531007,16 37.0025133,16 L36.9915249,16 Z" id="Path"></path>
                        <path d="M36.9915249,32 C36.4418727,32 36,32.4480253 36,33 C36,33.5519747 36.4508738,34 37.0025133,34 C37.5531007,34 38,33.5519747 38,33 C38,32.4480253 37.5531007,32 37.0025133,32 L36.9915249,32 Z" id="Path"></path>
                        <path d="M40.9915249,32 C40.4418727,32 40,32.4480253 40,33 C40,33.5519747 40.4508738,34 41.0025133,34 C41.5531007,34 42,33.5519747 42,33 C42,32.4480253 41.5531007,32 41.0025133,32 L40.9915249,32 Z" id="Path"></path>
                        <path d="M4.99996169,56 L55.0000383,56 C55.5530465,56 56,55.5519911 56,55.0000366 C56,54.4480821 55.5530465,54.0000732 55.0000383,54.0000732 L37.9999865,54.0000732 L37.9999865,41.9999268 L38.9999482,41.9999268 C39.5529564,41.9999268 39.9999099,41.5519179 39.9999099,40.9999634 C39.9999099,40.4480089 39.5529564,40 38.9999482,40 L20.9999346,40 C20.4469264,40 19.999973,40.4480089 19.999973,40.9999634 C19.999973,41.5519179 20.4469264,41.9999268 20.9999346,41.9999268 L21.9998963,41.9999268 L21.9998963,53.9999561 L4.99996169,53.9999561 C4.44695346,53.9999561 4,54.447965 4,54.9999194 C4,55.5518739 4.44695346,56 4.99996169,56 Z M30.9999031,49.9999854 C31.5529113,49.9999854 31.9998648,49.5519764 31.9998648,49.000022 C31.9998648,48.4480675 31.5529113,48.0000586 30.9999031,48.0000586 L30.9999031,42.0000439 L35.9999459,42.0000439 L35.9999459,54.0000732 L30.9999031,54.0000732 L30.9999031,49.9999854 Z M23.9999369,41.9999268 L28.9999797,41.9999268 L28.9999797,47.9999414 C28.4469715,47.9999414 28.000018,48.4479503 28.000018,48.9999048 C28.000018,49.5518593 28.4469715,49.9998682 28.9999797,49.9998682 L28.9999797,53.9999561 L23.9999369,53.9999561 L23.9999369,41.9999268 Z" id="Shape"></path>
                        <path d="M44.9915249,32 C44.4418727,32 44,32.4480253 44,33 C44,33.5519747 44.4508738,34 45.0025133,34 C45.5531007,34 46,33.5519747 46,33 C46,32.4480253 45.5531007,32 45.0025133,32 L44.9915249,32 Z" id="Path"></path>
                        <path d="M59.0001543,58 L0.999962891,58 C0.446953998,58 0,58.4479991 0,58.9999414 C0,59.5518838 0.446953998,60 0.999962891,60 L59.0000371,60 C59.553046,60 60,59.5520009 60,59.0000586 C60,58.4481162 59.5531632,58 59.0001543,58 Z" id="Path"></path>
                        <path d="M40.9915249,24 C40.4418727,24 40,24.4480253 40,25 C40,25.5519747 40.4508738,26 41.0025133,26 C41.5531007,26 42,25.5519747 42,25 C42,24.4480253 41.5531007,24 41.0025133,24 L40.9915249,24 Z" id="Path"></path>
                        <path d="M36.9915249,8 C36.4418727,8 36,8.44802531 36,9 C36,9.55197469 36.4508738,10 37.0025133,10 C37.5531007,10 38,9.55197469 38,9 C38,8.44802531 37.5531007,8 37.0025133,8 L36.9915249,8 Z" id="Path"></path>
                        <path d="M36.9915249,24 C36.4418727,24 36,24.4480253 36,25 C36,25.5519747 36.4508738,26 37.0025133,26 C37.5531007,26 38,25.5519747 38,25 C38,24.4480253 37.5531007,24 37.0025133,24 L36.9915249,24 Z" id="Path"></path>
                        <path d="M24,9 C24,8.44802531 23.5531007,8 23.0025133,8 L22.9915249,8 C22.4418727,8 22,8.44802531 22,9 C22,9.55197469 22.4519259,10 23.0025133,10 C23.5531007,10 24,9.55197469 24,9 Z" id="Path"></path>
                        <path d="M24,17 C24,16.4480253 23.5531007,16 23.0025133,16 L22.9915249,16 C22.4418727,16 22,16.4480253 22,17 C22,17.5519747 22.4519259,18 23.0025133,18 C23.5531007,18 24,17.5519747 24,17 Z" id="Path"></path>
                        <path d="M40.9915249,16 C40.4418727,16 40,16.4480253 40,17 C40,17.5519747 40.4508738,18 41.0025133,18 C41.5531007,18 42,17.5519747 42,17 C42,16.4480253 41.5531007,16 41.0025133,16 L40.9915249,16 Z" id="Path"></path>
                    </g>
                </g>
            </g>
        </g>
    </g>
</svg>