<svg xmlns="http://www.w3.org/2000/svg" viewBox="0 0 548 144" width="548" height="144">
	<style>
		tspan { white-space:pre }
		.shp0 { fill: #ffffff } 
	</style>
	<path id="Path 0" fill-rule="evenodd" class="shp0" d="M114.8 -0.02C120.13 -0.03 124.95 0.37 125.5 0.86C126.05 1.36 128.07 2.24 130 2.84C131.92 3.43 135.7 5.85 138.39 8.21C141.08 10.57 144.29 14.52 145.52 17C146.76 19.47 148.32 24.2 149.01 27.5C149.8 31.34 150 36.38 149.57 41.5C149.19 45.9 147.76 52.88 146.38 57C145.01 61.12 142.22 66.96 140.19 69.96C138.16 72.96 134.25 77.26 131.5 79.52C128.75 81.77 123.8 84.7 120.5 86.03C115.38 88.09 112.81 88.45 103 88.47C92.69 88.49 90.99 88.24 86.57 86C83.86 84.62 79.92 81.81 77.82 79.75C75.72 77.69 72.8 73.41 71.34 70.25C69.36 65.94 68.57 62.37 68.21 56C67.89 50.22 68.26 45.1 69.37 40C70.28 35.87 72.41 29.57 74.12 26C75.91 22.24 79.6 17.05 82.86 13.68C86.18 10.26 90.97 6.65 94.5 4.91C97.8 3.29 101.29 1.97 102.25 1.98C103.21 1.99 104.25 1.55 104.55 1C104.86 0.44 109.38 -0.01 114.8 -0.02ZM97.2 23.59C94.83 26.29 92.02 30.86 90.95 33.75C89.88 36.64 88.51 42.04 87.92 45.75C87.14 50.61 87.15 54.04 87.93 58C88.54 61.02 89.92 64.96 91.01 66.75C92.23 68.74 94.84 70.83 97.75 72.13C101.48 73.8 103.58 74.13 107.5 73.63C110.25 73.28 114.19 71.87 116.25 70.5C118.31 69.12 121.36 65.86 123.02 63.25C124.68 60.64 126.81 56.25 127.75 53.5C128.95 49.98 129.47 45.24 129.48 37.5C129.5 28.01 129.21 26.02 127.37 23C126.19 21.07 123.61 18.71 121.62 17.75C119.53 16.74 115.78 16.02 112.75 16.04C109.86 16.06 106.15 16.66 104.5 17.37C102.85 18.09 99.56 20.88 97.2 23.59ZM361.5 0.12C364.8 0.05 370.65 0.7 374.5 1.57C378.35 2.44 384.14 4.35 387.36 5.83C390.85 7.41 394.88 10.33 397.31 13C399.56 15.47 402.29 19.52 403.38 22C404.66 24.9 405.52 29.53 405.8 35C406.1 40.86 405.72 45.52 404.59 50C403.69 53.57 401.73 58.97 400.24 62C398.76 65.02 395.05 70.14 392.02 73.36C388.14 77.48 384.42 80.19 379.5 82.5C375.65 84.3 369.35 86.37 365.5 87.08C361.65 87.8 352.87 88.38 346 88.36C339.12 88.35 331.36 88.04 328.75 87.67C325.15 87.16 324 86.58 323.99 85.25C323.99 84.29 326.66 69.55 329.93 52.5C333.2 35.45 336.58 17.34 339 3L342.25 2.54C344.04 2.29 347.75 1.67 350.5 1.16C353.25 0.65 358.2 0.18 361.5 0.12ZM352.6 31.5C351.21 38.65 348.95 50.57 347.55 58C346.16 65.42 345.01 71.84 345.01 72.25C345 72.66 346.46 73.24 348.25 73.53C350.04 73.82 354.65 73.56 358.5 72.95C362.35 72.34 366.74 71.2 368.25 70.42C369.76 69.64 372.91 67.26 375.25 65.14C377.83 62.79 380.64 58.77 382.4 54.89C384.54 50.16 385.42 46.43 385.79 40.5C386.2 33.78 385.94 31.74 384.14 27.75C382.96 25.14 380.84 21.99 379.43 20.75C378.02 19.51 375.43 17.97 373.68 17.33C371.93 16.68 367.23 16.12 363.23 16.08C358.24 16.02 355.82 16.39 355.53 17.25C355.3 17.94 353.98 24.35 352.6 31.5ZM514 0.12C517.02 0.04 522.87 0.81 527 1.83C531.12 2.85 535.85 4.39 537.5 5.25C539.15 6.11 541.49 7.87 542.69 9.15C543.9 10.44 545.59 13.19 546.44 15.25C547.3 17.31 548 20.69 547.99 22.75C547.99 24.81 547.54 28.19 546.99 30.25C546.45 32.31 544.09 36.09 541.75 38.65C539.41 41.22 535.47 44.17 528.5 47.15L531.19 49.83C532.66 51.3 534.38 53.85 535.01 55.5C535.64 57.15 536.79 64.13 537.57 71C538.35 77.87 539.22 84.51 539.5 85.75C539.99 87.96 539.83 88 530.5 88C522.29 88 520.94 87.76 520.56 86.25C520.32 85.29 519.83 80.45 519.48 75.5C519.12 70.55 518.42 64.81 517.91 62.75C517.41 60.69 515.87 57.87 514.5 56.5C512.47 54.47 511 54 501.5 53.97L495 88L486 88C479.46 88 477 87.66 477.01 86.75C477.02 86.06 479.45 72.9 482.41 57.5C485.36 42.1 488.84 23.94 490.14 17.13C491.44 10.33 492.72 4.38 493 3.9C493.27 3.42 496.87 2.41 501 1.65C505.12 0.89 510.97 0.2 514 0.12ZM506.55 26.8C505.56 32.69 504.59 38.06 504.38 38.75C504.11 39.64 505.51 40 509.25 39.99C512.14 39.99 516.07 39.56 518 39.03C519.92 38.5 522.96 36.59 524.75 34.78C526.65 32.86 528.24 30.05 528.58 28C528.9 26.07 528.68 23.26 528.08 21.75C527.49 20.24 525.99 18.36 524.75 17.58C523.51 16.8 520.47 15.95 518 15.69C515.52 15.44 512.34 15.43 510.92 15.67C508.47 16.08 508.25 16.66 506.55 26.8ZM16.31 2L41.65 2C65.28 2 66.97 2.12 66.59 3.75C66.36 4.71 65.89 7.3 65.53 9.5C65.18 11.7 64.69 14.29 64.45 15.25C64.04 16.83 62.4 17 48 17C39.2 17 32.01 17.11 32.01 17.25C32.02 17.39 31.12 22 30 27.5C28.88 33 27.98 37.61 27.99 37.75C27.99 37.89 34.75 38 58 38L57.54 40.25C57.29 41.49 56.62 44.86 55 53L25 53L24.07 57.75C23.56 60.36 22.1 68.24 18.5 88.03L9.25 88.02C0.17 88 0.01 87.96 0.53 85.75C0.82 84.51 2.34 76.52 3.92 68C5.49 59.47 8.92 41.14 11.54 27.25L16.31 2ZM170.13 2L188.5 2.03L183.74 27.26C181.12 41.14 178.87 55.44 178.74 59.04C178.56 63.89 178.95 66.29 180.25 68.29C181.21 69.78 183.69 71.72 185.75 72.6C188.25 73.66 190.91 73.99 193.75 73.6C196.3 73.24 199.27 71.9 201.17 70.25C202.92 68.74 205.35 65.25 206.57 62.5C207.85 59.62 210.99 45.84 213.97 30C216.82 14.87 219.23 2.39 219.33 2.25C219.42 2.11 223.56 2.11 237.56 2.5L232.79 28C230.16 42.02 227 56.87 225.77 61C224.53 65.12 221.83 71.09 219.76 74.25C217.69 77.41 214.09 81.3 211.75 82.88C209.41 84.47 205.02 86.5 202 87.39C198.97 88.29 193.02 89.02 188.75 89.01C184.33 89 178.96 88.31 176.25 87.4C173.64 86.53 170 84.39 168.16 82.65C166.33 80.92 163.86 77.7 162.68 75.5C160.9 72.17 160.55 69.83 160.56 61.5C160.58 53.92 161.61 46.18 164.83 29.5C167.16 17.4 169.31 6.26 169.6 4.75L170.13 2ZM254.33 2L276 2L277.11 4.75C277.73 6.26 280.89 15.37 284.14 25C287.4 34.62 291.06 46.66 292.28 51.74C293.5 56.82 294.72 60.98 295 60.99C295.27 60.99 296.3 55.26 297.29 48.25C298.27 41.24 300.52 27.96 305.5 1.99L322.5 2.05L321.3 8.77C320.64 12.47 318.24 25.4 315.97 37.5C313.7 49.6 310.62 65.8 306.42 87.5L296.96 87.81C288.57 88.09 287.43 87.92 286.85 86.31C286.5 85.32 283.44 76.62 280.06 67C276.68 57.38 272.58 44.89 270.96 39.25C269.33 33.61 268 28.1 268 27C268 25.9 267.66 25.17 267.25 25.38C266.84 25.59 266.14 27.95 265.71 30.63C265.27 33.31 264 40.67 262.89 47C261.77 53.32 259.73 64.35 258.36 71.5C256.99 78.65 255.68 85.29 255.44 86.25C255.06 87.75 253.76 88 246.5 88C238.21 88 238.01 87.95 238.49 85.75C238.76 84.51 241.01 72.7 243.49 59.5C245.98 46.3 249.43 27.96 251.17 18.75L254.33 2ZM478 2L477.11 5.75C476.61 7.81 475.94 11.19 475 17L442.5 16.96L440.75 25.23C439.79 29.78 439 34.06 439 34.75C439 35.69 442.67 36 454 36C465.34 36 469 36.31 468.99 37.25C468.98 37.94 468.42 41.32 466.5 51.03L451.25 51.01C436.23 51 435.99 51.03 435.54 53.25C435.29 54.49 434.38 59.1 433.53 63.5C432.67 67.9 431.98 71.61 431.99 71.75C431.99 71.89 439.65 72 449 72C464.54 72 466 72.15 465.96 73.75C465.93 74.71 465.35 78.2 463.42 87.5L437.21 87.75C412.81 87.98 411 87.88 411.03 86.25C411.05 85.29 412.13 78.87 413.43 72C414.73 65.12 418.12 47.12 420.95 32C423.78 16.88 426.29 3.94 426.52 3.25C426.85 2.29 432.95 2 478 2ZM21 109.7C22.92 109.99 25.85 110.99 27.5 111.92C29.15 112.85 30.61 114.38 30.75 115.31C30.89 116.24 30.21 117.29 29.25 117.64C28.29 117.99 26.26 117.54 24.75 116.64C23.24 115.74 20.54 115 18.75 115C16.96 115.01 14.04 115.91 12.25 117C10.46 118.1 8.55 120.12 8 121.5C7.45 122.87 7 125.57 7 127.5C7 129.77 7.88 132.06 9.5 134C10.87 135.65 13.69 137.52 15.75 138.15C18.99 139.15 20.11 139.02 24 137.19C27.55 135.52 28.77 135.33 29.79 136.29C30.51 136.95 31.07 138.06 31.04 138.75C31.02 139.44 29.42 140.9 27.5 142C25.17 143.33 22.17 144 18.5 144C13.82 144 12.38 143.52 8.82 140.75C6.34 138.82 3.85 135.67 2.7 133C1.27 129.69 0.94 127.44 1.45 124.5C1.83 122.3 2.89 119.23 3.82 117.68C4.74 116.13 7.07 113.91 9 112.74C10.92 111.58 13.62 110.3 15 109.9C16.37 109.5 19.07 109.41 21 109.7ZM62.5 109.65C64.15 109.98 66.74 110.86 68.25 111.62C69.76 112.38 72.09 114.69 73.43 116.75C74.77 118.81 76.17 122.3 76.54 124.5C76.98 127.19 76.68 129.89 75.6 132.75C74.64 135.31 72.31 138.4 69.75 140.52C65.96 143.66 64.87 144.04 59.75 144.02C56.59 144.01 54 143.66 53.99 143.25C53.99 142.84 52.64 141.71 50.99 140.75C49.35 139.79 47.11 137.09 46.02 134.75C44.93 132.41 44.03 128.81 44.02 126.75C44.01 124.69 44.62 121.54 45.37 119.75C46.13 117.96 47.81 115.49 49.12 114.25C50.43 113.02 53.3 111.34 55.5 110.53C57.73 109.72 60.83 109.33 62.5 109.65ZM49.94 123.75C49.35 125.79 49.36 128.21 49.96 130.25C50.49 132.04 51.73 134.27 52.71 135.2C53.7 136.14 55.85 137.41 57.5 138.04C59.97 138.97 61.19 138.84 64.39 137.33C66.53 136.33 68.89 134.26 69.64 132.75C70.39 131.24 71 128.2 71 126C71 122.76 70.33 121.33 67.5 118.5C64.87 115.87 63.15 115 60.58 115C58.29 115 56.14 115.9 54.02 117.75C52.29 119.26 50.45 121.96 49.94 123.75ZM211 109.08C211.27 109.03 213.86 109.66 216.75 110.49C219.64 111.32 222.39 112.79 222.86 113.75C223.34 114.71 223.57 116.06 223.36 116.75C223.16 117.44 222.44 118.01 221.75 118.02C221.06 118.03 218.92 117.29 217 116.38C214.59 115.23 212.26 114.91 209.5 115.34C207.3 115.68 204.49 116.92 203.26 118.08C202.03 119.24 200.5 121.62 199.86 123.35C198.98 125.73 198.98 127.41 199.85 130.25C200.56 132.57 202.24 134.84 204.25 136.2C206.28 137.57 209 138.39 211.5 138.37C213.7 138.36 216.62 137.6 218 136.68C220.24 135.18 220.71 135.17 222.5 136.51C224.46 137.99 224.42 138.09 221 141.02C217.98 143.61 216.7 144.02 211.75 144.01C207.11 144 205.24 143.47 202.06 141.25C199.89 139.74 197.2 136.92 196.09 135C194.95 133.03 194.05 129.64 194.03 127.25C194.01 124.91 194.79 121.35 195.75 119.33C196.71 117.31 198.85 114.65 200.5 113.41C202.15 112.18 205.07 110.72 207 110.17C208.92 109.63 210.72 109.14 211 109.08ZM96.9 111.18C98.21 112.07 98.43 114.41 98 139L105.5 139C110.61 139 113.13 139.4 113.41 140.25C113.64 140.94 113.53 142.07 113.16 142.76C112.69 143.67 109.85 143.95 93.5 143.5L93.06 127.58C92.71 114.88 92.89 111.49 93.97 110.88C94.72 110.46 96.03 110.59 96.9 111.18ZM128.95 109.98C129.25 109.97 130.07 110.54 130.77 111.23C131.66 112.13 132.03 116.37 132 139L138.75 138.96C143.03 138.93 145.95 139.39 146.73 140.21C147.67 141.2 147.68 141.79 146.78 142.75C146 143.58 142.45 144 136.3 144C128.92 144 126.9 143.69 126.5 142.5C126.22 141.67 125.91 134.56 125.8 126.7C125.64 115.49 125.9 112.14 127 111.2C127.77 110.54 128.65 109.99 128.95 109.98ZM170.11 110C174.45 110 178.67 110.22 179.5 110.5C180.32 110.77 181 111.9 181 113C181 114.1 180.32 115.22 179.5 115.5C178.67 115.77 175.19 116 165.5 116.01L165.77 124.5L172.39 124.75C178.59 124.98 178.98 125.14 178.75 127.25C178.53 129.26 177.82 129.55 165.66 130.5L165.66 138.5L173.08 139C179.67 139.44 180.5 139.72 180.5 141.5C180.5 143.37 179.83 143.5 160.5 143.5L160.05 128.13C159.7 116.31 159.9 112.45 160.91 111.38C161.81 110.43 164.69 110 170.11 110ZM249.47 110.02C254.99 110.02 260.1 110.36 260.82 110.77C261.55 111.17 262 112.4 261.81 113.5C261.54 115.13 260.6 115.55 252 116L251.75 129.75C251.51 142.75 251.39 143.5 249.5 143.5C247.61 143.5 247.49 142.75 247 116L242.75 116.04C240.02 116.07 237.96 115.5 237 114.44C235.66 112.96 235.71 112.64 237.47 111.39C238.85 110.42 242.5 110 249.47 110.02ZM280.48 110.68C281.68 111.13 281.89 114.06 281.72 127.37C281.51 142.76 281.41 143.5 279.5 143.5C277.61 143.5 277.48 142.68 277.05 128.13C276.72 116.89 276.92 112.41 277.82 111.44C278.49 110.72 279.69 110.37 280.48 110.68ZM350 110.05C354.12 110.04 358.1 110.36 358.82 110.77C359.55 111.17 360 112.4 359.81 113.5C359.52 115.26 358.6 115.53 345 116L345 125L351.5 125C355.8 125 358.15 125.42 358.44 126.25C358.68 126.94 358.36 128.06 357.74 128.75C357.08 129.48 354.17 130 345 130L345 139L352.5 139C357.6 139 360.14 139.4 360.44 140.25C360.68 140.94 360.36 142.06 359.74 142.75C358.98 143.58 355.47 144 349.3 144C341.92 144 339.9 143.69 339.5 142.5C339.22 141.67 338.92 134.5 338.83 126.55C338.67 113.22 338.81 112.02 340.58 111.08C341.64 110.52 345.87 110.05 350 110.05ZM298.73 110.97C300.04 110.94 301.78 113.9 305.5 122.47C308.25 128.82 310.61 133.9 310.74 133.76C310.87 133.62 313.12 128.55 315.74 122.5C319.51 113.79 320.91 111.5 322.49 111.5C323.58 111.5 324.58 112.17 324.72 113C324.86 113.82 322.16 121.02 318.74 129C313.74 140.61 312.11 143.5 310.54 143.5C308.96 143.5 307.36 140.59 302.28 128.5C298.82 120.25 296.2 112.94 296.47 112.25C296.73 111.56 297.75 110.98 298.73 110.97Z" />
</svg>