<?xml version="1.0" encoding="UTF-8"?>
<svg width="333px" height="68px" viewBox="0 0 333 68" version="1.1" xmlns="http://www.w3.org/2000/svg" xmlns:xlink="http://www.w3.org/1999/xlink">
    <title>investor1</title>
    <g id="Page-1" stroke="none" stroke-width="1" fill="none" fill-rule="evenodd">
        <g id="Landing/V4.2" transform="translate(-432.000000, -3608.000000)">
            <g id="Group-29" transform="translate(-175.000000, 2994.000000)">
                <g id="Group-27" transform="translate(0.000000, 235.000000)">
                    <g id="Group-15" transform="translate(464.000000, 0.000000)">
                        <g id="investor1" transform="translate(143.000000, 379.000000)">
                            <path d="M0.437976037,0.174636015 C0.288288024,0.291060024 0.202356017,11.387377 0.230076019,27.3513263 L0.277200023,54.3312046 C42.0983675,54.3312046 54.3256606,54.2369566 54.4337686,54.1233046 C54.5418766,54.0096525 50.6028643,49.8932322 45.6797918,44.9757038 L36.7290031,36.036003 L18.5724016,36.036003 L18.5724016,17.8794015 C4.7124004,4.00554034 0.576576049,0.0665280056 0.437976037,0.174636015 Z" id="Path-0" fill="#ED6D5B" fill-rule="nonzero"></path>
                            <path d="M71.24595,18.0817575 C75.6811504,18.1261095 78.7525266,18.2647095 78.7941066,18.4199415 C78.8329146,18.5668576 78.3644466,18.8163376 77.7546065,18.9743416 C77.1447665,19.1351176 76.4878024,19.3596496 76.2993064,19.4733016 C76.0276504,19.6368497 75.9528064,23.262626 75.9528064,52.3908044 L76.7151065,52.6957244 C77.2695065,52.9147125 78.0844746,52.9147125 79.6950067,52.6929524 C80.9146868,52.5238604 82.5363069,52.0886564 83.298607,51.7227524 C84.1385231,51.3208123 85.3138512,50.3672442 86.2868233,49.3000241 C87.3346393,48.146872 88.4351234,46.4642679 89.4746235,44.4240757 C90.9132916,41.5994075 91.1322797,41.3083475 91.8225077,41.3055755 C92.4711558,41.3028035 92.5848078,41.4164555 92.5820846,42.0651035 C92.5792638,42.4836756 92.2660278,45.3222038 91.8862637,48.3714041 C91.5064997,51.4206043 91.1960357,54.0096525 91.1960357,54.1233046 C91.1988077,54.2369566 85.0227912,54.3312046 77.4774065,54.3312046 C66.6887816,54.3312046 63.7560054,54.2563606 63.7504505,53.9847045 C63.7476894,53.7934365 64.2771414,53.5356405 64.9285615,53.4136725 C65.5799815,53.2889325 66.2729816,53.0394525 66.4697936,52.8592724 C66.7580816,52.5959324 66.8273816,49.2307241 66.8162936,36.243903 C66.8079776,22.1482819 66.7497656,19.9029617 66.3894056,19.5426016 C66.1593296,19.3125256 65.4746455,19.0630456 64.8648055,18.9882016 C64.1163654,18.8939536 63.7587774,18.7137736 63.7615494,18.4282576 C63.7643214,18.0623535 64.7151174,18.0180015 71.24595,18.0817575 Z M102.841209,18.0235249 C103.373433,18.0263175 104.340861,18.2757975 104.989509,18.5779456 C105.649245,18.8856376 106.408773,19.5231976 106.716465,20.0277017 C107.018613,20.5238897 107.342937,21.3028218 107.437185,21.7602018 C107.531433,22.2175819 107.534205,22.9965139 107.442729,23.492702 C107.351253,23.98889 106.807941,24.9008781 106.236909,25.5218061 C105.563313,26.2536142 104.809329,26.7470302 104.088609,26.9272103 C103.478769,27.0824423 102.480849,27.1129343 101.871009,26.9992823 C101.261169,26.8856303 100.387988,26.4587422 99.9306084,26.0540302 C99.4732284,25.6465462 98.8717043,24.7650501 98.5917323,24.091454 C98.2452323,23.257082 98.1426683,22.5613099 98.2701803,21.8988018 C98.3699723,21.3638058 98.6776643,20.5543817 98.9493203,20.0970017 C99.2237483,19.6396217 99.9943644,18.9854296 100.659644,18.6417016 C101.324925,18.2979735 102.306213,18.0207735 102.841209,18.0235249 Z M329.660128,18.0318542 C329.77378,18.0235455 329.868028,25.0976901 329.8708,33.7491028 C329.8708,42.5446596 329.984452,49.9070922 330.128596,50.4504042 C330.317092,51.1628083 330.64696,51.5481163 331.373224,51.9057044 C331.919308,52.1718164 332.487568,52.3908044 332.640028,52.3908044 C332.792488,52.3908044 332.917228,52.5155444 332.917228,52.6680044 C332.917228,52.8204644 332.761996,53.0255925 332.570728,53.1253845 C332.37946,53.2251765 330.103648,53.6603805 327.511828,54.0928126 C324.920007,54.5252446 322.644195,54.8800606 322.452927,54.8828326 C322.203447,54.8856046 322.106427,54.2314126 322.106427,50.1732042 L320.651127,51.6700843 C319.697559,52.6486004 318.527775,53.4802005 317.255427,54.0734085 C315.694791,54.8052166 314.962982,54.9853966 313.513226,54.9883013 C312.066242,54.9937126 311.35661,54.8273926 309.909626,54.1399366 C308.803598,53.6132565 307.69757,52.8149204 307.043378,52.0747964 C306.458486,51.4095163 305.679554,50.2729962 305.310878,49.5495042 C304.942202,48.8260121 304.45433,47.514856 304.224254,46.6389039 C303.99695,45.7629518 303.808454,44.2660717 303.808454,43.3125036 C303.811226,42.3589356 303.952598,40.9258114 304.124462,40.1247034 C304.296326,39.3235953 304.714898,38.0457032 305.053082,37.2834031 C305.391266,36.5211031 306.161882,35.273703 306.763406,34.5114029 C307.36493,33.7491028 308.662226,32.5876347 309.646286,31.9306707 C310.630346,31.2737066 312.24365,30.4809146 313.236026,30.1704505 C314.41967,29.7990025 315.797355,29.6049625 317.255427,29.6049625 C318.602619,29.6049625 319.963671,29.7823705 320.720427,30.0540265 C321.405111,30.3007345 321.998319,30.5003186 322.037127,30.4975466 C322.075935,30.4947746 322.111971,28.8398904 322.117515,26.8191023 C322.128603,24.149666 322.034355,23.0602699 321.771015,22.8274219 C321.574203,22.6527859 320.881203,22.3423219 320.229783,22.1344219 C319.578363,21.9292938 319.029507,21.6909018 319.010103,21.6049698 C318.993471,21.5190378 321.333039,20.6846657 324.215919,19.7477297 C327.096028,18.8107936 329.546476,18.0374055 329.660128,18.0318542 Z M313.859726,33.0283828 C313.499366,33.5384308 312.997634,34.6416869 312.745382,35.481603 C312.418286,36.5571391 312.279686,38.0651072 312.274142,40.6098034 C312.268598,43.2321156 312.393338,44.6292038 312.737066,45.7380038 C312.994862,46.5751479 313.499366,47.697808 313.856954,48.2328041 C314.214542,48.7650281 314.940806,49.4885202 315.467487,49.8350202 C316.141083,50.2785402 316.831311,50.4670362 317.809827,50.4670362 C318.788343,50.4670362 319.475799,50.2813122 320.149395,49.8350202 C320.676075,49.4885202 321.360759,48.7650281 321.673995,48.2328041 C322.206219,47.329132 322.245027,46.8246279 322.245027,40.7484034 C322.245027,34.5973349 322.211763,34.1787629 321.657363,33.2640028 C321.324723,32.7179188 320.537475,32.0221467 319.855563,31.6728747 C319.187511,31.3319186 318.142467,31.0519466 317.532627,31.0491504 C316.922787,31.0464026 315.994167,31.2820226 315.470259,31.5730827 C314.943578,31.8641427 314.220086,32.5183347 313.859726,33.0283828 Z M150.588913,18.3201495 C151.040749,18.2979735 151.074013,18.8329696 151.065697,25.9875022 C151.062925,30.2175745 151.154401,33.7685068 151.273597,33.8766148 C151.392793,33.9819509 152.049757,33.4940788 152.737213,32.7899908 C153.463477,32.0415507 154.738597,31.1572826 155.786413,30.6721826 C156.989461,30.1150105 158.186965,29.7962305 159.390013,29.7075265 C160.920158,29.5966465 161.42189,29.6853505 162.716414,30.2951905 C163.553558,30.6915866 164.432282,31.1766866 164.667902,31.3762706 C164.90075,31.5758547 165.360902,32.1136227 165.685226,32.5710027 C166.012322,33.0283828 166.475246,34.1510429 166.71641,35.0658029 C167.065682,36.3908191 167.154386,38.2896392 167.154386,44.4213037 C167.151614,48.9978761 167.262494,52.3381364 167.428814,52.6680044 C167.625626,53.0588565 168.071918,53.2639845 168.953414,53.3610045 C169.815506,53.4580245 170.200814,53.6271165 170.200814,53.9154045 C170.200814,54.2729926 169.277738,54.3312046 163.548014,54.3312046 C157.818289,54.3312046 156.895213,54.2729926 156.895213,53.9154045 C156.895213,53.6520645 157.250029,53.4497085 157.865413,53.3610045 C158.453077,53.2778445 159.001933,52.9756965 159.256957,52.5987044 C159.614545,52.0720244 159.669985,50.8357123 159.603457,44.5793077 C159.531385,37.5744632 159.498121,37.1420311 158.949265,36.4019071 C158.630485,35.972247 157.943029,35.329143 157.424665,34.9715549 C156.665137,34.4504189 156.193897,34.3423109 155.032429,34.4171549 C153.815521,34.4975429 153.427441,34.6666349 152.598613,35.481603 C152.008177,36.063723 151.509217,36.8953231 151.351213,37.5606032 C151.207069,38.1704432 151.082329,41.6631635 151.079557,45.3222038 C151.071241,50.7996763 151.143313,52.0858844 151.487041,52.5987044 C151.767013,53.0145045 152.277061,53.2695285 153.014413,53.3610045 C153.754537,53.4524805 154.123213,53.6382045 154.123213,53.9154045 C154.123213,54.2729926 153.200137,54.3312046 147.470412,54.3312046 C141.740688,54.3312046 140.817612,54.2729926 140.817612,53.9154045 C140.817612,53.6659245 141.177972,53.4303045 141.718512,53.3277405 C142.2147,53.2362645 142.780188,53.0172765 142.977,52.8426404 C143.262516,52.5931604 143.33736,49.5910842 143.334588,38.2536032 C143.331816,24.7290141 143.304096,23.941766 142.81068,23.284802 C142.525164,22.9022659 141.893148,22.4033059 141.405276,22.1760019 C140.917404,21.9459258 140.526552,21.6964458 140.53741,21.6216018 C140.548728,21.5439858 142.705344,20.7761417 145.330428,19.9140497 C147.955512,19.0519576 150.322801,18.3340095 150.588913,18.3201495 Z M183.068439,24.180158 L183.367815,30.3534026 L189.97072,30.6306026 L187.110016,33.8184028 L183.229215,33.8184028 L183.298515,41.2335035 C183.362271,48.091432 183.409395,48.7206761 183.927759,49.6188042 C184.290892,50.2535922 184.964488,50.8190803 185.86816,51.2487403 C187.11556,51.8474924 187.370584,51.8807564 188.496016,51.5869243 C189.491164,51.3263563 189.784996,51.3319003 189.954088,51.6174163 C190.087144,51.8447204 189.834892,52.2549764 189.261088,52.7456204 C188.7649,53.1697365 187.858456,53.7601725 187.248616,54.0567765 C186.638776,54.3506086 185.45236,54.7248286 184.615216,54.8828326 C183.500871,55.0962766 182.680359,55.0851886 181.566015,54.8440246 C180.662343,54.6472126 179.589579,54.1593406 178.932615,53.6437485 C178.322775,53.1669645 177.538299,52.3464524 177.189027,51.8225444 C176.839755,51.2958643 176.435043,50.4282282 176.288127,49.8960042 C176.143983,49.3610082 176.024787,45.5273318 176.022015,33.8184028 L173.527215,33.8184028 C172.155074,33.8184028 171.032414,33.7241548 171.035181,33.6105028 C171.037958,33.4968508 171.672746,32.7484108 172.448907,31.9473027 C173.469003,30.8967146 174.064983,30.4947746 174.594435,30.5030906 C174.999147,30.5114066 175.475931,30.3561746 175.656111,30.1565905 C175.836291,29.9597785 176.024787,29.0616504 176.160615,26.5169542 L179.614527,25.3471701 L183.068439,24.180158 Z M136.521011,29.2113385 C136.673471,29.2556905 136.922952,29.6908945 137.075412,30.1759945 C137.338752,31.0131386 137.277768,31.1295626 135.888995,32.5072467 C134.428151,33.9542309 134.425379,33.9597749 134.846723,34.7886029 C135.079571,35.245983 135.268067,36.3048871 135.268067,37.1448031 C135.265295,37.9819472 135.115607,39.1683633 134.932655,39.7782033 C134.724755,40.4767474 134.034527,41.4580355 133.067099,42.4337796 C131.988791,43.5204037 131.057399,44.1607357 129.937511,44.5820798 C129.061559,44.9119478 127.500923,45.3055718 126.472511,45.4524878 C125.444099,45.6021758 123.767038,45.6326678 122.746942,45.5217878 C121.008898,45.3360638 120.84535,45.3665558 120.174526,46.0152039 C119.739322,46.4365479 119.462122,47.00758 119.464894,47.470504 C119.470438,47.905708 119.769814,48.5294081 120.16621,48.9258041 C120.85921,49.6188042 120.861982,49.6188042 126.333911,49.6160322 C130.436471,49.6132602 132.155111,49.7158242 133.194611,50.0318322 C133.956911,50.2619082 135.049079,50.7636403 135.620111,51.1434043 C136.191143,51.5259403 137.000568,52.4296124 137.416368,53.1531045 C138.045612,54.2480446 138.173124,54.7969006 138.16775,56.4102047 C138.162036,57.8904529 137.992944,58.7137369 137.457948,59.875205 C137.07264,60.7123491 136.329743,61.8904492 135.808607,62.4892013 C135.284699,63.0879533 134.109371,64.0609254 133.194611,64.6485894 C132.279851,65.2390255 130.533491,66.0429056 129.313811,66.4365296 C127.550819,67.0047896 126.356087,67.1794257 123.49261,67.2819897 C120.806542,67.3790097 119.359558,67.2986217 117.81001,66.9632096 C116.665174,66.7165016 115.201558,66.2064536 114.55291,65.8294615 C113.754574,65.3637655 113.197402,64.7622414 112.825953,63.9639054 C112.523805,63.3152573 112.274325,62.4420773 112.27152,62.0235052 C112.268781,61.6049332 112.440645,60.9174771 112.656861,60.4989051 C112.873077,60.0803331 113.40253,59.406737 113.834962,59.004797 C114.267394,58.6000849 115.49539,57.8350129 116.56261,57.3055608 C118.439254,56.3713967 118.47529,56.3353607 117.67141,56.1690407 C117.21403,56.0747927 116.277094,55.6340447 115.59241,55.1877526 C114.87169,54.7192846 114.065038,53.8710525 113.67973,53.1752805 C113.155822,52.2300284 113.039398,51.6728563 113.12533,50.5501963 C113.20849,49.4718882 113.446882,48.8648201 114.098302,48.055396 C114.577858,47.459416 115.775362,46.5557439 116.795458,46.0152039 C117.807238,45.4802078 118.630522,44.9812478 118.62775,44.9064038 C118.624978,44.8287878 117.97633,44.3935837 117.18631,43.9362037 C116.266006,43.4039797 115.464898,42.6555396 114.965938,41.8572035 C114.430942,41.0006554 114.13711,40.0886674 114.02623,38.9466033 C113.940298,38.0318432 114.006826,36.7539511 114.175918,36.105303 C114.34501,35.456655 114.888322,34.4032949 115.38451,33.7657348 C115.880698,33.1254028 116.78437,32.2161867 117.39421,31.7421747 C118.00405,31.2681626 119.37619,30.5862506 120.44341,30.2286625 C121.923658,29.7324745 122.974246,29.5827865 124.878611,29.5911025 C126.807923,29.5994185 127.861283,29.7657385 131.670011,31.0464026 L133.956911,30.0900625 C135.215399,29.5633825 136.368551,29.1669865 136.521011,29.2113385 Z M122.073346,33.1254028 C121.790602,33.8544388 121.638142,35.229351 121.624282,37.1448031 C121.610422,38.7442473 121.743478,40.6791034 121.920886,41.4414035 C122.109382,42.2702316 122.544586,43.1378676 123.004738,43.6007917 C123.550822,44.1524197 124.044238,44.3714077 124.74001,44.3714077 C125.280551,44.3714077 126.048395,44.1219277 126.472511,43.8059197 C126.891083,43.4982277 127.387271,42.7747356 127.570223,42.2037036 C127.755947,41.6326715 127.911179,39.7920633 127.916723,38.1150032 C127.922267,36.4379431 127.769807,34.5030869 127.578539,33.8184028 C127.384499,33.1309468 126.949295,32.2938027 126.608339,31.9583907 C126.267383,31.6202067 125.613191,31.2764786 125.155811,31.1905466 C124.62913,31.0935266 123.988798,31.2182666 123.412222,31.5259587 C122.81347,31.8475107 122.353318,32.3991387 122.073346,33.1254028 Z M119.201554,58.1704249 C118.622206,58.924409 118.50301,59.381789 118.50301,60.8426331 C118.50301,62.2092292 118.636066,62.7830333 119.090674,63.3901013 C119.414998,63.8197614 120.016522,64.4212854 120.42955,64.7262054 C121.069882,65.2002175 121.604878,65.2806055 124.138486,65.2722895 C126.514091,65.2639735 127.423307,65.1392335 128.759411,64.6375014 C129.674171,64.2937734 130.827323,63.7061094 131.323511,63.3291173 C131.819699,62.9548973 132.435083,62.3034772 132.692879,61.8849052 C132.953447,61.4663332 133.164119,60.6846291 133.164119,60.1524051 C133.164119,59.617409 132.953447,58.8384769 132.692879,58.4199049 C132.435083,58.0013329 131.755943,57.4469328 131.184911,57.1891368 C130.394891,56.8315488 129.150263,56.6984928 125.987411,56.6291928 C123.051862,56.5654368 121.546666,56.6458248 120.864754,56.9008488 C120.335302,57.1004328 119.586862,57.6714649 119.201554,58.1704249 Z M204.712217,29.5578385 C205.474517,29.6243665 206.907641,29.8128625 207.900017,29.9764105 C209.31651,30.2120305 209.95407,30.1953985 210.874374,29.8987945 C211.52025,29.6908945 212.096826,29.5827865 212.15781,29.6604025 C212.218794,29.7352465 212.315814,31.5758547 212.473818,37.6992032 L211.780818,37.7102912 C211.207014,37.7213792 210.727458,37.2085591 209.003274,34.7331629 C207.672713,32.8204828 206.619353,31.6008027 206.092673,31.3540946 C205.638065,31.1434226 204.828641,30.9133466 204.296417,30.8385026 C203.753105,30.7664306 202.805081,30.9050306 202.148117,31.1545106 C201.363641,31.4511146 200.831417,31.8780027 200.554217,32.4324027 C200.324141,32.8897828 200.138417,33.7629628 200.138417,34.3728029 C200.138417,35.140647 200.340773,35.714451 200.795381,36.243903 C201.158513,36.6624751 202.186925,37.3416151 203.082281,37.7546432 C203.980409,38.1648992 205.895861,39.0048153 207.345617,39.6174273 C208.792602,40.2328114 210.527874,41.2057835 211.195926,41.7823595 C211.863978,42.3561636 212.659542,43.3263636 212.958918,43.9362037 C213.258294,44.5460437 213.568758,45.6049478 213.646374,46.2924039 C213.732306,47.029756 213.61311,48.1635041 213.355314,49.0644041 C213.089202,49.9930242 212.507082,51.0602443 211.863978,51.7975964 C211.237506,52.5155444 210.13425,53.3277405 209.147418,53.7962085 C208.232658,54.2286406 206.672021,54.7276006 205.682417,54.9022366 C204.601337,55.0935046 202.938137,55.1461726 201.524417,55.0352926 C200.227121,54.9327286 198.605501,54.7359166 197.920817,54.5945446 C197.233361,54.4531726 195.947152,54.1177606 193.452352,53.3610045 L193.599268,51.9750044 C193.679656,51.2127043 193.812712,49.7463162 193.8931,48.7179041 C193.973488,47.689492 194.164756,46.8468039 194.317216,46.8468039 C194.469676,46.8468039 194.78014,46.7830479 195.010216,46.7082039 C195.304048,46.6111839 195.705988,47.121232 196.371269,48.4407041 C196.889633,49.4691162 197.796077,50.8606603 198.380969,51.5287123 C198.965861,52.1967644 199.913885,52.9784685 200.484917,53.2612125 C201.125249,53.5799925 202.137029,53.7795765 203.118317,53.7851205 C204.321365,53.7906645 204.950609,53.6354325 205.682417,53.1558765 C206.214641,52.8066044 206.866061,52.0858844 207.126629,51.5564323 C207.500849,50.7913603 207.542429,50.3589282 207.334529,49.4802042 C207.190385,48.8703641 206.852201,48.138556 206.583317,47.855812 C206.317205,47.573068 205.535501,47.057476 204.850817,46.7082039 C204.163361,46.3589319 202.480757,45.6215798 201.108617,45.0671798 C199.736477,44.5155517 197.959625,43.6285117 197.158517,43.0990596 C196.240985,42.4919916 195.420472,41.6465315 194.940916,40.8177034 C194.286724,39.6894993 194.181388,39.2043993 194.195248,37.4220031 C194.206336,35.891859 194.361568,35.0491709 194.782912,34.2342029 C195.096148,33.6243628 195.775288,32.6985148 196.290881,32.1773787 C196.806473,31.6562427 197.851517,30.9410666 198.613817,30.5890226 C199.376117,30.2342065 200.748257,29.8322665 201.663017,29.6908945 C202.577777,29.5495225 203.949917,29.4885385 204.712217,29.5578385 Z M264.033022,29.5883305 C264.947782,29.6631745 266.380906,29.9680945 267.220822,30.2619265 C268.057967,30.5585306 269.180627,31.1517386 269.715623,31.5813987 C270.247847,32.0110587 271.054499,33.0311548 271.500791,33.8516668 C272.157755,35.0491709 272.349023,35.800383 272.626223,39.9833314 L257.657422,39.7782033 L257.565946,40.4712034 C257.51605,40.8509674 257.618614,41.9736275 257.796022,42.9660036 C257.970658,43.9556077 258.386458,45.3776438 258.719098,46.1233119 C259.048966,46.8689799 259.880566,48.002728 260.568022,48.6402881 C261.252706,49.2778481 262.314382,49.9736202 262.924222,50.1842922 C263.534062,50.3949642 264.781462,50.5612843 265.696222,50.5557403 C266.730178,50.5501963 267.830663,50.3367522 268.606823,49.9930242 C269.291507,49.6908762 270.322691,48.9840161 270.893723,48.4213001 C271.464755,47.861356 272.057963,47.462188 272.210423,47.539804 C272.376743,47.622964 272.249231,48.1551881 271.897187,48.8565041 C271.570091,49.5051522 270.915899,50.5224762 270.441887,51.1156843 C269.965103,51.7116643 269.078063,52.5432644 268.468223,52.9673805 C267.858383,53.3887245 266.796706,53.9403525 266.112022,54.1953766 C265.424566,54.4476286 263.991442,54.7691806 262.924222,54.9077806 C261.70177,55.0657846 260.368438,55.0574686 259.320622,54.8828326 C258.405862,54.7303726 256.908982,54.2563606 255.994222,53.8267005 C255.068373,53.3914965 253.715637,52.4240684 252.945021,51.6479083 C252.182721,50.8772923 251.215293,49.5439602 250.796721,48.6874121 C250.378149,47.828092 249.893049,46.4698119 249.721185,45.6687038 C249.546549,44.8592798 249.471705,43.1683596 249.552093,41.8572035 C249.635253,40.4961514 249.937401,38.8578993 250.264497,37.9764032 C250.577733,37.1364871 251.376069,35.703363 252.041349,34.7886029 C252.745437,33.8156308 253.931853,32.6597067 254.896509,32.0027427 C255.805726,31.3845866 257.233306,30.6472346 258.073222,30.3672626 C258.910366,30.0845185 260.221522,29.7629665 260.983822,29.6493145 C261.746122,29.5384345 263.118262,29.5107145 264.033022,29.5883305 Z M259.23469,32.6098107 C258.926998,33.0450148 258.54169,33.7463308 258.37537,34.1649029 C258.20905,34.5834749 257.978974,35.611887 257.865322,36.4490311 L257.657422,37.9680872 L265.557622,37.9764032 C265.557622,36.257763 265.410706,35.104611 265.233298,34.3035029 C265.047574,33.4774468 264.59851,32.5155627 264.193798,32.0775867 C263.761366,31.6091187 263.093314,31.2515306 262.508422,31.1739146 C261.973426,31.1018426 261.144598,31.2154946 260.665042,31.4289386 C260.185486,31.6423827 259.542382,32.1746067 259.23469,32.6098107 Z M290.921424,29.5883305 C291.836185,29.6631745 293.269309,29.9680945 294.109225,30.2619265 C294.946369,30.5585306 296.069029,31.1517386 296.604025,31.5813987 C297.136249,32.0110587 297.942901,33.0311548 298.391965,33.8516668 C299.046157,35.0491709 299.237425,35.800383 299.514625,39.9861034 L292.088437,39.8835394 C284.850744,39.7809753 284.656704,39.7920633 284.507016,40.3326034 C284.423856,40.6375234 284.4987,41.7601835 284.67888,42.8274036 C284.856288,43.8946237 285.27486,45.3776438 285.6075,46.1233119 C285.937368,46.8689799 286.768968,48.002728 287.456424,48.6402881 C288.141108,49.2778481 289.202784,49.9736202 289.812624,50.1842922 C290.422464,50.3949642 291.669865,50.5612843 292.584625,50.5557403 C293.618581,50.5501963 294.719065,50.3367522 295.495225,49.9930242 C296.179909,49.6908762 297.211093,48.9840161 297.782125,48.4213001 C298.353157,47.861356 298.946365,47.462188 299.098825,47.539804 C299.265145,47.622964 299.137633,48.1551881 298.785589,48.8565041 C298.458493,49.5051522 297.804301,50.5224762 297.330289,51.1156843 C296.853505,51.7116643 295.966465,52.5432644 295.356625,52.9673805 C294.746785,53.3887245 293.685109,53.9403525 293.000425,54.1953766 C292.312969,54.4476286 290.879844,54.7691806 289.812624,54.9077806 C288.590172,55.0657846 287.25684,55.0574686 286.209024,54.8828326 C285.294264,54.7303726 283.797384,54.2563606 282.882624,53.8267005 C281.956776,53.3914965 280.60404,52.4240684 279.833424,51.6479083 C279.071123,50.8772923 278.103695,49.5439602 277.685123,48.6874121 C277.266551,47.828092 276.781451,46.4698119 276.609587,45.6687038 C276.434951,44.8592798 276.360107,43.1683596 276.440495,41.8572035 C276.523655,40.4961514 276.825803,38.8578993 277.152899,37.9764032 C277.466135,37.1364871 278.264471,35.703363 278.929751,34.7886029 C279.63384,33.8156308 280.820256,32.6597067 281.784912,32.0027427 C282.694128,31.3845866 284.121708,30.6472346 284.961624,30.3672626 C285.798768,30.0845185 287.109924,29.7629665 287.872224,29.6493145 C288.634524,29.5384345 290.006664,29.5107145 290.921424,29.5883305 Z M285.832032,33.5467468 C285.341388,34.3977509 284.864604,35.708907 284.750952,36.5238751 L284.545824,37.9847192 L292.584625,37.9819472 C292.315741,34.8634469 292.046857,33.5827828 291.816781,33.1254028 C291.583933,32.6680227 291.162588,32.0775867 290.879844,31.8114747 C290.5971,31.5481347 289.929048,31.2598466 289.396824,31.1739146 C288.731544,31.0685786 288.15774,31.1766866 287.570076,31.5231867 C287.096064,31.8003867 286.317132,32.7123748 285.832032,33.5467468 Z M106.652709,29.6797224 C106.924365,29.6631745 106.999209,32.1080787 106.999209,41.0256035 C106.999209,49.7435442 107.079597,52.4739644 107.345709,52.7456204 C107.536977,52.9396605 108.221661,53.1891405 108.870309,53.3000205 C109.518957,53.4109005 110.048409,53.6243445 110.048409,53.7768045 C110.048409,53.9458965 108.823185,54.0540045 106.929909,54.0540045 C105.214041,54.0540045 102.095541,54.1454806 99.9999084,54.2619046 C96.4739241,54.4531726 96.1856361,54.4337686 96.1883886,53.9847045 C96.1883886,53.6271165 96.4794681,53.4635685 97.2972082,53.3610045 C97.9070482,53.2833885 98.5917323,53.0339085 98.8218083,52.8066044 C99.1766243,52.4517884 99.2265203,51.1129123 99.0990083,34.8800789 L98.2674083,34.1260949 C97.8100282,33.7102948 97.2473122,33.3028108 97.0200082,33.2168788 C96.7899321,33.1309468 96.6651921,32.9951188 96.7428081,32.9147308 C96.8176521,32.8315708 99.0019883,32.0748147 101.593809,31.2321266 C104.185629,30.3866666 106.461441,29.6881225 106.652709,29.6797224 Z M227.096119,29.6659405 C227.209771,29.6631745 227.301247,30.6278306 227.295703,31.8087027 C227.292931,32.9895748 227.353915,34.0179869 227.431531,34.0956029 C227.509147,34.1704469 228.260359,33.5800108 229.103047,32.7789028 C229.942963,31.9777947 231.284611,30.9937346 232.08572,30.5917946 C232.969988,30.1482745 234.195212,29.8073185 235.20422,29.7213865 C236.318564,29.6299105 237.3248,29.7297025 238.25342,30.0318505 C239.01572,30.2757865 240.188276,30.9493826 240.8591,31.5231867 C241.532696,32.0997627 242.422508,33.0699628 242.843852,33.6798028 C243.262424,34.2896429 243.927705,35.756031 244.324101,36.9369031 C244.908993,38.6804913 245.044821,39.6091113 245.044821,41.8572035 C245.044821,43.7338477 244.886817,45.1447958 244.551405,46.2231039 C244.279749,47.099056 243.625556,48.4933721 243.096104,49.3194281 C242.566652,50.1454842 241.571504,51.3069523 240.88682,51.9001604 C240.199364,52.4961404 239.01572,53.2833885 238.25342,53.6492925 C237.49112,54.0151965 236.11898,54.5058406 235.20422,54.7386886 C234.28946,54.9743086 232.79258,55.1655766 231.87782,55.1683486 C230.963059,55.1683486 229.590919,54.9826246 228.828619,54.7525486 C228.066319,54.5252446 227.412127,54.3367486 227.373319,54.3339766 C227.334511,54.3312046 227.301247,56.8564968 227.295703,59.944505 C227.287387,64.9784575 227.337283,65.6049295 227.780803,66.0207296 C228.052459,66.2729816 228.742687,66.5529536 229.313719,66.6444296 C229.981771,66.7469936 230.353219,66.9548936 230.353219,67.2210057 C230.353219,67.5785937 229.399651,67.6368057 223.423219,67.6368057 C216.98109,67.6368057 216.498762,67.6035417 216.56529,67.1517056 C216.615186,66.8190656 216.936738,66.6388856 217.60479,66.5751296 C218.137014,66.5252336 218.793978,66.2757536 219.065634,66.0207296 C219.528558,65.5882975 219.55905,64.6070094 219.550734,50.7969043 C219.542418,38.3062712 219.478662,35.886315 219.126618,35.0658029 C218.896542,34.5308069 218.306106,33.8516668 217.809918,33.5522908 C217.150182,33.1531228 217.019898,32.9673988 217.324818,32.8565188 C217.552122,32.7705868 219.797442,32.0193747 222.314419,31.1877746 C224.828623,30.3534026 226.982467,29.6687185 227.096119,29.6659405 Z M228.157795,35.736627 L227.442619,36.6846511 C227.312335,49.3748682 227.362231,50.2924002 227.789119,51.1849843 C228.055231,51.7393844 228.648439,52.4545604 229.105819,52.7677964 C229.593691,53.1032085 230.511223,53.3804085 231.323419,53.4358485 C232.36292,53.5079205 232.933952,53.3887245 233.61032,52.9618365 C234.106508,52.6486004 234.810596,51.9860924 235.1765,51.4899043 C235.542404,50.9937163 236.041364,49.9957962 236.2853,49.2723041 C236.529236,48.5488121 236.848016,46.8024519 236.99216,45.3915038 C237.150164,43.8502717 237.155708,41.9985755 237.008792,40.7484034 C236.872964,39.6035673 236.559728,38.1066872 236.315792,37.4220031 C236.071856,36.7345471 235.534088,35.817015 235.12106,35.379039 C234.710804,34.9410629 233.967908,34.4088389 233.47172,34.2009389 C232.975532,33.9902669 232.166108,33.8211748 231.669919,33.8239132 C231.173731,33.8294908 230.342131,34.0457069 229.820995,34.3090469 C229.299859,34.5723869 228.551419,35.215491 228.157795,35.736627 Z" id="Path-1" fill="#FFFFFF"></path>
                        </g>
                    </g>
                </g>
            </g>
        </g>
    </g>
</svg>