<?xml version="1.0" encoding="UTF-8"?>
<svg width="157px" height="52px" viewBox="0 0 157 52" version="1.1" xmlns="http://www.w3.org/2000/svg" xmlns:xlink="http://www.w3.org/1999/xlink">
    <title>investor2</title>
    <defs>
        <filter id="filter-1">
            <feColorMatrix in="SourceGraphic" type="matrix" values="0 0 0 0 1.000000 0 0 0 0 1.000000 0 0 0 0 1.000000 0 0 0 1.000000 0"></feColorMatrix>
        </filter>
    </defs>
    <g id="Page-1" stroke="none" stroke-width="1" fill="none" fill-rule="evenodd">
        <g id="Landing/V4.2" transform="translate(-849.000000, -3615.000000)">
            <g id="Group-29" transform="translate(-175.000000, 2994.000000)">
                <g id="Group-27" transform="translate(0.000000, 235.000000)">
                    <g id="Group-15" transform="translate(464.000000, 0.000000)">
                        <g id="investor2" transform="translate(143.000000, 379.000000)" filter="url(#filter-1)">
                            <g transform="translate(417.648019, 7.392000)">
                                <path d="M139.578408,42.2060294 C139.578408,42.2060294 139.697161,42.5157173 139.971921,43.2398746 C137.911216,46.1551316 133.536002,50.5513019 125.700667,50.5513019 C119.094769,50.5513019 112.849786,46.3157967 110.216275,39.8915202 C109.454862,38.0380501 109.056692,36.1077402 108.984509,34.1844156 C108.984509,34.1797587 108.984509,34.1751017 108.984509,34.1704448 C108.972946,33.8654139 108.970538,33.560383 108.975195,33.2553521 C108.975195,33.2134395 108.977523,33.1715268 108.979852,33.1272857 C108.984509,32.8990946 108.996151,32.6709036 109.010122,32.4427126 C109.019436,32.3099892 109.02875,32.1795943 109.042721,32.0491994 C109.054363,31.8978482 109.070663,31.746497 109.086962,31.5951458 C109.117232,31.3483269 109.149831,31.101508 109.189415,30.8570176 C109.198729,30.8081196 109.203386,30.7592215 109.2127,30.7103234 C110.379268,23.7365256 115.813941,17.5846813 123.977592,16.5927488 C125.786821,16.3738717 127.65659,16.5578216 128.136257,16.627676 C128.261995,16.6439754 128.390062,16.6649317 128.525113,16.685888 C131.279705,17.1329562 133.375337,18.0131217 134.963361,19.0888795 C136.586311,20.1553233 138.060239,21.647879 138.968346,23.7318687 C139.899738,25.7040913 139.971921,27.3037571 139.971921,27.3037571 L116.808202,33.0620883 C116.817516,33.2227534 116.833815,33.3787615 116.847786,33.5347697 C116.859428,33.6581791 116.871071,33.7792601 116.885042,33.9003411 C116.905998,34.088948 116.929283,34.2752264 116.954896,34.4591763 C116.971195,34.5732718 116.989823,34.6873673 117.008451,34.7991344 C117.057349,35.1134792 117.115561,35.4208385 117.180759,35.7258694 C117.201715,35.830651 117.225,35.9377611 117.248285,36.0425427 C117.290197,36.2218357 117.334438,36.3988002 117.383336,36.5757647 C117.40895,36.6735608 117.436891,36.771357 117.467162,36.8691531 C117.509074,37.0205043 117.550987,37.1718555 117.599885,37.3185498 C117.641798,37.4489447 117.686039,37.5746826 117.73028,37.702749 L117.720966,37.707406 C118.270487,39.3187142 119.00163,40.7251161 119.993562,41.8614144 C126.653015,49.4732157 137.927516,45.4612445 139.578408,42.2060294 Z M131.947979,20.5697928 C131.738416,20.0971113 131.477626,19.6547001 131.158624,19.2518731 C130.241203,18.1016039 128.797546,17.5264693 126.825323,17.5264693 C125.370023,17.5264693 124.031147,17.9036831 122.811023,18.6534537 C121.5909,19.4055527 120.53377,20.4137846 119.641962,21.6828062 C118.750154,22.9494994 118.044625,24.4280842 117.530031,26.1185607 C117.271569,26.963799 117.078305,27.836979 116.947911,28.7404293 C116.947911,28.7427578 116.947911,28.7474147 116.947911,28.7497432 C116.919969,28.9336931 116.899013,29.1223 116.878056,29.3085784 C116.864085,29.4436303 116.850114,29.5810106 116.838472,29.7160624 C116.833815,29.767289 116.829158,29.820844 116.824501,29.8720706 C116.791902,30.2842116 116.770946,30.698681 116.763961,31.1224644 L130.518292,27.7019272 C132.793217,26.9521566 132.8817,22.937857 131.947979,20.5697928 Z M79.0938104,43.2398746 C77.0331055,46.1551316 72.6578915,50.5513019 64.8225562,50.5513019 C58.2166582,50.5513019 51.9716748,46.3157967 49.3381638,39.8915202 C45.0048624,29.3295347 52.355874,16.2690901 65.7609336,16.4902957 C67.3117013,16.5135805 75.7757263,17.4170308 78.3137696,24.28139 L71.3003877,25.9788519 C71.3003877,25.9788519 71.3003877,25.9788519 71.3003877,25.9788519 C71.5355641,25.3222206 71.6519881,24.5235519 71.6519881,23.582846 C71.6519881,21.8457998 71.1956061,20.4021422 70.2781849,19.2518731 C69.3630923,18.1016039 67.9194346,17.5264693 65.947212,17.5264693 C64.491912,17.5264693 63.153036,17.9013546 61.9329124,18.6534537 C60.7127889,19.4055527 59.6556589,20.4137846 58.7638511,21.6828062 C57.8720432,22.9494994 57.1665137,24.4280842 56.6519197,26.1185607 C56.1326686,27.8090373 55.8765358,29.6182663 55.8765358,31.5415908 C55.8765358,33.6558507 56.1582819,35.5931461 56.7217741,37.353477 C57.2852662,39.1138079 58.0513362,40.6436193 59.1154515,41.8614144 C65.7749045,49.4708872 77.0494049,45.4612445 78.7002973,42.2060294 C78.7002973,42.2060294 78.8190497,42.5157173 79.0938104,43.2398746 Z M109.592242,43.2398746 C107.531537,46.1551316 103.153995,50.5513019 95.3186594,50.5513019 C88.71509,50.5513019 82.467778,46.3157967 79.834267,39.8915202 C75.5032942,29.3295347 82.8543057,16.2690901 96.2593653,16.4902957 C97.8078046,16.5135805 106.274158,17.4170308 108.812201,24.28139 L101.798819,25.9788519 C101.798819,25.9788519 101.798819,25.9788519 101.798819,25.9788519 C102.031667,25.3222206 102.15042,24.5235519 102.15042,23.582846 C102.15042,21.8457998 101.691709,20.4021422 100.776617,19.2518731 C99.861524,18.1016039 98.4178663,17.5264693 96.4456437,17.5264693 C94.9880152,17.5264693 93.6514677,17.9013546 92.4313441,18.6534537 C91.2088921,19.4055527 90.1517622,20.4137846 89.2599543,21.6828062 C88.3681464,22.9494994 87.6649455,24.4280842 87.1480229,26.1185607 C86.6311003,27.8090373 86.372639,29.6182663 86.372639,31.5415908 C86.372639,33.6558507 86.6543851,35.5931461 87.2178773,37.353477 C87.7813695,39.1138079 88.5474394,40.6436193 89.6138833,41.8614144 C96.2733362,49.4708872 107.545508,45.4612445 109.1964,42.2060294 C109.1964,42.2060294 109.315153,42.5157173 109.592242,43.2398746 Z M155.449328,49.0447753 L155.449328,49.8201592 L150.103138,49.8201592 L143.469298,49.8248161 L138.123108,49.8248161 L138.123108,49.0494323 L138.127765,49.0494323 C140.288595,48.907395 143.476284,48.2181649 143.476284,43.5705187 L143.476284,6.65479599 C143.476284,4.55450698 140.477202,3.6650276 140.12793,3.6650276 L140.12793,2.73363558 L140.197784,2.70336534 L150.103138,0.209563205 L150.103138,43.7241984 C150.179978,48.2251503 153.316441,48.9050665 155.449328,49.0447753 Z" id="Path-1" fill="#75787B"></path>
                                <path d="M47.2565026,44.5997069 C49.3707625,48.9376652 52.937994,48.9865633 54.0184087,49.0331329 L54.0184087,49.8131737 L33.9701955,49.8131737 L33.9701955,49.0331329 C34.1122328,49.0331329 38.9019162,48.9376652 38.9019162,45.8687285 C38.9019162,43.0256544 33.5161419,29.5600543 33.4649153,29.4273309 L13.4516293,34.4661617 C12.6226904,36.5198811 9.60963717,44.0362147 9.60963717,45.9525538 C9.60963717,49.1053158 15.4471367,49.0331329 15.4471367,49.0331329 C15.4471367,49.5081429 15.463436,49.8248161 15.463436,49.8248161 L0.0931392021,49.8248161 L0.0931392021,49.0471038 C1.31791971,48.9050665 4.26577545,48.9376652 6.38003534,44.6672328 C7.01803888,43.3795834 19.1214782,14.9558274 22.7981482,6.46851758 L22.7981482,6.46851758 C23.631744,4.54519306 20.7071731,3.4787492 20.3555726,3.4787492 L20.3555726,2.7196647 L20.425427,2.69172294 L30.2353135,0.216548645 C30.2353135,0.216548645 46.6673972,43.3912258 47.2565026,44.5997069 Z M24.7447575,7.12980592 C24.4630114,7.74219617 14.4016491,32.0794697 14.303853,32.3262886 L32.7896561,27.6646715 C32.7896561,27.6646715 25.1662124,8.16365106 24.7447575,7.12980592 Z" id="Path-2" fill="#75787B"></path>
                            </g>
                        </g>
                    </g>
                </g>
            </g>
        </g>
    </g>
</svg>