<?xml version="1.0" encoding="UTF-8"?>
<svg width="112px" height="35px" viewBox="0 0 112 35" version="1.1" xmlns="http://www.w3.org/2000/svg" xmlns:xlink="http://www.w3.org/1999/xlink">
    <title>logo_dark_bg</title>
    <g id="Symbols" stroke="none" stroke-width="1" fill="none" fill-rule="evenodd">
        <g id="footer" transform="translate(-163.000000, -75.000000)">
            <g id="logo_dark_bg" transform="translate(163.000000, 75.000000)">
                <g id="zolve_logo" transform="translate(0.000000, 0.000000)">
                    <g id="Page-10" transform="translate(27.401704, 0.000000)" fill="#FFFFFF">
                        <path d="M80.0958569,25.9219028 L68.5838047,25.9219028 C69.5875658,27.2520987 71.1832428,28.1139659 72.9803852,28.1139659 C73.5740841,28.1139659 73.9574032,28.2635462 76.7208662,27.3803104 C80.3882491,26.2085983 81.8555589,28.5520224 82.001755,30.3113712 C82.1033791,31.5186975 81.1727161,32.5853472 80.2509674,33.1943526 C78.188176,34.5601628 74.3211106,35 72.9803852,35 C66.0342871,35 60.4235657,29.2928008 60.5875906,22.3195116 C60.7462668,15.6329178 66.2963704,10.232002 72.9928654,10.2373402 C79.384488,10.2444671 84.0556321,14.7799542 84.5762328,20.5619435 C84.898934,24.1607733 81.5988243,25.9219028 80.0958569,25.9219028 Z M78.5358374,19.3831086 C77.2004608,17.8089545 75.2072016,16.809972 72.9803852,16.809972 C70.7535689,16.809972 68.7620926,17.8089545 67.424933,19.3831086 L78.5358374,19.3831086 Z M24.790938,22.4726533 C24.790938,29.310608 19.2408345,34.8539812 12.3963604,34.8539812 C5.55010356,34.8539812 0,29.310608 0,22.4726533 C0,15.6346985 5.55010356,10.0913254 12.3963604,10.0913254 C19.2408345,10.0913254 24.790938,15.6346985 24.790938,22.4726533 Z M17.8965434,22.4726533 C17.8965434,19.4383109 15.4343869,16.9773595 12.3963604,16.9773595 C9.35655108,16.9773595 6.89439463,19.4383109 6.89439463,22.4726533 C6.89439463,25.5069957 9.35655108,27.9661664 12.3963604,27.9661664 C15.4343869,27.9661664 17.8965434,25.5069957 17.8965434,22.4726533 Z M30.660177,0 C32.5304175,0 34.0476478,1.51360977 34.0476478,3.38158229 L34.0476478,31.4741796 C34.045865,33.3421521 32.5286346,34.8539812 30.6583941,34.8539812 C28.7899365,34.8522005 27.2762719,33.3403714 27.274489,31.4741796 L27.274489,3.38158229 C27.274489,1.51360977 28.7899365,0 30.660177,0 Z M59.2040761,13.5067413 C59.1737672,14.4149071 58.9509073,15.3052658 58.5497594,16.117273 L52.4879695,31.4884253 C51.6232729,33.7606207 50.3538628,34.8059018 48.5567204,34.8522005 C46.7577951,34.8059018 45.4883849,33.7606207 44.6236884,31.4884253 L38.5601156,16.117273 C38.1607506,15.3052658 37.9378907,14.4149071 37.9075817,13.5067413 C37.9664168,11.5906894 39.5210876,10.0735182 41.4055911,10.0911702 C43.2722659,10.0911702 44.2047118,10.9923684 45.0908028,13.697278 L48.5567204,22.9196133 L52.0208551,13.697278 C52.9069461,10.9923684 53.839392,10.0911702 55.7060668,10.0911702 C57.5905703,10.0735182 59.1434582,11.5906894 59.2040761,13.5067413 Z" id="Path-331"></path>
                    </g>
                    <g id="favicon" transform="translate(0.000000, 1.380070)" fill-rule="nonzero">
                        <g id="Folder-3">
                            <path d="M0.186035575,30.1765664 C0.186035575,31.9797685 1.65511447,33.4562095 3.45665135,33.4735341 C4.47763468,33.4600594 5.48368149,32.9937389 6.12306086,32.1082593 L9.89718187,26.8786362 L3.48796986,26.8786362 C1.67197828,26.8786362 0.186035575,28.362777 0.186035575,30.1765664 Z" id="Path-311" fill="#CC0000"></path>
                            <path d="M0.771932568,28.3055095 C1.48695817,27.3964492 2.43759532,26.8786362 3.42292373,26.8786362 L3.48796986,26.8786362 L9.89718187,26.8786362 L13.0844422,22.4627881 L9.02652737,16.8476926 C5.2634883,22.0898279 1.64403253,27.1317679 0.771932568,28.3055095 Z M25.3155238,5.51547901 C24.7055356,6.20365064 23.8156082,6.63965308 22.8283525,6.63965308 L22.7845066,6.63965308 L16.3642127,6.63965308 C15.4391121,7.92167351 14.3024912,9.50109957 13.0670966,11.2205662 L17.1356116,16.8496175 L25.3155238,5.51547901 Z" id="Path-312" fill="#FF6633"></path>
                            <path d="M13.0670966,11.2205662 C11.7849651,13.005 10.3963507,14.9395804 9.02652737,16.8476926 L13.0844422,22.4627881 L17.1356116,16.8496175 L13.0670966,11.2205662 Z" id="Path-313" fill="#FF5319"></path>
                            <path d="M22.8288343,6.64013432 C23.8156082,6.64013432 24.7055356,6.20365064 25.3160056,5.51547901 C25.8358928,4.92933004 26.1529325,4.15982904 26.1529325,3.31958592 C26.1529325,1.50483404 24.6756626,0.018768317 22.8630438,0 C21.8300149,0.00192495559 20.8109588,0.478832704 20.1643521,1.37441829 C20.1643521,1.37441829 17.5562432,4.98804118 16.3642127,6.64013432 L22.7845066,6.64013432 L22.8288343,6.64013432 Z" id="Path-314" fill="#CC0000"></path>
                            <path d="M9.75697132,6.64013432 L9.09012803,6.64013432 C9.10361908,7.58865619 8.71478777,8.53092195 7.96844366,9.18925676 C7.88653372,9.26048012 7.80076919,9.32881604 7.71066825,9.39282082 C6.29748085,10.3981289 4.34850607,10.1368162 3.24175821,8.84180228 L9.02652737,16.8476926 C10.3963507,14.9395804 11.7849651,13.005 13.0670966,11.2205662 L9.75697132,6.64013432 Z" id="Path-315" fill="#CCCCCC" opacity="0.5"></path>
                            <path d="M7.71066825,9.39282082 C7.80076919,9.32881604 7.88653372,9.26048012 7.96844366,9.18925676 C8.71478777,8.53092195 9.10361908,7.58865619 9.09012803,6.63965308 L1.65848723,6.63965308 L3.06107452,8.61177009 C3.11841148,8.69213698 3.1791212,8.76817273 3.24175821,8.84180228 C4.34850607,10.1368162 6.29748085,10.3976476 7.71066825,9.39282082 Z" id="Path-316" fill="#CC0000"></path>
                            <path d="M22.7845066,0.0202120337 L3.47592428,0.0202120337 C3.48122434,0.0216557504 3.48652439,0.0240619449 3.49182445,0.0255056616 C3.74719074,0.038017873 4.00062973,0.0784419404 4.24684138,0.147259103 C4.83996572,0.313286523 5.3902078,0.639566496 5.8204759,1.11503053 L8.47724894,4.79121447 C8.59192286,4.94954207 8.68925114,5.11508825 8.77116109,5.28496558 C8.97979052,5.71663687 9.08386433,6.17910746 9.09060986,6.64013432 L9.75697132,6.64013432 L16.3642127,6.64013432 C17.548534,4.99333481 20.1383337,1.39126166 20.1383337,1.39126166 C20.780604,0.49808226 21.7929145,0.0226182282 22.818716,0.0211745115 C22.8071523,0.0206932726 22.7960704,0.0202120337 22.7845066,0.0202120337 Z" id="Path-317" fill="#DE001C"></path>
                            <path d="M8.77116109,5.28496558 C8.68925114,5.11508825 8.59192286,4.94954207 8.47724894,4.79121447 L5.8204759,1.11503053 C5.3902078,0.639566496 4.83996572,0.313286523 4.24684138,0.147259103 C4.00062973,0.0784419404 3.74719074,0.038017873 3.49182445,0.0255056616 C3.28849506,0.0153996447 3.08323839,0.0226182282 2.87942718,0.0490863676 C2.36050361,0.117422291 1.85073468,0.3055867 1.39685724,0.623685612 C-0.0967946346,1.66941774 -0.449007383,3.72671403 0.61485821,5.19545515 L1.23062824,6.047248 L1.65848723,6.64013432 L9.09060986,6.64013432 C9.08386433,6.17910746 8.97979052,5.71663687 8.77116109,5.28496558 Z" id="Path-318" fill="#AC0000"></path>
                            <path d="M18.2312775,23.9652159 C18.6856368,23.6418234 19.1954057,23.4507715 19.7143293,23.3814731 C20.1730249,23.3198745 20.6394298,23.355005 21.0812616,23.4806083 C21.6396947,23.6394172 22.1591001,23.9421164 22.5773226,24.3795626 L17.1356116,16.8500988 L13.0844422,22.4627881 L15.8520346,26.2929685 L16.262548,26.8786362 L16.8412176,26.8786362 C16.7766533,25.7708242 17.2642584,24.6529063 18.2312775,23.9652159 Z" id="Path-319" fill="#CCCCCC" opacity="0.5"></path>
                            <path d="M19.7143293,23.3814731 C19.1949239,23.4502903 18.6856368,23.6418234 18.2312775,23.9647347 C17.2642584,24.6529063 16.7766533,25.7708242 16.8412176,26.8786362 L24.3730776,26.8786362 L22.655378,24.4637794 C22.6293595,24.4353863 22.6033411,24.4069932 22.5768408,24.3795626 C22.1591001,23.9421164 21.6396947,23.6394172 21.0812616,23.4806083 C20.6394298,23.355005 20.1730249,23.3203558 19.7143293,23.3814731 Z" id="Path-320" fill="#CC0000"></path>
                            <path d="M20.0766603,32.2781366 C20.0226961,32.1977697 19.9533136,32.1284713 19.8959766,32.0481044 L18.0650485,29.4739576 L17.4492785,28.60869 C17.3529138,28.4734619 17.2685948,28.3334214 17.1953577,28.1895309 C17.1924667,28.1837561 17.1900576,28.1779812 17.1871667,28.1726876 C17.1871667,28.1722063 17.1871667,28.1722063 17.1871667,28.1717251 C17.058038,27.9152248 16.965528,27.647656 16.9077092,27.3747935 C16.9062637,27.3675749 16.9053001,27.3603563 16.9038546,27.3531377 C16.8942182,27.3054951 16.8850635,27.2583337 16.8773543,27.210691 C16.8739816,27.190479 16.8720543,27.1697857 16.8691634,27.1495737 C16.8643451,27.1149245 16.8590451,27.0802753 16.8551905,27.0451448 C16.8489268,26.9898024 16.8445904,26.9344599 16.8412176,26.8786362 L16.2741117,26.8786362 L16.262548,26.8786362 L9.89718187,26.8786362 L6.12306086,32.1082593 C5.48368149,32.9937389 4.47763468,33.4672779 3.45665135,33.4735341 C3.46725146,33.4735341 3.47736975,33.4740153 3.48796986,33.4740153 L21.9027702,33.4740153 C21.1024619,33.344562 20.4833191,32.8806477 20.0766603,32.2781366 Z" id="Path-321" fill="#DE001C"></path>
                            <path d="M25.6060632,28.6957943 C25.5241532,28.5230295 25.4268249,28.3545959 25.3116692,28.1938621 L24.3730776,26.8733426 C24.3730776,26.8733426 16.8416994,26.8733426 16.8412176,26.8733426 C16.8012263,26.8815236 16.9154184,27.3719061 16.9240912,27.4123301 C16.9799827,27.6736429 17.0296105,27.9445804 17.1871667,28.1678752 C17.1876485,28.1683564 20.0294416,32.1968073 20.0294416,32.1968073 C20.2997444,32.5712111 20.6365388,32.8724667 21.0123609,33.0976865 C21.2913365,33.2641951 21.5939215,33.4287788 21.9201158,33.4725716 C22.58985,33.5630445 23.7438166,33.5091457 24.5450885,32.8272302 C24.6356713,32.7627442 24.720954,32.6948895 24.8028639,32.6236662 C25.9178028,31.6395326 26.2367697,30.0230512 25.6060632,28.6957943 Z" id="Path-322" fill="#AC0000"></path>
                            <path d="M16.8735858,27.0451448 C16.8815858,27.0802753 16.8925858,27.1149245 16.9025858,27.1495737 C16.8925858,27.1149245 16.8815858,27.0802753 16.8735858,27.0451448 Z" id="Path-328" fill="#AC0000"></path>
                        </g>
                    </g>
                </g>
            </g>
        </g>
    </g>
</svg>