<?xml version="1.0" encoding="UTF-8"?>
<svg width="36px" height="41px" viewBox="0 0 36 41" version="1.1" xmlns="http://www.w3.org/2000/svg" xmlns:xlink="http://www.w3.org/1999/xlink">
    <title>ss-1</title>
    <g id="New-Landing" stroke="none" stroke-width="1" fill="none" fill-rule="evenodd" stroke-linecap="round" stroke-linejoin="round">
        <g id="Landing/Home" transform="translate(-510.000000, -5265.000000)" stroke="#000000" stroke-width="2">
            <g id="Group-44" transform="translate(350.000000, 4917.000000)">
                <g id="Group-36" transform="translate(0.000000, 349.000000)">
                    <g id="ss-1" transform="translate(161.000000, 0.000000)">
                        <path d="M0,5.50125983 L0,18.6983196 C0,27.2372265 5.29005603,34.8943195 13.3070896,37.9600645 L15.1221603,38.6533695 C16.3308875,39.1155435 17.6691125,39.1155435 18.8778397,38.6533695 L20.6929104,37.9600645 C28.709944,34.8943195 34,27.2372265 34,18.6983196 L34,5.50125983 C34.0067674,4.48685505 33.414371,3.56281393 32.4865109,3.14055646 C27.6041937,1.02214443 22.3268993,-0.0475026212 17,0.00161827699 C11.6731007,-0.0475026212 6.39580634,1.02214443 1.51348906,3.14055646 C0.58562902,3.56281393 -0.00676738922,4.48685505 0,5.50125983 Z" id="Path"></path>
                        <path d="M26.0666355,18.2008733 C25.3688246,23.0068216 20.9979729,26.4213971 16.1354796,25.959243 C11.2729863,25.4970888 7.63220017,21.3210495 7.86312957,16.4707267 C8.09405896,11.6204038 12.1153336,7.80485785 17,7.80129902" id="Path" fill="#FF6633"></path>
                        <path d="M26.1538147,10.0753393 L17.8090229,18.3707331 C17.3618918,18.8141302 16.6381082,18.8141302 16.1909771,18.3707331 L13.5756015,15.7621732" id="Path"></path>
                    </g>
                </g>
            </g>
        </g>
    </g>
</svg>