<?xml version="1.0" encoding="UTF-8"?>
<svg width="161px" height="51px" viewBox="0 0 161 51" version="1.1" xmlns="http://www.w3.org/2000/svg" xmlns:xlink="http://www.w3.org/1999/xlink">
    <title>zolve_logo_w</title>
    <defs>
        <filter color-interpolation-filters="auto" id="filter-1">
            <feColorMatrix in="SourceGraphic" type="matrix" values="0 0 0 0 1.000000 0 0 0 0 1.000000 0 0 0 0 1.000000 0 0 0 1.000000 0"></feColorMatrix>
        </filter>
    </defs>
    <g id="New-Landing" stroke="none" stroke-width="1" fill="none" fill-rule="evenodd">
        <g id="Landing/Home" transform="translate(-161.000000, -57.000000)">
            <g id="zolve_logo_w" transform="translate(161.014416, 48.000000)" filter="url(#filter-1)">
                <g transform="translate(0.000000, 9.000000)">
                    <g id="Page-10" transform="translate(38.985584, 0.000000)" fill="#2C2C2C">
                        <path d="M114.957447,37.2280851 L98.4714894,37.2280851 C99.9089362,39.1353191 102.194043,40.3710638 104.76766,40.3710638 C105.617872,40.3710638 106.166809,40.5855319 110.124255,39.3191489 C115.37617,37.6391489 117.477447,40.9991489 117.686809,43.5217021 C117.83234,45.252766 116.499574,46.7821277 115.179574,47.6553191 C112.225532,49.613617 106.68766,50.2442553 104.76766,50.2442553 C94.8204255,50.2442553 86.7855319,42.0612766 87.0204255,32.0629787 C87.2476596,22.4757447 95.1957447,14.7319149 104.785532,14.7395688 C113.938723,14.7497872 120.628085,21.252766 121.373617,29.5429787 C121.835745,34.7029787 117.109787,37.2280851 114.957447,37.2280851 Z M112.723404,27.852766 C110.811064,25.5957447 107.956596,24.1634043 104.76766,24.1634043 C101.578723,24.1634043 98.7268085,25.5957447 96.8119149,27.852766 L112.723404,27.852766 Z M35.7574468,32.2825532 C35.7574468,42.0868085 27.8093617,50.0348936 18.0076596,50.0348936 C8.20340426,50.0348936 0.255319149,42.0868085 0.255319149,32.2825532 C0.255319149,22.4782979 8.20340426,14.5302128 18.0076596,14.5302128 C27.8093617,14.5302128 35.7574468,22.4782979 35.7574468,32.2825532 Z M25.8842553,32.2825532 C25.8842553,27.9319149 22.3582979,24.4034043 18.0076596,24.4034043 C13.6544681,24.4034043 10.1285106,27.9319149 10.1285106,32.2825532 C10.1285106,36.6331915 13.6544681,40.1591489 18.0076596,40.1591489 C22.3582979,40.1591489 25.8842553,36.6331915 25.8842553,32.2825532 Z M44.1625532,0.0612765957 C46.8408511,0.0612765957 49.013617,2.23148936 49.013617,4.90978723 L49.013617,45.1889362 C49.0110638,47.867234 46.8382979,50.0348936 44.16,50.0348936 C41.4842553,50.0323404 39.3165957,47.8646809 39.3140426,45.1889362 L39.3140426,4.90978723 C39.3140426,2.23148936 41.4842553,0.0612765957 44.1625532,0.0612765957 Z M85.0391489,19.427234 C84.9957447,20.7293617 84.6765957,22.0059574 84.1021277,23.1702128 L75.4212766,45.2093617 C74.1829787,48.467234 72.3651064,49.9659574 69.7914894,50.0323404 C67.2153191,49.9659574 65.3974468,48.467234 64.1591489,45.2093617 L55.4757447,23.1702128 C54.9038298,22.0059574 54.5846809,20.7293617 54.5412766,19.427234 C54.6255319,16.68 56.8519149,14.5046809 59.5506383,14.5299903 C62.2238298,14.5299903 63.5591489,15.8221277 64.8280851,19.7004255 L69.7914894,32.9234043 L74.7523404,19.7004255 C76.0212766,15.8221277 77.3565957,14.5299903 80.0297872,14.5299903 C82.7285106,14.5046809 84.9523404,16.68 85.0391489,19.427234 Z" id="Path-331"></path>
                    </g>
                    <g id="favicon" transform="translate(0.000000, 2.040020)" fill-rule="nonzero">
                        <g id="Folder-3">
                            <path d="M0.266414233,43.2671425 C0.266414233,45.8525727 2.37022435,47.9694928 4.9501345,47.9943328 C6.41224459,47.9750128 7.85296467,47.3064027 8.76859472,46.0368027 L14.173365,38.5385722 L4.99498451,38.5385722 C2.39437436,38.5385722 0.266414233,40.6665324 0.266414233,43.2671425 Z" id="Path-311" fill="#CC0000"></path>
                            <path d="M1.10545428,40.5844223 C2.12941434,39.2810123 3.49078442,38.5385722 4.9018345,38.5385722 L4.99498451,38.5385722 L14.173365,38.5385722 L18.7377153,32.2071319 L12.926535,24.1562114 C7.53763465,31.6723818 2.35435435,38.9015123 1.10545428,40.5844223 Z M36.2533663,7.90809046 C35.3798263,8.89479051 34.1053962,9.51993055 32.6915861,9.51993055 L32.6287961,9.51993055 L23.4345456,9.51993055 C22.1097455,11.3580907 20.4820354,13.6226708 18.7128753,16.0880409 L24.5392356,24.1589714 L36.2533663,7.90809046 Z" id="Path-312" fill="#FF6633"></path>
                            <path d="M18.7128753,16.0880409 C16.8767852,18.6465611 14.8882051,21.4203612 12.926535,24.1562114 L18.7377153,32.2071319 L24.5392356,24.1589714 L18.7128753,16.0880409 Z" id="Path-313" fill="#FF5319"></path>
                            <path d="M32.6922761,9.52062055 C34.1053962,9.52062055 35.3798263,8.89479051 36.2540563,7.90809046 C36.9985664,7.06767041 37.4525864,5.96436035 37.4525864,4.75962028 C37.4525864,2.15763012 35.3370463,0.0269100016 32.7412661,0 C31.261906,0.00276000016 29.8025559,0.68655004 28.8765759,1.97064011 C28.8765759,1.97064011 25.1416057,7.15185041 23.4345456,9.52062055 L32.6287961,9.52062055 L32.6922761,9.52062055 Z" id="Path-314" fill="#CC0000"></path>
                            <path d="M13.972575,9.52062055 L13.017615,9.52062055 C13.036935,10.8806106 12.4801049,12.2316307 11.4112949,13.1755508 C11.2939949,13.2776708 11.1711749,13.3756508 11.0421449,13.4674208 C9.01837474,14.9088309 6.22732458,14.5341608 4.64239449,12.6773707 L12.926535,24.1562114 C14.8882051,21.4203612 16.8767852,18.6465611 18.7128753,16.0880409 L13.972575,9.52062055 Z" id="Path-315" fill="#CCCCCC" opacity="0.5"></path>
                            <path d="M11.0421449,13.4674208 C11.1711749,13.3756508 11.2939949,13.2776708 11.4112949,13.1755508 C12.4801049,12.2316307 13.036935,10.8806106 13.017615,9.51993055 L2.37505435,9.51993055 L4.38364447,12.3475507 C4.46575448,12.4627807 4.55269448,12.5718007 4.64239449,12.6773707 C6.22732458,14.5341608 9.01837474,14.9081409 11.0421449,13.4674208 Z" id="Path-316" fill="#CC0000"></path>
                            <path d="M32.6287961,0.0289800017 L4.97773451,0.0289800017 C4.98532451,0.0310500018 4.99291451,0.034500002 5.00050451,0.0365700021 C5.36620453,0.0545100032 5.72914455,0.112470007 6.08173457,0.211140012 C6.93112462,0.449190026 7.71910466,0.917010053 8.3352747,1.59873009 L12.1399349,6.8696404 C12.3041549,7.09665041 12.4435349,7.33401042 12.5608349,7.57758044 C12.859605,8.19651047 13.008645,8.85960051 13.018305,9.52062055 L13.972575,9.52062055 L23.4345456,9.52062055 C25.1305657,7.15944041 28.8393159,1.99479012 28.8393159,1.99479012 C29.7590859,0.714150041 31.208776,0.0324300019 32.6777861,0.0303600018 C32.6612261,0.0296700017 32.6453561,0.0289800017 32.6287961,0.0289800017 Z" id="Path-317" fill="#DE001C"></path>
                            <path d="M12.5608349,7.57758044 C12.4435349,7.33401042 12.3041549,7.09665041 12.1399349,6.8696404 L8.3352747,1.59873009 C7.71910466,0.917010053 6.93112462,0.449190026 6.08173457,0.211140012 C5.72914455,0.112470007 5.36620453,0.0545100032 5.00050451,0.0365700021 C4.70932449,0.0220800013 4.41538447,0.0324300019 4.12351446,0.0703800041 C3.38038441,0.16836001 2.65036437,0.438150025 2.00038433,0.894240052 C-0.138615791,2.39361014 -0.64300582,5.34336031 0.880514268,7.44924043 L1.76233432,8.6705405 L2.37505435,9.52062055 L13.018305,9.52062055 C13.008645,8.85960051 12.859605,8.19651047 12.5608349,7.57758044 Z" id="Path-318" fill="#AC0000"></path>
                            <path d="M26.1082957,34.361312 C26.7589658,33.897632 27.4889858,33.6237019 28.2321159,33.5243419 C28.8889959,33.4360219 29.5569159,33.4863919 30.189646,33.6664819 C30.989356,33.894182 31.7331761,34.328192 32.3320961,34.955402 L24.5392356,24.1596614 L18.7377153,32.2071319 L22.7010755,37.6988422 L23.2889556,38.5385722 L24.1176456,38.5385722 C24.0251856,36.9501921 24.7234656,35.347322 26.1082957,34.361312 Z" id="Path-319" fill="#CCCCCC" opacity="0.5"></path>
                            <path d="M28.2321159,33.5243419 C27.4882958,33.6230119 26.7589658,33.897632 26.1082957,34.360622 C24.7234656,35.347322 24.0251856,36.9501921 24.1176456,38.5385722 L34.9037262,38.5385722 L32.4438761,35.076152 C32.4066161,35.035442 32.3693561,34.994732 32.3314061,34.955402 C31.7331761,34.328192 30.989356,33.894182 30.189646,33.6664819 C29.5569159,33.4863919 28.8889959,33.4367119 28.2321159,33.5243419 Z" id="Path-320" fill="#CC0000"></path>
                            <path d="M28.7509959,46.2803727 C28.6737159,46.1651427 28.5743559,46.0657827 28.4922459,45.9505527 L25.8702457,42.2597424 L24.9884257,41.0191224 C24.8504257,40.8252324 24.7296756,40.6244424 24.6247956,40.4181323 C24.6206556,40.4098523 24.6172056,40.4015723 24.6130656,40.3939823 C24.6130656,40.3932923 24.6130656,40.3932923 24.6130656,40.3926023 C24.4281456,40.0248323 24.2956656,39.6411923 24.2128656,39.2499623 C24.2107956,39.2396123 24.2094156,39.2292623 24.2073456,39.2189123 C24.1935456,39.1506023 24.1804356,39.0829823 24.1693956,39.0146723 C24.1645656,38.9856923 24.1618056,38.9560223 24.1576656,38.9270423 C24.1507656,38.8773623 24.1431756,38.8276822 24.1376556,38.7773122 C24.1286856,38.6979622 24.1224756,38.6186122 24.1176456,38.5385722 L23.3055156,38.5385722 L23.2889556,38.5385722 L14.173365,38.5385722 L8.76859472,46.0368027 C7.85296467,47.3064027 6.41224459,47.9853628 4.9501345,47.9943328 C4.9653145,47.9943328 4.97980451,47.9950228 4.99498451,47.9950228 L31.366096,47.9950228 C30.220006,47.8094128 29.3333559,47.1442527 28.7509959,46.2803727 Z" id="Path-321" fill="#DE001C"></path>
                            <path d="M36.6694363,41.1440124 C36.5521363,40.8963024 36.4127563,40.6548024 36.2478463,40.4243423 L34.9037262,38.5309822 C34.9037262,38.5309822 24.1183356,38.5309822 24.1176456,38.5309822 C24.0603756,38.5427122 24.2239056,39.2458223 24.2363256,39.3037823 C24.3163656,39.6784523 24.3874356,40.0669223 24.6130656,40.3870823 C24.6137556,40.3877723 28.6833759,46.1637627 28.6833759,46.1637627 C29.0704659,46.7005827 29.5527759,47.1325227 30.090976,47.4554427 C30.490486,47.6941828 30.923806,47.9301628 31.390936,47.9929528 C32.3500361,48.1226728 34.0025862,48.0453928 35.1500563,47.0676627 C35.2797763,46.9752027 35.4019063,46.8779127 35.5192063,46.7757927 C37.1158664,45.3647426 37.5726464,43.0470325 36.6694363,41.1440124 Z" id="Path-322" fill="#AC0000"></path>
                            <path d="M24.1486606,38.7773122 C24.1566606,38.8276822 24.1676606,38.8773623 24.1776606,38.9270423 C24.1676606,38.8773623 24.1566606,38.8276822 24.1486606,38.7773122 Z" id="Path-328" fill="#AC0000"></path>
                        </g>
                    </g>
                </g>
            </g>
        </g>
    </g>
</svg>